<svg width="1910" height="1187" viewBox="0 0 1910 1187" fill="none" xmlns="http://www.w3.org/2000/svg">
<g clip-path="url(#clip0_188_19672)">
<g style="mix-blend-mode:plus-lighter">
<g style="mix-blend-mode:multiply">
<path d="M279.476 -161.666C318.78 -149.29 357.562 -135.807 395.752 -121.244C577.596 -51.908 753.983 6.75002 941.451 6.88869C1128.67 7.02736 1305.22 -51.4226 1487.07 -120.758C1526.19 -135.735 1565.4 -149.325 1604.6 -161.666H1574.13C1545.16 -151.959 1516.12 -141.628 1487.07 -130.604C1305.22 -61.2683 1128.67 -2.74898 941.368 -2.88765C753.983 -3.09566 577.596 -61.7536 395.668 -131.02C367.123 -141.906 338.495 -152.167 309.867 -161.666L279.476 -161.666ZM356.545 -161.666C369.558 -156.952 382.571 -152.237 395.752 -147.245C577.596 -77.9089 753.983 -19.3202 941.451 -19.1122C1128.67 -18.9735 1305.22 -77.4928 1487.07 -146.829C1500.5 -151.959 1513.93 -156.813 1527.37 -161.666H1339.98C1208.68 -117.985 1077.96 -86.8531 941.368 -86.9918C805.278 -87.1305 674.898 -118.193 544.098 -161.666H356.545ZM-149.528 -113.825V-112.993V-113.131V-42.409V-42.617V-41.785C32.0638 -41.785 213.992 0.856491 395.752 70.1228C577.596 139.389 754.067 198.047 941.451 198.047C1128.75 198.047 1305.22 139.597 1487.07 70.2615C1668.91 0.925827 1851.26 -41.785 2033.27 -41.785V-113.825C1851.26 -113.825 1668.91 -71.1833 1487.07 -1.84761C1305.22 67.4881 1128.75 126.007 941.368 126.007C754.067 126.007 577.596 67.2801 395.668 -1.98628C213.992 -71.2526 32.2317 -113.894 -149.528 -113.894V-113.825ZM-149.528 61.1092V74.075C32.0638 74.075 213.992 116.716 395.752 185.983C577.596 255.249 753.983 313.976 941.451 314.046C1128.75 314.115 1305.22 255.596 1487.07 186.26C1668.91 116.924 1851.26 74.2136 2033.27 74.075V61.1092C1851.26 61.1092 1668.91 103.959 1487.07 173.294C1305.22 242.63 1128.67 301.011 941.368 300.941C753.983 300.941 577.596 242.283 395.668 173.017C213.992 103.751 32.2317 61.1092 -149.528 61.1092ZM-149.528 297.267V297.752V297.613V352.18C32.0638 352.18 213.992 394.822 395.752 464.088C577.596 533.355 754.067 591.943 941.451 592.012C1128.67 592.082 1305.22 533.701 1487.07 464.366C1668.91 395.03 1851.26 352.18 2033.27 352.18V297.267C1851.26 297.267 1668.91 340.116 1487.07 409.452C1305.22 478.787 1128.67 537.168 941.368 537.099C753.983 537.099 577.596 478.441 395.668 409.174C213.992 339.908 32.2317 297.267 -149.528 297.267ZM-149.528 623.699V643.044C32.0638 643.044 213.992 685.754 395.752 754.951C577.596 824.287 754.067 882.876 941.451 882.945C1128.67 883.014 1305.22 824.634 1487.07 755.298C1668.91 685.962 1851.26 643.044 2033.27 643.044V623.699C1851.26 623.699 1668.91 666.548 1487.07 735.953C1305.22 805.289 1128.75 863.67 941.368 863.6C754.067 863.531 577.596 804.942 395.668 735.607C213.992 666.41 32.1477 623.699 -149.528 623.699ZM-149.528 811.252V817.631C32.0638 817.631 213.992 860.272 395.752 929.539C577.596 998.805 753.983 1057.53 941.451 1057.6C1128.75 1057.74 1305.22 999.152 1487.07 929.816C1668.91 860.48 1851.26 817.77 2033.27 817.631V811.252C1851.26 811.391 1668.91 854.24 1487.07 923.576C1305.22 992.911 1128.75 1051.36 941.368 1051.22C753.983 1051.08 577.596 992.426 395.668 923.09C213.992 853.893 32.1477 811.252 -149.528 811.252ZM-149.528 921.01V921.357V921.288V988.543V988.474V988.89C19.0509 988.89 187.966 1025.64 356.713 1086.38H544.098C494.126 1069.59 444.662 1051.79 395.752 1032.99C213.992 963.652 32.0638 920.941 -149.528 920.941V921.01ZM2033.27 921.01C1851.26 921.149 1668.91 963.998 1487.07 1033.33C1437.79 1052.19 1388.84 1070.08 1339.98 1086.38H1527.28C1695.78 1025.85 1864.69 989.029 2033.27 988.89V921.288V921.01ZM-149.528 1005.11V1014.89C-6.72289 1014.89 136.334 1041.38 279.392 1086.38H309.615C156.651 1035.48 3.51947 1005.11 -149.528 1005.11ZM2033.27 1005.11C1880.31 1005.25 1727.18 1035.62 1574.3 1086.38H1604.69C1747.41 1041.52 1890.47 1015.03 2033.27 1014.96V1005.18V1005.11Z" fill="#805AD5" fill-opacity="0.02"/>
</g>
<g style="mix-blend-mode:multiply">
<path d="M-22.4222 -161.666C116.941 -147.106 256.304 -109.734 395.668 -56.6228C577.596 12.6435 753.983 71.3015 941.368 71.4402C1128.75 71.6482 1305.22 13.1982 1487.07 -56.1374C1626.77 -109.526 1766.8 -146.967 1906.75 -161.666H1734.65C1649.78 -141.676 1566.99 -116.101 1487.07 -85.1891C1305.22 -15.8534 1128.75 42.5966 941.368 42.4579C753.983 42.3192 577.596 -16.3388 395.668 -85.6744C316.22 -116.364 233.936 -141.776 149.599 -161.666L-22.4222 -161.666ZM862.703 -161.666C888.728 -159.448 914.922 -158.2 941.368 -158.13C968.233 -158.13 994.93 -159.448 1021.38 -161.666H862.703ZM-149.528 -126.236V-116.598V-116.667V-116.529C32.0638 -116.529 213.992 -73.8874 395.752 -4.69037C577.596 64.6453 754.067 123.303 941.451 123.303C1128.75 123.303 1305.22 64.8533 1487.07 -4.48236C1668.91 -73.818 1851.17 -116.529 2033.19 -116.529L2033.27 -116.667V-126.236C1851.09 -126.236 1668.91 -83.525 1487.07 -14.1894C1305.22 55.1463 1128.75 113.666 941.368 113.666C754.067 113.666 577.596 54.9383 395.668 -14.328C213.992 -83.5944 32.2317 -126.305 -149.528 -126.305V-126.236ZM-149.528 -9.89055V-9.33586V-9.54387V25.1933V24.9853V25.54C32.0638 25.54 213.992 68.1814 395.752 137.448C577.596 206.783 754.067 265.303 941.451 265.441C1128.67 265.441 1305.22 207.061 1487.07 137.725C1668.91 68.3894 1851.17 25.54 2033.19 25.54L2033.27 25.124V-9.82121C1851.09 -9.82121 1668.91 32.8896 1487.07 102.225C1305.22 171.561 1128.75 230.08 941.368 230.08C754.067 230.08 577.596 171.353 395.668 102.087C213.992 32.7509 32.2317 -9.82121 -149.528 -9.82121V-9.89055ZM-149.528 436.215V478.163C32.0638 478.163 213.992 520.874 395.752 590.071C577.596 659.407 754.067 717.995 941.451 718.065C1128.67 718.134 1305.22 659.753 1487.07 590.418C1668.91 521.082 1851.17 478.163 2033.19 478.163L2033.27 478.025V436.423L2033.19 436.215C1851.17 436.354 1668.83 479.065 1487.07 548.4C1305.22 617.736 1128.75 676.325 941.368 676.255C753.983 676.186 577.596 617.389 395.668 548.123C213.992 478.857 32.2317 436.215 -149.528 436.215ZM-149.528 824.01V849.872C32.0638 849.872 213.992 892.583 395.752 961.78C551.906 1021.34 704.114 1072.86 862.703 1086.38H1021.54C1179.54 1072.92 1331.33 1021.62 1487.07 962.265C1668.91 892.929 1851.17 850.08 2033.19 849.941L2033.27 849.803V824.01C1851.09 824.148 1668.91 866.998 1487.07 936.334C1305.22 1005.67 1128.75 1064.19 941.368 1064.05C753.983 1063.84 577.596 1005.18 395.668 935.918C213.992 866.582 32.2317 824.01 -149.528 824.01ZM-149.528 1050.46V1050.67V1050.6V1079.44C-107.048 1079.44 -64.5671 1081.87 -22.0864 1086.31H149.347C49.6101 1063.29 -49.9591 1050.39 -149.528 1050.39V1050.46ZM2033.27 1050.46C1933.79 1050.6 1834.3 1063.5 1734.9 1086.38H1906.67C1948.9 1081.94 1991.04 1079.51 2033.19 1079.44H2033.27V1050.6V1050.46Z" fill="#805AD5" fill-opacity="0.02"/>
</g>
<g style="mix-blend-mode:multiply">
<path d="M189.897 -161.666C260.173 -143.286 328.935 -121.168 395.752 -95.4508C577.596 -26.1844 753.983 32.4735 941.452 32.6122C1128.67 32.8202 1305.22 -25.6298 1487.07 -94.9654C1556.08 -121.313 1625.17 -143.847 1694.35 -161.666H1658.42C1600.13 -145.154 1542.94 -126.13 1487.07 -104.672C1305.22 -35.3367 1128.75 23.1132 941.368 22.9745C753.983 22.8359 577.596 -35.8221 395.668 -105.158C340.251 -126.414 283.534 -145.276 225.745 -161.666L189.897 -161.666ZM702.015 -161.666C780.596 -143.431 859.932 -132.268 941.368 -132.199C1023.31 -132.199 1103.15 -143.292 1182.23 -161.666H1167.12C1092.99 -145.372 1018.1 -135.457 941.368 -135.527C864.97 -135.527 790.419 -145.442 716.539 -161.666H702.015ZM-149.528 -161.666V-154.525C32.1477 -154.525 213.992 -111.814 395.752 -42.617C577.596 26.7187 754.067 85.3767 941.452 85.3767C1128.84 85.3767 1305.31 26.8574 1487.15 -42.4783C1668.91 -111.814 1851.18 -154.455 2033.19 -154.455H2033.27V-161.666C1851.09 -161.666 1668.91 -119.025 1487.07 -49.6892C1305.31 19.6464 1128.75 78.1658 941.368 78.1658C754.067 78.1658 577.596 19.4384 395.668 -49.8279C213.992 -119.025 32.2317 -161.666 -149.528 -161.666ZM-149.528 -142.46V-132.823C32.0638 -132.823 213.992 -90.1119 395.752 -20.9149C577.596 48.4207 754.067 107.079 941.452 107.079C1128.75 107.079 1305.31 48.6288 1487.15 -20.7069C1668.91 -90.0426 1851.18 -132.753 2033.19 -132.753L2033.27 -132.823V-142.391C1851.09 -142.391 1668.91 -99.7496 1487.07 -30.4139C1305.31 38.9218 1128.75 97.4411 941.368 97.4411C754.067 97.4411 577.596 38.7137 395.668 -30.5526C213.992 -99.8189 32.2317 -142.46 -149.36 -142.46H-149.528ZM-149.528 83.8513V87.2487C32.0638 87.2487 213.992 129.89 395.752 199.087C577.596 268.423 754.067 327.081 941.452 327.081C1128.75 327.081 1305.22 268.631 1487.07 199.295C1668.91 129.96 1851.18 87.2487 2033.19 87.2487L2033.27 87.1794V83.9899H2033.19C1851.18 83.9899 1668.83 126.631 1487.07 195.967C1305.22 265.303 1128.75 323.822 941.368 323.822C754.067 323.822 577.596 265.095 395.668 195.828C213.992 126.493 32.2317 83.8513 -149.528 83.8513ZM-149.528 158.248V167.747C32.0638 167.747 213.992 210.458 395.752 279.655C577.596 348.991 753.983 407.718 941.452 407.788C1128.75 407.857 1305.22 349.338 1487.07 280.002C1668.91 210.666 1851.18 167.955 2033.19 167.817L2033.27 167.747V158.248C1851.18 158.248 1668.91 200.959 1487.07 270.295C1305.22 339.631 1128.75 398.15 941.368 398.15C754.067 398.15 577.596 339.492 395.668 270.156C213.992 200.959 32.2317 158.248 -149.528 158.248ZM-149.528 258.508V277.852C32.1477 277.852 213.992 320.494 395.752 389.691C577.596 459.027 754.067 517.615 941.452 517.685C1128.67 517.754 1305.31 459.373 1487.15 390.038C1668.91 320.702 1851.18 277.852 2033.19 277.852L2033.27 277.714V258.508C1851.26 258.508 1668.91 301.357 1487.07 370.693C1305.22 440.029 1128.75 498.409 941.368 498.34C754.067 498.34 577.596 439.682 395.668 370.346C213.992 301.08 32.2317 258.508 -149.528 258.508ZM-149.528 519.765V520.319V520.181V597.005V596.866V597.421C32.0638 597.421 213.992 640.131 395.752 709.328C577.596 778.664 754.067 837.253 941.452 837.322C1128.67 837.391 1305.22 779.011 1487.07 709.675C1668.91 640.339 1851.18 597.421 2033.19 597.421L2033.27 597.005V519.695C1851.09 519.834 1668.91 562.545 1487.07 631.88C1305.22 701.216 1128.75 759.805 941.368 759.735C753.983 759.666 577.596 700.939 395.668 631.603C213.992 562.337 32.2317 519.695 -149.528 519.695V519.765ZM-149.528 762.786V791.768C32.0638 791.768 213.992 834.41 395.752 903.676C577.596 973.012 753.983 1031.67 941.452 1031.81C1128.67 1031.95 1305.22 973.497 1487.07 904.162C1668.91 834.826 1851.18 791.907 2033.19 791.838L2033.27 791.699V762.786C1851.09 762.925 1668.91 805.636 1487.07 874.971C1305.31 944.307 1128.75 1002.9 941.368 1002.83C753.983 1002.69 577.596 943.96 395.668 874.694C213.992 805.428 32.1477 762.786 -149.528 762.786ZM2033.27 872.753H2033.19C1851.18 872.753 1668.83 915.602 1487.07 984.938C1379.69 1025.85 1274.16 1062.94 1167.2 1086.45H1182.23C1284.07 1062.87 1384.73 1027.23 1487.07 988.196C1668.91 918.861 1851.18 876.011 2033.19 875.873H2033.27V872.753ZM-149.528 872.753V875.873C32.0638 875.873 213.992 918.514 395.752 987.78C498.595 1026.96 599.676 1062.66 702.015 1086.45H716.455C609.162 1062.87 503.38 1025.64 395.752 984.66C213.992 915.325 32.0638 872.683 -149.528 872.683V872.753ZM2033.27 1030.98C1908.35 1031.12 1783.34 1051.29 1658.5 1086.38H1694.6C1807.44 1057.25 1920.44 1040.75 2033.27 1040.61H2033.35V1031.05L2033.27 1030.98ZM-149.528 1030.98V1040.61C-36.4425 1040.61 76.6433 1057.25 189.813 1086.38H225.661C100.57 1051.22 -24.5211 1030.98 -149.528 1030.98Z" fill="#805AD5" fill-opacity="0.02"/>
</g>
</g>
</g>
<defs>
<clipPath id="clip0_188_19672">
<rect width="1910" height="1187" fill="white"/>
</clipPath>
</defs>
</svg>
