<svg width="136" height="140" viewBox="0 0 136 140" fill="none" xmlns="http://www.w3.org/2000/svg">
<path d="M20.8998 85.6492C21.541 80.9171 19.4344 77.4063 16.1983 74.3839C12.8096 71.2088 9.72614 67.7896 7.34486 63.7597C0.628426 52.4028 4.5667 29.7501 20.1671 27.8878C21.9378 27.6741 23.7085 27.3688 25.4792 27.3383C30.6997 25.5066 34.1495 21.9957 35.8286 16.7752C36.9277 15.1571 38.3015 13.6307 39.7975 12.379C43.7052 9.11235 48.3762 8.99023 52.406 12.0432C54.6652 13.7528 56.7107 15.7372 58.8782 17.5995C60.771 19.2175 62.7554 20.7135 65.2894 21.263C68.1286 21.8736 70.632 21.2935 72.7996 19.3396C73.8986 18.3627 74.9366 17.2942 75.9746 16.2562C80.8288 11.2799 89.1938 11.1273 94.1395 16.0425C95.7575 17.6605 97.1924 19.4618 98.5357 21.2935C100.093 23.4306 101.986 24.4075 104.672 24.1022C107.664 23.7664 110.442 24.6212 112.793 26.514C119.265 31.6735 112.304 39.6111 119.204 45.5948C125.127 50.7237 124.058 62.6301 116.609 66.4768C112.732 68.4917 112.579 69.6213 114.838 73.4375C118.899 80.2455 119.051 90.3507 109.007 92.7625C106.199 93.4341 103.329 94.0447 100.673 95.1438C99.1768 95.7544 97.7725 97.0671 96.8261 98.4104C95.147 104.15 95.9102 109.828 99.1463 115.476C100.001 119.415 99.8485 123.383 98.3831 127.199C96.0323 133.336 85.9577 138.129 82.63 129.947C81.4088 126.925 81.1951 123.78 81.4088 120.514C82.0499 116.82 81.7752 113.248 80.6151 109.798C77.5011 107.081 74.8145 107.539 72.5859 111.202C69.8382 115.568 63.6103 115.598 60.8016 110.988C59.8857 109.462 59.0309 107.905 58.0539 106.409C56.3443 103.814 54.421 103.539 51.887 105.279C46.9718 108.668 42.3619 107.783 38.8816 103.203C34.577 97.5556 28.8985 108.302 24.0444 99.4789C21.602 95.2354 20.9609 90.4728 20.8998 85.6492Z" fill="url(#paint0_linear_3739_713)" fill-opacity="0.15"/>
<path d="M123.692 41.4428C123.631 36.9856 124.333 33.1694 127.325 30.086C134.377 22.9116 139.231 45.3811 131.813 50.6016C129.095 52.525 126.623 51.9144 125.157 48.9225C123.967 46.4496 123.6 43.7936 123.692 41.4428Z" fill="url(#paint1_linear_3739_713)" fill-opacity="0.15"/>
<path d="M3.00968 79.0853C3.00968 62.8132 19.9839 79.2685 15.4961 85.3743C13.7865 87.6946 10.7641 88.2746 7.95542 86.7787C4.50562 84.9775 3.10127 81.9245 3.00968 79.0853Z" fill="url(#paint2_linear_3739_713)" fill-opacity="0.15"/>
<path d="M98.1388 6.21205C97.9251 10.1198 94.9638 11.86 91.6056 9.96715C86.5072 6.60893 86.1714 3.46442 90.5981 0.503083C93.3457 0.442025 95.666 1.51055 97.2535 3.83077C97.7114 4.50241 97.8641 5.38776 98.1388 6.21205Z" fill="url(#paint3_linear_3739_713)" fill-opacity="0.15"/>
<path d="M61.4732 123.139C61.8701 121.582 62.1449 119.964 62.7249 118.499C65.7778 115.476 68.0675 115.965 69.6245 119.964C69.9603 126.711 67.8538 129.489 63.305 128.299C61.9922 126.864 61.7174 125.062 61.4732 123.139Z" fill="url(#paint4_linear_3739_713)" fill-opacity="0.15"/>
<path d="M0.475769 17.0804C0.689474 13.8749 2.4907 12.1652 5.9405 11.921C7.65014 12.5011 8.59655 14.0275 8.38284 15.9814C8.13861 18.2711 6.91744 19.9807 4.9941 21.1103C2.58229 22.5146 0.475769 20.8966 0.475769 17.0804Z" fill="url(#paint5_linear_3739_713)" fill-opacity="0.15"/>
<path d="M25.0823 18.0268C24.9908 20.9881 20.8083 23.8579 18.2438 22.7283C15.4046 19.2175 16.4426 16.653 21.3272 14.9739C23.2506 14.4244 25.1434 16.0119 25.0823 18.0268Z" fill="url(#paint6_linear_3739_713)" fill-opacity="0.15"/>
<path d="M120.181 79.7265C120.517 77.0399 121.952 75.6661 124.516 75.605C127.325 77.1926 127.63 79.5433 125.493 82.6878C122.074 83.7564 120.303 82.7794 120.181 79.7265Z" fill="url(#paint7_linear_3739_713)" fill-opacity="0.15"/>
<path d="M17.389 104.486C18.0301 101.738 19.526 101.097 21.8768 102.593C22.2737 102.898 22.6705 103.234 23.0674 103.539C24.0749 104.333 24.5023 105.402 24.1054 106.623C22.1515 112.759 17.969 106.226 17.389 104.486Z" fill="url(#paint8_linear_3739_713)" fill-opacity="0.15"/>
<path d="M62.3891 136.053C63.3049 131.504 67.8843 132.634 67.3043 136.999C65.2893 140.632 63.6713 140.297 62.3891 136.053Z" fill="url(#paint9_linear_3739_713)" fill-opacity="0.15"/>
<defs>
<linearGradient id="paint0_linear_3739_713" x1="0.475769" y1="70" x2="139.29" y2="70" gradientUnits="userSpaceOnUse">
<stop stop-color="#894DF6"/>
<stop offset="1" stop-color="#F7288E"/>
</linearGradient>
<linearGradient id="paint1_linear_3739_713" x1="0.475769" y1="70" x2="139.29" y2="70" gradientUnits="userSpaceOnUse">
<stop stop-color="#894DF6"/>
<stop offset="1" stop-color="#F7288E"/>
</linearGradient>
<linearGradient id="paint2_linear_3739_713" x1="0.475769" y1="70" x2="139.29" y2="70" gradientUnits="userSpaceOnUse">
<stop stop-color="#894DF6"/>
<stop offset="1" stop-color="#F7288E"/>
</linearGradient>
<linearGradient id="paint3_linear_3739_713" x1="0.475769" y1="70" x2="139.29" y2="70" gradientUnits="userSpaceOnUse">
<stop stop-color="#894DF6"/>
<stop offset="1" stop-color="#F7288E"/>
</linearGradient>
<linearGradient id="paint4_linear_3739_713" x1="0.475769" y1="70" x2="139.29" y2="70" gradientUnits="userSpaceOnUse">
<stop stop-color="#894DF6"/>
<stop offset="1" stop-color="#F7288E"/>
</linearGradient>
<linearGradient id="paint5_linear_3739_713" x1="0.475769" y1="70" x2="139.29" y2="70" gradientUnits="userSpaceOnUse">
<stop stop-color="#894DF6"/>
<stop offset="1" stop-color="#F7288E"/>
</linearGradient>
<linearGradient id="paint6_linear_3739_713" x1="0.475769" y1="70" x2="139.29" y2="70" gradientUnits="userSpaceOnUse">
<stop stop-color="#894DF6"/>
<stop offset="1" stop-color="#F7288E"/>
</linearGradient>
<linearGradient id="paint7_linear_3739_713" x1="0.475769" y1="70" x2="139.29" y2="70" gradientUnits="userSpaceOnUse">
<stop stop-color="#894DF6"/>
<stop offset="1" stop-color="#F7288E"/>
</linearGradient>
<linearGradient id="paint8_linear_3739_713" x1="0.475769" y1="70" x2="139.29" y2="70" gradientUnits="userSpaceOnUse">
<stop stop-color="#894DF6"/>
<stop offset="1" stop-color="#F7288E"/>
</linearGradient>
<linearGradient id="paint9_linear_3739_713" x1="0.475769" y1="70" x2="139.29" y2="70" gradientUnits="userSpaceOnUse">
<stop stop-color="#894DF6"/>
<stop offset="1" stop-color="#F7288E"/>
</linearGradient>
</defs>
</svg>
