<svg width="89" height="52" viewBox="0 0 89 52" fill="none" xmlns="http://www.w3.org/2000/svg">
<g opacity="0.75">
<path d="M40.4154 34.4758C42.0189 34.4028 43.7096 30.5441 43.6951 26.862C43.6805 23.4563 42.2042 19.1983 40.1608 18.9487C39.9535 18.9257 39.7755 18.9487 39.6118 19.0063C38.6737 19.3404 38.1502 20.8954 35.6559 22.2661C35.2814 22.4734 34.9249 22.6424 34.594 22.7844C34.594 22.7844 34.594 22.7806 34.594 22.7767C33.1142 23.3795 32.1107 23.4256 31.3035 23.7021C30.9363 23.1453 30.5472 22.7268 30.2745 22.4273C29.4637 21.5481 28.5946 20.9606 27.8202 20.5613C28.5292 20.1159 29.1401 19.517 29.4637 18.9219C29.6709 18.5417 29.7618 18.1616 29.6819 17.8237C29.391 16.5874 26.8129 15.7888 24.5877 16.3878C24.2096 16.4914 23.8387 16.6335 23.4896 16.8216C22.8715 17.1595 21.9371 17.8583 21.588 18.63C20.7044 18.5149 19.89 18.4803 19.1701 18.4918C18.4429 18.4841 17.7158 18.5149 16.9995 18.5878C17.5449 17.8468 18.0465 17.0175 18.2247 16.2726C18.3265 15.8349 18.3193 15.4279 18.1448 15.0862C17.4358 13.7116 14.3814 14.1416 13.6724 14.2415C12.8688 14.3567 10.9237 14.6293 9.32017 16.1996C9.1311 16.3839 8.95286 16.5836 8.7856 16.7909C7.18939 18.7683 6.5131 21.671 6.97487 23.3143C6.56037 23.6675 6.09868 24.063 5.61509 24.493C3.30986 26.5587 0.604716 29.423 1.03013 32.2297C1.13194 32.9093 1.41179 33.5236 1.81539 34.0765C2.87347 33.8346 4.60783 33.4545 4.61146 33.5812C4.61146 33.6887 3.66983 34.5295 2.89536 35.2053C4.2116 36.2996 6.03312 37.0943 7.77114 37.6549C8.16019 37.7816 8.54939 37.8968 8.9239 38.0005C9.28023 39.3097 9.96017 40.6766 10.9237 41.721C11.0401 41.8477 11.1601 41.9705 11.2873 42.0896C12.9272 43.6177 14.8796 43.8365 15.6867 43.9287C16.3994 44.0093 19.4647 44.3587 20.1373 42.965C20.2682 42.6962 20.2936 42.389 20.2463 42.0627C20.1009 41.0836 19.2756 39.9125 18.4938 38.9949C19.0211 38.9527 19.5664 38.8912 20.1263 38.8106C20.1263 38.8183 20.1192 38.826 20.1192 38.8336C20.6755 38.7722 21.3226 38.6647 22.0244 38.4842C22.4643 39.1178 23.2498 39.6515 23.7879 39.9279C23.9224 39.997 24.0642 40.0584 24.206 40.116C24.8714 40.3771 25.5914 40.4961 26.2932 40.4961L26.373 40.5806L26.3658 40.4961C28.1365 40.4808 29.7509 39.7359 29.9546 38.7607C30.0455 38.3191 29.8528 37.8162 29.4819 37.3324C29.0238 36.7296 28.2929 36.169 27.5075 35.8043C28.8856 34.7868 29.7437 33.704 30.22 33.0091C30.4127 32.7288 30.6926 32.3256 30.9871 31.8188C31.7761 31.9993 32.8052 31.9263 34.4451 32.2488C34.8559 32.3295 35.2994 32.4332 35.7903 32.5714C36.6847 32.8248 37.3757 33.0936 37.9284 33.3431C39.0737 33.8653 39.5609 34.1878 39.8991 34.3452C40.0918 34.4374 40.2335 34.4758 40.4189 34.4643L40.4154 34.4758Z" fill="#312383"/>
<path d="M50.7017 10.5747C51.5234 10.5363 52.3888 8.55898 52.3815 6.67377C52.3743 4.93063 51.618 2.74594 50.5708 2.61924C50.4654 2.60772 50.3744 2.61923 50.2871 2.64995C49.8072 2.82273 49.5382 3.61751 48.2619 4.32014C48.0692 4.42765 47.8874 4.51212 47.7165 4.58507C46.9602 4.89607 46.4439 4.9191 46.0294 5.05733C45.8403 4.7732 45.6439 4.55819 45.5021 4.40461C45.0876 3.95539 44.6403 3.65207 44.244 3.44858C44.6076 3.2182 44.9204 2.91488 45.0877 2.60772C45.1931 2.4119 45.2404 2.21992 45.2004 2.04714C45.0513 1.41362 43.7314 1.00279 42.5897 1.30996C42.3934 1.36371 42.2044 1.43666 42.0262 1.53264C41.7099 1.70542 41.2298 2.0625 41.0517 2.46181C40.5972 2.40038 40.179 2.38502 39.8117 2.38886C39.4372 2.38502 39.0663 2.40038 38.6991 2.43878C38.9791 2.05866 39.2372 1.63248 39.3281 1.25237C39.3827 1.02967 39.3791 0.818493 39.2882 0.645714C38.9246 -0.0607588 37.3575 0.161932 36.9976 0.211846C36.5867 0.269439 35.5866 0.411507 34.7685 1.21397C34.6704 1.30996 34.5795 1.40979 34.4958 1.51729C33.6777 2.53093 33.3324 4.01682 33.5687 4.86152C33.3578 5.04198 33.1179 5.24547 32.8706 5.46816C31.6889 6.52787 30.3036 7.99457 30.5218 9.4344C30.5727 9.78379 30.7181 10.0986 30.9253 10.3828C31.4671 10.2599 32.3579 10.0641 32.3579 10.1293C32.3579 10.1831 31.8743 10.617 31.478 10.9625C32.1543 11.5231 33.0852 11.9301 33.976 12.2181C34.176 12.2833 34.376 12.3409 34.5651 12.3947C34.7469 13.0666 35.0959 13.7654 35.5904 14.2991C35.6522 14.3643 35.7103 14.4258 35.7757 14.4872C36.6156 15.2705 37.6156 15.3818 38.0301 15.4317C38.3937 15.474 39.9645 15.6506 40.3099 14.9364C40.3754 14.7982 40.3899 14.6408 40.3644 14.4757C40.2917 13.9727 39.8664 13.3737 39.4664 12.9053C39.7355 12.8823 40.0154 12.8516 40.3026 12.8093C40.3026 12.8093 40.3027 12.817 40.2991 12.8208C40.5863 12.7901 40.9135 12.7325 41.2771 12.6404C41.5026 12.9629 41.9061 13.2394 42.1824 13.3814C42.2515 13.416 42.3242 13.4467 42.3969 13.4774C42.7387 13.6118 43.1061 13.6732 43.466 13.6732L43.506 13.7155V13.6732C44.4077 13.6655 45.2367 13.2816 45.3421 12.7825C45.3894 12.5559 45.2877 12.2987 45.1022 12.0529C44.8659 11.7458 44.4913 11.454 44.0913 11.2697C44.7967 10.7475 45.2368 10.1946 45.4804 9.83754C45.5786 9.69548 45.7239 9.48815 45.8729 9.22706C46.2765 9.31921 46.8039 9.28465 47.6474 9.44591C47.8583 9.48815 48.0874 9.53806 48.3383 9.61101C48.7964 9.74155 49.149 9.87594 49.4326 10.0065C50.018 10.2752 50.269 10.4403 50.4435 10.521C50.5417 10.5671 50.6144 10.5862 50.7089 10.5824L50.7017 10.5747Z" fill="#312383"/>
<path d="M51.916 39.3405C51.8105 39.3289 51.7234 39.3404 51.6397 39.3673C51.1671 39.5363 50.9015 40.3195 49.6435 41.0145C49.4544 41.1182 49.2763 41.2026 49.1054 41.2756C48.36 41.5789 47.851 41.6019 47.4438 41.744C47.2583 41.4637 47.0619 41.2525 46.9238 41.0989C46.5129 40.6536 46.0729 40.3579 45.6838 40.1544C46.0438 39.9279 46.3529 39.6284 46.5165 39.3251C46.6219 39.1331 46.6657 38.9411 46.6257 38.7722C46.4802 38.1502 45.1784 37.7432 44.0549 38.0465C43.8622 38.0965 43.6767 38.1694 43.5022 38.2654C43.1895 38.4343 42.717 38.7876 42.5424 39.1792C42.0952 39.1216 41.6842 39.1024 41.3206 39.1101C40.9534 39.1062 40.5862 39.1216 40.2262 39.16C40.5026 38.7876 40.7572 38.3652 40.8444 37.9889C40.8953 37.7701 40.8916 37.5628 40.8043 37.39C40.448 36.695 38.9027 36.9139 38.5464 36.9638C38.1391 37.0214 37.1574 37.1596 36.3502 37.9544C36.2557 38.0465 36.1648 38.1464 36.0812 38.2539C35.274 39.2521 34.9358 40.715 35.1685 41.5443C34.9576 41.7248 34.725 41.9245 34.4814 42.1395C33.3179 43.1838 31.9543 44.6275 32.1652 46.0443C32.2161 46.386 32.3579 46.697 32.5615 46.9773C33.096 46.8544 33.9722 46.6624 33.9722 46.7277C33.9722 46.7815 33.4959 47.2076 33.1069 47.5455C33.7723 48.0984 34.6922 48.4977 35.5685 48.7818C35.7648 48.8471 35.9612 48.9047 36.1503 48.9546C36.3284 49.615 36.6738 50.3061 37.161 50.8322C37.2192 50.8974 37.281 50.9589 37.3428 51.0165C38.1718 51.7882 39.1573 51.8995 39.5646 51.9456C39.9245 51.9878 41.4697 52.1606 41.8115 51.458C41.8769 51.3236 41.8915 51.1662 41.866 51.0049C41.7933 50.5096 41.3753 49.9183 40.9826 49.4576C41.248 49.4384 41.5243 49.4077 41.8079 49.3655C41.8079 49.3693 41.8079 49.3731 41.8042 49.377C42.0842 49.3463 42.4114 49.2925 42.7677 49.2004C42.9895 49.519 43.3859 49.7916 43.6586 49.9299C43.7277 49.9644 43.7968 49.9951 43.8695 50.0258C44.204 50.1564 44.5677 50.2178 44.9204 50.2178L44.9603 50.2601V50.2178C45.8512 50.2101 46.6655 49.8339 46.7673 49.3424C46.8146 49.1197 46.7165 48.8663 46.531 48.6206C46.2983 48.3173 45.9312 48.0331 45.5349 47.8488C46.2293 47.3343 46.6657 46.7891 46.9056 46.4397C47.0038 46.2977 47.142 46.0942 47.2911 45.8408C47.691 45.9329 48.2109 45.8945 49.0363 46.0558C49.2435 46.098 49.469 46.1479 49.7163 46.217C50.1671 46.3438 50.5161 46.4781 50.7961 46.6087C51.3742 46.8736 51.6214 47.0349 51.7887 47.1155C51.8869 47.1616 51.956 47.1808 52.0506 47.1769C52.8578 47.1385 53.7122 45.1919 53.7049 43.3336C53.6976 41.6134 52.9524 39.4633 51.9197 39.3405H51.916Z" fill="#312383"/>
<path d="M87.1709 29.0659C87.1055 29.0582 87.051 29.0659 87.0001 29.0851C86.7093 29.1888 86.5455 29.6725 85.771 30.0987C85.6547 30.164 85.5457 30.2139 85.4403 30.26C84.9785 30.4481 84.6693 30.4635 84.4148 30.5479C84.3021 30.3752 84.1785 30.2446 84.0949 30.1525C83.844 29.8799 83.5713 29.6956 83.3313 29.5727C83.5531 29.4345 83.7422 29.2463 83.844 29.0621C83.9095 28.943 83.9349 28.824 83.9131 28.7203C83.8222 28.3364 83.0223 28.0868 82.3278 28.2749C82.2078 28.3057 82.0951 28.3517 81.9861 28.4093C81.7934 28.513 81.5023 28.7318 81.3932 28.9737C81.1169 28.9392 80.8661 28.9277 80.6407 28.9315C80.4152 28.9315 80.1898 28.9392 79.9644 28.9622C80.1353 28.7318 80.2916 28.4746 80.3461 28.2404C80.3788 28.106 80.3753 27.9793 80.3207 27.8718C80.0989 27.4456 79.1499 27.58 78.9281 27.6107C78.6772 27.6453 78.0736 27.7297 77.5754 28.2212C77.5173 28.2788 77.4627 28.3402 77.4082 28.4055C76.9101 29.0198 76.7029 29.9221 76.8447 30.4328C76.7138 30.5441 76.5719 30.667 76.4228 30.8014C75.7066 31.4426 74.863 32.3372 74.9976 33.2087C75.0303 33.4199 75.1175 33.6119 75.2411 33.7847C75.572 33.7079 76.1102 33.5927 76.1102 33.6311C76.1102 33.6657 75.8156 33.9267 75.5756 34.1341C75.9865 34.4758 76.5502 34.7215 77.092 34.8981C77.212 34.9365 77.3319 34.9711 77.4519 35.0056C77.561 35.4126 77.7755 35.8388 78.0736 36.1613C78.11 36.1997 78.1464 36.2381 78.1863 36.2765C78.6954 36.7526 79.3026 36.8217 79.5571 36.8486C79.7789 36.8755 80.7316 36.983 80.9425 36.5491C80.9825 36.4647 80.9897 36.3687 80.9751 36.2688C80.9315 35.9617 80.6734 35.6008 80.4297 35.3166C80.5934 35.3051 80.7642 35.2859 80.9388 35.2591C80.9388 35.2591 80.9388 35.2629 80.9388 35.2667C81.1133 35.2475 81.3134 35.213 81.5315 35.1592C81.6697 35.355 81.9132 35.524 82.0805 35.6084C82.1241 35.6315 82.1677 35.6507 82.2113 35.666C82.4186 35.7467 82.6441 35.7851 82.8587 35.7851L82.884 35.8119V35.7851C83.4331 35.7812 83.9349 35.547 83.9967 35.2437C84.0258 35.1055 83.964 34.948 83.8513 34.7983C83.7095 34.6102 83.4804 34.4374 83.2368 34.3222C83.6659 34.0074 83.9312 33.6695 84.0803 33.4545C84.1385 33.3662 84.2258 33.2394 84.3204 33.0859C84.5676 33.1435 84.8876 33.1204 85.3966 33.2203C85.5239 33.2433 85.662 33.2778 85.8147 33.3201C86.0947 33.3969 86.3092 33.4813 86.4801 33.562C86.8364 33.7232 86.9891 33.8231 87.0946 33.873C87.1528 33.8998 87.2001 33.9152 87.2583 33.9114C87.7564 33.8883 88.2837 32.6904 88.28 31.5424C88.2764 30.4827 87.8145 29.158 87.1782 29.0812L87.1709 29.0659Z" fill="#312383"/>
<path d="M85.0038 6.6277C84.8475 6.60851 84.713 6.6277 84.5857 6.66993C83.8731 6.92334 83.4767 8.10591 81.5787 9.15026C81.2915 9.30768 81.0223 9.43823 80.7715 9.54573C80.7715 9.54573 80.7715 9.54574 80.7715 9.5419C79.6479 10.0026 78.8844 10.0372 78.2699 10.2445C77.9899 9.82218 77.6955 9.50351 77.4882 9.27697C76.8737 8.6089 76.2083 8.15967 75.6192 7.85634C76.1574 7.51847 76.6264 7.06156 76.87 6.6085C77.0264 6.32053 77.0954 6.02874 77.0373 5.77533C76.8155 4.83464 74.8558 4.228 73.1614 4.6849C72.8741 4.76169 72.5905 4.8692 72.3287 5.0151C71.8597 5.27235 71.147 5.8022 70.8816 6.39349C70.2089 6.30518 69.5908 6.2783 69.0418 6.28598C68.4891 6.2783 67.9364 6.30134 67.391 6.35893C67.8055 5.79836 68.1873 5.16484 68.3218 4.59659C68.4018 4.26255 68.3946 3.95539 68.26 3.6943C67.7219 2.64995 65.3984 2.97632 64.8566 3.05311C64.2458 3.13758 62.766 3.34874 61.548 4.54283C61.4062 4.68489 61.268 4.83464 61.1407 4.99206C59.9263 6.49332 59.4135 8.70104 59.7662 9.95272C59.4499 10.2215 59.0972 10.5248 58.7336 10.8512C56.9811 12.4215 54.9268 14.6024 55.2467 16.7333C55.3267 17.2517 55.5377 17.7162 55.8431 18.1386C56.6466 17.9543 57.9665 17.6663 57.9665 17.7623C57.9665 17.843 57.2502 18.4842 56.6612 18.9948C57.6611 19.828 59.0463 20.4308 60.3698 20.857C60.668 20.953 60.9626 21.0413 61.2462 21.1181C61.5152 22.1125 62.0351 23.153 62.7659 23.944C62.8532 24.0399 62.9478 24.1359 63.0423 24.2242C64.2895 25.3838 65.7767 25.5527 66.3875 25.6218C66.9293 25.6833 69.2598 25.9482 69.7725 24.8885C69.8707 24.685 69.8925 24.4508 69.8561 24.2051C69.747 23.4602 69.1181 22.5694 68.5255 21.8745C68.9254 21.8437 69.3435 21.7977 69.7652 21.7324C69.7652 21.7362 69.7616 21.7439 69.7579 21.7516C70.1834 21.7055 70.6708 21.621 71.2053 21.4867C71.5398 21.9666 72.136 22.3736 72.5469 22.5848C72.6487 22.6385 72.7577 22.6846 72.8631 22.7268C73.3685 22.9265 73.9177 23.0148 74.4485 23.0148L74.5103 23.0801L74.5031 23.0148C75.8484 23.0033 77.0773 22.435 77.2336 21.694C77.3027 21.36 77.1537 20.976 76.8737 20.6074C76.5247 20.1505 75.9684 19.7205 75.3721 19.4479C76.4193 18.6761 77.0737 17.8506 77.4337 17.3246C77.5791 17.1134 77.7937 16.8024 78.0155 16.4223C78.6154 16.5567 79.4008 16.5068 80.6443 16.7487C80.957 16.8101 81.2951 16.8869 81.6696 16.9944C82.3496 17.1864 82.8732 17.3899 83.295 17.5819C84.164 17.9812 84.5384 18.2231 84.7929 18.3459C84.9383 18.415 85.0475 18.4458 85.1894 18.4381C86.4074 18.3805 87.6945 15.4509 87.6836 12.6519C87.6727 10.0641 86.5491 6.82352 84.9965 6.63538L85.0038 6.6277Z" fill="#312383"/>
</g>
</svg>
