<svg width="88" height="53" viewBox="0 0 88 53" fill="none" xmlns="http://www.w3.org/2000/svg">
<g opacity="0.75">
<path d="M40.1448 34.9587C41.7483 34.8858 43.439 31.027 43.4245 27.3449C43.41 23.9392 41.9336 19.6812 39.8902 19.4316C39.683 19.4086 39.5049 19.4316 39.3413 19.4892C38.4032 19.8233 37.8794 21.3783 35.3851 22.749C35.0106 22.9563 34.6543 23.1253 34.3234 23.2673C34.3234 23.2673 34.3234 23.2635 34.3234 23.2597C32.8436 23.8625 31.8401 23.9085 31.0329 24.185C30.6657 23.6282 30.2766 23.2098 30.0039 22.9103C29.1931 22.031 28.3242 21.4436 27.546 21.0443C28.2551 20.5989 28.8659 19.9999 29.1895 19.4048C29.3968 19.0247 29.4875 18.6446 29.4076 18.3067C29.1167 17.0704 26.5388 16.2717 24.3136 16.8707C23.9354 16.9744 23.5646 17.1164 23.2155 17.3046C22.5974 17.6425 21.6629 18.3412 21.3139 19.113C20.4303 18.9978 19.6159 18.9632 18.896 18.9748C18.1687 18.9671 17.4416 18.9978 16.7289 19.0707C17.2743 18.3297 17.7759 17.5004 17.9541 16.7555C18.0559 16.3178 18.0487 15.9108 17.8742 15.5691C17.1652 14.1945 14.1108 14.6245 13.4018 14.7244C12.5982 14.8396 10.6531 15.1122 9.0496 16.6826C8.86052 16.8669 8.68228 17.0665 8.51502 17.2738C6.91881 19.2512 6.24252 22.1539 6.70429 23.7972C6.28979 24.1504 5.82811 24.5459 5.34452 24.9759C3.03928 27.0416 0.333961 29.9059 0.759375 32.7126C0.861183 33.3922 1.14121 34.0065 1.54481 34.5594C2.60289 34.3175 4.33725 33.9374 4.34088 34.0641C4.34088 34.1716 3.39926 35.0125 2.62479 35.6882C3.94102 36.7825 5.76255 37.5773 7.50056 38.1378C7.88961 38.2645 8.27864 38.3797 8.65315 38.4834C9.00948 39.7926 9.68941 41.1595 10.653 42.2039C10.7693 42.3306 10.8893 42.4534 11.0166 42.5725C12.6564 44.1006 14.609 44.3195 15.4162 44.4116C16.1288 44.4922 19.1941 44.8416 19.8667 43.4479C19.9976 43.1791 20.023 42.872 19.9757 42.5456C19.8303 41.5627 19.005 40.3955 18.2233 39.4778C18.7505 39.4356 19.2958 39.3742 19.8557 39.2897C19.8557 39.2974 19.8485 39.305 19.8485 39.3127C20.4048 39.2513 21.0521 39.1438 21.7538 38.9633C22.1938 39.5968 22.9792 40.1305 23.5173 40.407C23.6518 40.4761 23.7936 40.5375 23.9354 40.5951C24.6008 40.8562 25.3206 40.9752 26.0224 40.9752L26.1025 41.0597L26.0952 40.9752C27.8659 40.9599 29.4804 40.215 29.684 39.2398C29.7749 38.7982 29.5821 38.2952 29.2112 37.8114C28.7531 37.2086 28.0223 36.6481 27.2369 36.2833C28.615 35.2658 29.4731 34.1831 29.9494 33.4881C30.1421 33.2079 30.422 32.8047 30.7166 32.2979C31.5056 32.4783 32.5347 32.4054 34.1745 32.7279C34.5854 32.8085 35.0289 32.9123 35.5197 33.0505C36.4142 33.3039 37.105 33.5727 37.6576 33.8222C38.803 34.3444 39.2904 34.6669 39.6285 34.8243C39.8212 34.9165 39.9629 34.9549 40.1484 34.9433L40.1448 34.9587Z" fill="#312383"/>
<path d="M50.4311 11.0538C51.2528 11.0154 52.1181 9.03803 52.1108 7.15282C52.1035 5.40967 51.3472 3.22501 50.3001 3.0983C50.1946 3.08678 50.1038 3.09829 50.0165 3.129C49.5366 3.30178 49.2676 4.09655 47.9913 4.79919C47.7986 4.90669 47.6168 4.99119 47.4459 5.06414C46.6897 5.37514 46.1733 5.39817 45.7588 5.54024C45.5697 5.25611 45.3733 5.04107 45.2315 4.88749C44.817 4.43826 44.3698 4.13495 43.9734 3.93145C44.337 3.70108 44.6499 3.39778 44.8171 3.09062C44.9226 2.8948 44.9697 2.70284 44.9297 2.53006C44.7806 1.89654 43.4608 1.48569 42.3191 1.79285C42.1228 1.84661 41.9336 1.91954 41.7554 2.01553C41.4391 2.18831 40.9593 2.5454 40.7811 2.94471C40.3266 2.88328 39.9084 2.8679 39.5412 2.87174C39.1667 2.8679 38.7958 2.88326 38.4285 2.92165C38.7085 2.54154 38.9666 2.11537 39.0575 1.73525C39.1121 1.51256 39.1085 1.3014 39.0176 1.12862C38.654 0.422151 37.0868 0.644842 36.7232 0.694756C36.3124 0.752349 35.3125 0.894406 34.4944 1.69687C34.3962 1.79285 34.3053 1.8927 34.2217 2.0002C33.4036 3.01384 33.0581 4.49972 33.2944 5.34442C33.0835 5.52487 32.8436 5.72835 32.5963 5.95104C31.4146 7.01075 30.0293 8.47748 30.2475 9.91731C30.2984 10.2667 30.4438 10.5815 30.651 10.8657C31.1928 10.7428 32.0838 10.547 32.0838 10.6122C32.0838 10.666 31.6 11.0999 31.2037 11.4454C31.88 12.006 32.8109 12.413 33.7017 12.701C33.9017 12.7662 34.1016 12.8238 34.2943 12.8776C34.4761 13.5495 34.8253 14.2483 35.3198 14.782C35.378 14.8472 35.4397 14.9087 35.5051 14.9701C36.3451 15.7534 37.345 15.8647 37.7595 15.9146C38.1231 15.9569 39.6939 16.1335 40.0393 15.4193C40.1048 15.2811 40.1193 15.1237 40.0938 14.9586C40.0211 14.4556 39.5956 13.8566 39.1957 13.3882C39.4647 13.3652 39.7448 13.3345 40.0321 13.2922C40.0321 13.2922 40.032 13.2999 40.0283 13.3037C40.3156 13.273 40.643 13.2154 41.0066 13.1233C41.232 13.4458 41.6319 13.7222 41.9118 13.8643C41.9809 13.8989 42.0536 13.9296 42.1263 13.9603C42.4681 14.0947 42.8353 14.1561 43.1953 14.1561L43.2354 14.1983V14.1561C44.1371 14.1484 44.9661 13.7645 45.0715 13.2654C45.1188 13.0388 45.0169 12.7816 44.8315 12.5358C44.5951 12.2287 44.2207 11.9369 43.8208 11.7526C44.5261 11.2304 44.966 10.6775 45.2097 10.3204C45.3078 10.1784 45.4533 9.97104 45.6024 9.70996C46.006 9.8021 46.5331 9.76753 47.3767 9.92879C47.5876 9.97102 47.8168 10.021 48.0677 10.0939C48.5258 10.2245 48.8784 10.3588 49.162 10.4894C49.7474 10.7582 49.9984 10.9232 50.173 11.0039C50.2711 11.0499 50.3438 11.0692 50.4384 11.0653L50.4311 11.0538Z" fill="#312383"/>
<path d="M51.6454 39.8195C51.54 39.808 51.4528 39.8195 51.3692 39.8464C50.8965 40.0153 50.631 40.7986 49.3729 41.4936C49.1838 41.5972 49.0057 41.6817 48.8348 41.7546C48.0894 42.058 47.5804 42.081 47.1732 42.223C46.9878 41.9428 46.7914 41.7316 46.6532 41.578C46.2423 41.1326 45.8023 40.837 45.4132 40.6335C45.7732 40.407 46.0823 40.1075 46.2459 39.8042C46.3514 39.6122 46.3951 39.4202 46.3551 39.2513C46.2097 38.6293 44.9078 38.2223 43.7843 38.5256C43.5916 38.5755 43.4062 38.6485 43.2316 38.7445C42.9189 38.9134 42.4464 39.2666 42.2719 39.6583C41.8246 39.6007 41.4136 39.5815 41.05 39.5891C40.6828 39.5853 40.3156 39.6007 39.9557 39.639C40.232 39.2666 40.4864 38.8443 40.5737 38.468C40.6246 38.2492 40.621 38.0418 40.5337 37.869C40.1774 37.1741 38.6321 37.3929 38.2758 37.4429C37.8686 37.5004 36.8868 37.6386 36.0796 38.4334C35.9851 38.5256 35.8943 38.6254 35.8106 38.7329C35.0035 39.7312 34.6652 41.1941 34.8979 42.0234C34.687 42.2039 34.4543 42.4035 34.2107 42.6185C33.0471 43.6629 31.6838 45.1066 31.8947 46.5233C31.9456 46.8651 32.0873 47.176 32.2909 47.4563C32.8254 47.3335 33.7017 47.1415 33.7017 47.2068C33.7017 47.2605 33.2254 47.6867 32.8363 48.0246C33.5017 48.5775 34.4216 48.9768 35.2979 49.2609C35.4943 49.3262 35.6906 49.3838 35.8797 49.4337C36.0579 50.0941 36.4032 50.7852 36.8904 51.3112C36.9486 51.3765 37.0104 51.4379 37.0722 51.4955C37.9013 52.2673 38.8866 52.3786 39.2938 52.4247C39.6538 52.4669 41.1991 52.6397 41.5409 51.9371C41.6064 51.8027 41.6209 51.6453 41.5954 51.484C41.5227 50.9887 41.1047 50.3974 40.712 49.9367C40.9774 49.9175 41.2538 49.8868 41.5374 49.8445C41.5374 49.8484 41.5373 49.8522 41.5336 49.856C41.8136 49.8253 42.1408 49.7716 42.4972 49.6794C42.7189 49.9981 43.1153 50.2707 43.388 50.4089C43.4571 50.4435 43.5262 50.4742 43.599 50.5049C43.9335 50.6355 44.297 50.6969 44.6496 50.6969L44.6898 50.7391V50.6969C45.5806 50.6892 46.395 50.3129 46.4968 49.8215C46.544 49.5988 46.4459 49.3454 46.2605 49.0996C46.0278 48.7963 45.6606 48.5122 45.2643 48.3279C45.9588 47.8134 46.3951 47.2682 46.6351 46.9188C46.7332 46.7768 46.8713 46.5732 47.0203 46.3198C47.4203 46.412 47.9404 46.3736 48.7657 46.5349C48.973 46.5771 49.1985 46.627 49.4457 46.6961C49.8966 46.8228 50.2455 46.9572 50.5255 47.0877C51.1036 47.3527 51.3509 47.514 51.5181 47.5946C51.6163 47.6407 51.6855 47.6598 51.78 47.656C52.5872 47.6176 53.4416 45.6709 53.4343 43.8126C53.427 42.0925 52.6816 39.9424 51.649 39.8195H51.6454Z" fill="#312383"/>
<path d="M86.9003 29.545C86.8349 29.5373 86.7805 29.545 86.7296 29.5641C86.4387 29.6678 86.2749 30.1516 85.5004 30.5778C85.3841 30.6431 85.2751 30.693 85.1697 30.7391C84.7079 30.9272 84.3987 30.9426 84.1442 31.027C84.0315 30.8543 83.9079 30.7237 83.8243 30.6315C83.5734 30.3589 83.3007 30.1746 83.0607 30.0518C83.2825 29.9136 83.4716 29.7254 83.5734 29.5411C83.6389 29.4221 83.6643 29.3031 83.6425 29.1994C83.5516 28.8155 82.7517 28.5659 82.0572 28.754C81.9372 28.7847 81.8245 28.8308 81.7155 28.8884C81.5228 28.9921 81.2318 29.2109 81.1227 29.4528C80.8463 29.4183 80.5955 29.4067 80.3701 29.4106C80.1446 29.4106 79.9193 29.4183 79.6938 29.4413C79.8647 29.2109 80.021 28.9537 80.0755 28.7195C80.1083 28.5851 80.1047 28.4584 80.0501 28.3509C79.8283 27.9247 78.8793 28.0591 78.6575 28.0898C78.4066 28.1243 77.803 28.2088 77.3049 28.7003C77.2467 28.7578 77.1921 28.8193 77.1376 28.8845C76.6395 29.4989 76.4323 30.4012 76.5741 30.9118C76.4432 31.0232 76.3013 31.146 76.1523 31.2804C75.436 31.9216 74.5924 32.8162 74.727 33.6878C74.7597 33.899 74.8469 34.0909 74.9706 34.2637C75.3014 34.1869 75.8396 34.0718 75.8396 34.1102C75.8396 34.1447 75.545 34.4058 75.305 34.6131C75.7159 34.9549 76.2796 35.2006 76.8214 35.3772C76.9414 35.4156 77.0613 35.454 77.1813 35.4847C77.2904 35.8917 77.5049 36.3179 77.803 36.6404C77.8394 36.6788 77.8758 36.7172 77.9158 36.7556C78.4248 37.2317 79.032 37.3008 79.2866 37.3277C79.5083 37.3545 80.461 37.4621 80.6719 37.0282C80.7119 36.9437 80.7191 36.8478 80.7046 36.7479C80.6609 36.4408 80.4028 36.0798 80.1592 35.7957C80.3228 35.7842 80.4936 35.765 80.6682 35.7381C80.6682 35.7381 80.6682 35.7419 80.6682 35.7458C80.8427 35.7266 81.0428 35.6921 81.261 35.6383C81.3991 35.8341 81.6427 36.003 81.8099 36.0875C81.8536 36.1105 81.8971 36.1297 81.9408 36.1451C82.148 36.2257 82.3736 36.2641 82.5881 36.2641L82.6135 36.291V36.2641C83.1625 36.2603 83.6643 36.0261 83.7261 35.7228C83.7552 35.5845 83.6934 35.4271 83.5807 35.2774C83.4389 35.0892 83.2099 34.9165 82.9662 34.8013C83.3953 34.4864 83.6607 34.1485 83.8097 33.9335C83.8679 33.8452 83.9552 33.7185 84.0498 33.565C84.297 33.6225 84.617 33.5995 85.126 33.6993C85.2533 33.7224 85.3914 33.7569 85.5441 33.7992C85.8241 33.8759 86.0386 33.9604 86.2095 34.041C86.5659 34.2023 86.7186 34.3021 86.824 34.352C86.8858 34.3789 86.9295 34.3943 86.9877 34.3905C87.4858 34.3674 88.0129 33.1695 88.0093 32.0215C88.0056 30.9617 87.5439 29.6371 86.9076 29.5603L86.9003 29.545Z" fill="#312383"/>
<path d="M84.7333 7.10677C84.5769 7.08757 84.4424 7.10676 84.3151 7.149C83.6025 7.40241 83.2062 8.58501 81.3082 9.62936C81.0209 9.78678 80.7518 9.91729 80.5009 10.0248C80.5009 10.0248 80.5009 10.0248 80.5009 10.021C79.3773 10.4817 78.6138 10.5163 77.9993 10.7236C77.7194 10.3013 77.4249 9.98258 77.2176 9.75605C76.6031 9.08797 75.9377 8.63877 75.3487 8.33545C75.8868 7.99373 76.3558 7.54066 76.5994 7.0876C76.7558 6.79963 76.8249 6.50781 76.7667 6.25441C76.5449 5.31372 74.5852 4.70709 72.8908 5.16399C72.6036 5.24078 72.3199 5.34828 72.0582 5.49419C71.5891 5.75143 70.8764 6.28128 70.611 6.87256C69.9384 6.78425 69.3202 6.75737 68.7712 6.76505C68.2185 6.75737 67.6658 6.78043 67.1204 6.83802C67.5349 6.27745 67.9167 5.64389 68.0513 5.07564C68.1312 4.7416 68.124 4.43445 67.9895 4.17336C67.4513 3.12901 65.1278 3.4554 64.586 3.53219C63.9752 3.61666 62.4955 3.82784 61.2774 5.02193C61.1356 5.16399 60.9974 5.31371 60.8701 5.47113C59.6557 6.97238 59.1429 9.18013 59.4956 10.4318C59.1793 10.7006 58.8266 11.0039 58.463 11.3302C56.7105 12.9006 54.6562 15.0815 54.9762 17.2124C55.0562 17.7308 55.2669 18.1953 55.5723 18.6177C56.3759 18.4334 57.6959 18.1454 57.6959 18.2414C57.6959 18.322 56.9795 18.9632 56.3904 19.4739C57.3903 20.307 58.7757 20.9099 60.0992 21.3361C60.3974 21.4321 60.692 21.5203 60.9756 21.5971C61.2447 22.5916 61.7645 23.6321 62.4953 24.423C62.5826 24.519 62.6772 24.615 62.7718 24.7034C64.0189 25.8629 65.5059 26.0318 66.1168 26.1009C66.6586 26.1623 68.9893 26.4273 69.5019 25.3676C69.6001 25.1641 69.6219 24.9299 69.5856 24.6841C69.4765 23.9393 68.8476 23.0485 68.2549 22.3535C68.6549 22.3228 69.0729 22.2767 69.4947 22.2115C69.4947 22.2153 69.491 22.223 69.4874 22.2307C69.9128 22.1846 70.4 22.1001 70.9345 21.9658C71.269 22.4457 71.8655 22.8527 72.2763 23.0639C72.3782 23.1176 72.4871 23.1637 72.5925 23.2059C73.098 23.4056 73.6471 23.4939 74.178 23.4939L74.2398 23.5591L74.2325 23.4939C75.5778 23.4824 76.8067 22.9141 76.963 22.1731C77.0321 21.839 76.8831 21.4551 76.6032 21.0865C76.2541 20.6296 75.6977 20.1996 75.1014 19.927C76.1485 19.1552 76.8032 18.3297 77.1631 17.8037C77.3086 17.5925 77.523 17.2815 77.7448 16.9014C78.3447 17.0358 79.1302 16.9859 80.3773 17.2278C80.69 17.2892 81.0281 17.366 81.4026 17.4735C82.0825 17.6655 82.6062 17.869 83.028 18.0609C83.897 18.4603 84.2715 18.7021 84.5261 18.825C84.6715 18.8941 84.7805 18.9248 84.9223 18.9172C86.1404 18.8596 87.4275 15.93 87.4166 13.131C87.4057 10.5432 86.2823 7.30259 84.7297 7.11446L84.7333 7.10677Z" fill="#312383"/>
</g>
</svg>
