<svg width="217" height="63" viewBox="0 0 217 63" fill="none" xmlns="http://www.w3.org/2000/svg">
<path d="M211.859 29.4368C211.757 29.4022 211.651 29.3677 211.542 29.3331C210.324 28.9453 208.743 28.523 206.816 28.2005C206.826 28.1736 206.826 28.139 206.801 28.1121C206.43 27.709 205.579 26.9065 204.209 26.5571C203.405 26.3498 202.696 26.369 202.194 26.4304C202.161 26.4343 202.139 26.4573 202.132 26.4842C202.121 26.5226 202.136 26.5648 202.18 26.5802C202.583 26.7107 203.169 26.9718 203.696 27.4978C203.838 27.6399 203.958 27.7819 204.059 27.924C203.361 27.924 202.663 27.9739 201.969 28.0776C201.391 28.1659 200.794 28.2772 200.191 28.4078C200.191 28.3848 200.191 28.3617 200.173 28.3464C199.802 27.9432 198.951 27.1407 197.58 26.7913C196.777 26.584 196.068 26.6032 195.566 26.6647C195.533 26.6685 195.511 26.6915 195.504 26.7184C195.493 26.7568 195.508 26.799 195.551 26.8144C195.955 26.9449 196.54 27.206 197.067 27.732C197.496 28.1621 197.733 28.619 197.864 28.9607C196.369 29.3485 194.94 29.7708 193.799 30.101C193.533 29.8092 193.042 29.3753 192.315 29.1719C191.893 29.0528 191.515 29.0452 191.221 29.0682C191.195 29.0682 191.173 29.0835 191.162 29.1027C191.133 29.145 191.141 29.2141 191.195 29.2371C191.432 29.337 191.726 29.5097 191.999 29.8131C192.206 30.0434 192.337 30.2815 192.424 30.485C192.17 30.5541 191.951 30.6078 191.773 30.6424C190.493 30.9035 189.501 30.9918 189.072 31.1262C188.552 30.389 187.628 29.2832 186.177 28.3848C184.832 27.5516 183.559 27.2252 182.694 27.0908C182.661 27.087 182.636 27.1062 182.629 27.1331C182.618 27.1599 182.629 27.1983 182.661 27.2137C183.301 27.5324 184.247 28.139 185.01 29.241C185.014 29.2486 185.021 29.2563 185.025 29.264C185.894 30.5272 185.93 32.2281 185.108 33.5259C185.09 33.5528 185.072 33.5835 185.054 33.6103C184.301 34.7545 183.309 35.3074 182.709 35.5647C182.665 35.5839 182.661 35.6376 182.687 35.6683C182.698 35.6799 182.712 35.6914 182.734 35.6875C183.734 35.6338 185.763 35.3343 187.505 33.7063C188.297 32.9653 188.803 32.159 189.119 31.5255C189.555 31.7059 190.475 31.9094 191.708 32.2358C191.93 32.2934 192.144 32.351 192.351 32.4086C192.271 32.5621 192.162 32.7234 192.021 32.8808C191.752 33.1803 191.453 33.3569 191.217 33.4568C191.159 33.4798 191.152 33.5489 191.181 33.5911C191.195 33.6103 191.213 33.6219 191.239 33.6257C191.533 33.6526 191.911 33.6411 192.333 33.522C192.926 33.3531 193.362 33.0344 193.646 32.7657C195.329 33.2341 196.635 33.6257 197.795 33.9367C197.653 34.2477 197.431 34.6125 197.085 34.9657C196.562 35.4956 195.973 35.7567 195.569 35.8834C195.526 35.8987 195.511 35.9409 195.522 35.9793C195.529 36.0062 195.551 36.0292 195.584 36.0331C196.086 36.0945 196.795 36.1137 197.598 35.9064C198.845 35.5877 199.663 34.8928 200.082 34.4666C201.376 34.7085 202.7 34.8352 204.47 34.8467C206.346 34.8582 208.917 34.8505 211.877 33.7678C211.877 33.7601 211.87 33.7524 211.87 33.7447C211.87 33.7447 211.877 33.7601 211.877 33.7678C212.259 33.6257 212.651 33.4683 213.044 33.2917C214.328 32.7119 215.331 32.0707 216.015 31.5869C216.047 31.5562 216.076 31.5293 216.095 31.5024C216.095 31.5024 216.113 31.4717 216.124 31.4372C216.142 31.3757 214.989 30.4543 211.855 29.4253L211.859 29.4368ZM211.135 31.034C209.895 30.9188 208.619 30.8229 207.314 30.7461C208.623 30.8229 209.899 30.9188 211.135 31.034ZM201.161 30.5656C201.46 30.5656 201.758 30.5656 202.056 30.5694C203.361 30.581 204.641 30.6194 205.892 30.6731C204.641 30.6194 203.365 30.581 202.056 30.5694C201.754 30.5694 201.456 30.5656 201.161 30.5656Z" fill="#312383"/>
<path d="M90.3466 23.0248C90.263 22.9979 90.1794 22.971 90.0957 22.9442C89.1285 22.637 87.8741 22.303 86.347 22.0457C86.3579 22.0227 86.3543 21.9958 86.3361 21.9766C86.0416 21.6579 85.3653 21.0206 84.2818 20.7441C83.6455 20.579 83.0819 20.5944 82.6856 20.6443C82.6601 20.6443 82.6419 20.6673 82.6346 20.6865C82.6273 20.7172 82.6384 20.7518 82.6747 20.7633C82.9947 20.867 83.46 21.0743 83.8745 21.4928C83.9873 21.6042 84.0818 21.7194 84.1618 21.8307C83.6091 21.8307 83.0528 21.8691 82.5038 21.9536C82.0456 22.0227 81.573 22.1148 81.093 22.2147C81.093 22.1955 81.093 22.1801 81.0785 22.1647C80.784 21.8461 80.1113 21.2087 79.0242 20.9323C78.3879 20.7672 77.8242 20.7825 77.4279 20.8324C77.4025 20.8324 77.3842 20.8555 77.3769 20.8747C77.3697 20.9054 77.3805 20.9399 77.4169 20.9515C77.7369 21.0551 78.2024 21.2624 78.6169 21.6809C78.955 22.0227 79.1441 22.3836 79.2459 22.6562C78.0606 22.9634 76.9297 23.2974 76.0207 23.5585C75.8098 23.3281 75.4208 22.9864 74.8463 22.8213C74.5118 22.7253 74.2137 22.7215 73.981 22.7407C73.9591 22.7407 73.9446 22.7522 73.9337 22.7675C73.9083 22.8021 73.9155 22.8559 73.9591 22.8751C74.1446 22.9557 74.3809 23.0901 74.5954 23.332C74.759 23.5124 74.8646 23.7044 74.9336 23.8656C74.73 23.9194 74.559 23.9616 74.4172 23.9885C73.4027 24.1958 72.6138 24.265 72.2757 24.3725C71.8648 23.7889 71.1303 22.9135 69.9813 22.1993C68.9124 21.5389 67.9051 21.2817 67.2179 21.1703C67.1925 21.1665 67.1743 21.1818 67.167 21.2049C67.1597 21.2279 67.1671 21.2548 67.1926 21.2701C67.7016 21.5236 68.4468 22.0035 69.0541 22.8789C69.0577 22.8866 69.0614 22.8904 69.0651 22.8981C69.7523 23.8964 69.7814 25.2479 69.1306 26.2769C69.116 26.2999 69.1014 26.3229 69.0869 26.3421C68.4906 27.2483 67.7016 27.6898 67.2289 27.8895C67.1926 27.9048 67.1925 27.9471 67.2107 27.9701C67.2179 27.9816 67.2325 27.9855 67.2471 27.9855C68.0397 27.9432 69.6504 27.7052 71.0285 26.4151C71.6575 25.8276 72.0575 25.1903 72.3084 24.6835C72.6538 24.8255 73.3847 24.9868 74.3591 25.2479C74.5336 25.294 74.7044 25.34 74.8717 25.3861C74.8062 25.509 74.7227 25.6357 74.61 25.7585C74.3955 25.9966 74.1591 26.1348 73.9737 26.2154C73.9301 26.2346 73.9228 26.2884 73.9446 26.3229C73.9555 26.3383 73.97 26.346 73.9918 26.3498C74.2245 26.369 74.5264 26.3652 74.8573 26.2692C75.3263 26.1348 75.6717 25.8814 75.8971 25.6702C77.2316 26.0427 78.2678 26.3498 79.1877 26.5994C79.075 26.8451 78.9005 27.1369 78.6242 27.4134C78.206 27.8319 77.7441 28.0392 77.4242 28.1429C77.3914 28.1544 77.377 28.189 77.3842 28.2197C77.3915 28.2427 77.406 28.2619 77.4314 28.2619C77.8278 28.3118 78.3914 28.3233 79.0277 28.1621C80.0167 27.9087 80.6676 27.3596 80.9949 27.0217C82.0202 27.2137 83.071 27.3135 84.4744 27.3251C85.9652 27.3366 88.0014 27.3289 90.3466 26.4727C90.3466 26.4689 90.3429 26.4612 90.3393 26.4573C90.3393 26.4573 90.3429 26.4689 90.3466 26.4727C90.652 26.3613 90.9612 26.2346 91.2739 26.0926C92.292 25.6318 93.0882 25.125 93.63 24.7411C93.6555 24.718 93.6772 24.695 93.6918 24.6758C93.6918 24.6758 93.7063 24.6528 93.7136 24.6259C93.7282 24.576 92.8155 23.8465 90.3285 23.0325L90.3466 23.0248ZM89.7758 24.288C88.7941 24.1959 87.7833 24.1191 86.7434 24.0615C87.7797 24.1229 88.7904 24.1997 89.7758 24.288ZM81.8675 23.9156C82.1038 23.9156 82.3402 23.9156 82.5766 23.9194C83.6128 23.9309 84.6272 23.9578 85.6162 24C84.6236 23.954 83.6128 23.9271 82.5766 23.9194C82.3402 23.9194 82.1002 23.9194 81.8675 23.9156Z" fill="#312383"/>
<path d="M121.449 42.495C121.318 42.4528 121.184 42.4067 121.046 42.3645C119.489 41.8692 117.464 41.3278 115.006 40.917C115.021 40.8824 115.017 40.8363 114.988 40.8056C114.515 40.2911 113.425 39.266 111.676 38.8168C110.65 38.5518 109.741 38.5749 109.101 38.6555C109.058 38.6593 109.032 38.6901 109.021 38.7246C109.01 38.7707 109.029 38.8283 109.083 38.8475C109.599 39.0126 110.349 39.3466 111.021 40.0224C111.199 40.2028 111.356 40.3871 111.487 40.5676C110.592 40.5676 109.701 40.629 108.814 40.7672C108.076 40.8824 107.312 41.0245 106.541 41.1896C106.541 41.1627 106.538 41.132 106.516 41.109C106.043 40.5945 104.953 39.5693 103.204 39.1201C102.178 38.8552 101.269 38.8782 100.629 38.9588C100.586 38.9627 100.56 38.9934 100.549 39.0279C100.538 39.074 100.557 39.1316 100.611 39.1508C101.127 39.3159 101.876 39.6499 102.549 40.3257C103.095 40.8747 103.396 41.4584 103.564 41.8961C101.651 42.3914 99.8294 42.9289 98.3677 43.3512C98.026 42.9788 97.4006 42.4259 96.4734 42.1648C95.9353 42.0113 95.4517 41.9997 95.0772 42.0343C95.0445 42.0343 95.0191 42.0535 95.0009 42.0765C94.9609 42.1303 94.9718 42.2186 95.0445 42.2493C95.3463 42.376 95.7244 42.5987 96.0698 42.9827C96.3316 43.2745 96.5025 43.5816 96.6152 43.8427C96.2916 43.9272 96.008 43.9963 95.7826 44.0424C94.1464 44.3764 92.8773 44.4878 92.3319 44.6644C91.6702 43.7237 90.4885 42.3107 88.6341 41.1627C86.9143 40.0992 85.2891 39.6807 84.1837 39.5079C84.1401 39.5002 84.111 39.5271 84.1001 39.5616C84.0892 39.6 84.1001 39.6423 84.1401 39.6653C84.9582 40.0723 86.1652 40.8479 87.1433 42.257C87.1506 42.2647 87.158 42.2762 87.1616 42.2839C88.2706 43.8965 88.3178 46.0735 87.2706 47.7283C87.2488 47.7629 87.2234 47.8013 87.2015 47.8358C86.238 49.2948 84.9691 50.0052 84.2056 50.3315C84.1474 50.3546 84.1437 50.4275 84.1765 50.4659C84.191 50.4812 84.2128 50.4928 84.2382 50.4928C85.5145 50.4237 88.1105 50.0397 90.3321 47.9587C91.3466 47.0103 91.9902 45.9813 92.3974 45.1712C92.9537 45.4016 94.1281 45.6626 95.7025 46.0773C95.9861 46.1503 96.2588 46.2271 96.5279 46.2962C96.4225 46.492 96.288 46.6993 96.1062 46.899C95.7608 47.2829 95.3789 47.5056 95.0808 47.6323C95.008 47.663 94.9973 47.7513 95.0373 47.8051C95.0555 47.8281 95.0809 47.8435 95.1136 47.8473C95.4881 47.8819 95.9717 47.8704 96.5098 47.7168C97.2661 47.5018 97.8223 47.0948 98.1859 46.7492C100.338 47.3482 102.004 47.8473 103.491 48.2466C103.313 48.6421 103.029 49.1105 102.582 49.5598C101.909 50.2355 101.16 50.5696 100.644 50.7347C100.589 50.7539 100.568 50.8076 100.582 50.8575C100.593 50.8921 100.618 50.9228 100.662 50.9266C101.302 51.0034 102.207 51.0264 103.236 50.7654C104.833 50.3545 105.876 49.4715 106.407 48.9262C108.061 49.2334 109.756 49.3985 112.017 49.4139C114.417 49.4292 117.701 49.4215 121.482 48.0393C121.478 48.0316 121.475 48.0201 121.471 48.0124C121.471 48.0124 121.478 48.0316 121.482 48.0393C121.973 47.8588 122.471 47.6592 122.976 47.4288C124.62 46.6878 125.9 45.87 126.772 45.2518C126.816 45.2134 126.852 45.175 126.874 45.1443C126.874 45.1443 126.896 45.1059 126.91 45.0637C126.936 44.9869 125.46 43.8081 121.456 42.495H121.449ZM120.526 44.5338C118.94 44.3879 117.311 44.265 115.639 44.1652C117.311 44.2612 118.94 44.3841 120.526 44.5338ZM107.778 43.9348C108.156 43.9348 108.538 43.9349 108.923 43.9425C110.592 43.9579 112.228 44.004 113.825 44.0769C112.228 44.004 110.592 43.9617 108.923 43.9425C108.541 43.9425 108.159 43.9387 107.778 43.9348Z" fill="#312383"/>
<path d="M143.029 55.4189C142.927 55.3843 142.822 55.3498 142.713 55.3152C141.494 54.9274 139.913 54.5051 137.986 54.1825C137.997 54.1557 137.997 54.1211 137.971 54.0942C137.6 53.6911 136.75 52.8886 135.379 52.5392C134.575 52.3319 133.866 52.3511 133.364 52.4125C133.332 52.4164 133.31 52.4394 133.303 52.4663C133.292 52.5047 133.31 52.5469 133.35 52.5623C133.753 52.6928 134.339 52.9539 134.866 53.4799C135.008 53.622 135.128 53.764 135.23 53.9061C134.531 53.9061 133.833 53.956 133.139 54.0597C132.561 54.148 131.965 54.2593 131.361 54.3899C131.361 54.3668 131.361 54.3438 131.343 54.3284C130.972 53.9253 130.121 53.1228 128.75 52.7734C127.947 52.5661 127.238 52.5853 126.736 52.6467C126.703 52.6506 126.681 52.6736 126.674 52.7005C126.663 52.7389 126.678 52.7811 126.725 52.7965C127.129 52.927 127.714 53.1881 128.241 53.7141C128.67 54.1442 128.907 54.601 129.038 54.9428C127.543 55.3306 126.114 55.7529 124.972 56.0831C124.707 55.7913 124.216 55.3574 123.489 55.154C123.067 55.0349 122.689 55.0272 122.395 55.0503C122.369 55.0503 122.347 55.0656 122.336 55.0848C122.307 55.1271 122.315 55.1962 122.369 55.2192C122.605 55.319 122.9 55.4918 123.173 55.7952C123.38 56.0255 123.511 56.2636 123.598 56.4671C123.344 56.5323 123.125 56.5861 122.947 56.6245C121.667 56.8856 120.675 56.9739 120.246 57.1083C119.726 56.3711 118.802 55.2653 117.351 54.3668C116.006 53.5337 114.733 53.2073 113.868 53.0729C113.835 53.0691 113.81 53.0883 113.803 53.1152C113.792 53.142 113.803 53.1804 113.832 53.1958C114.472 53.5145 115.417 54.1211 116.181 55.2231C116.184 55.2307 116.192 55.2384 116.195 55.2461C117.064 56.5055 117.101 58.2102 116.279 59.508C116.261 59.5348 116.243 59.5656 116.224 59.5924C115.472 60.7366 114.479 61.2895 113.879 61.5468C113.835 61.566 113.832 61.6197 113.857 61.6504C113.868 61.6619 113.883 61.6696 113.904 61.6696C114.904 61.6159 116.933 61.3164 118.675 59.6884C119.468 58.9474 119.973 58.1411 120.289 57.5076C120.726 57.688 121.646 57.8915 122.878 58.2179C123.1 58.2755 123.314 58.3331 123.522 58.3907C123.442 58.5443 123.333 58.7055 123.191 58.8629C122.922 59.1624 122.624 59.339 122.387 59.4389C122.329 59.4619 122.322 59.531 122.355 59.5732C122.369 59.5924 122.387 59.604 122.413 59.6078C122.707 59.6347 123.085 59.6231 123.507 59.5041C124.1 59.3352 124.536 59.0165 124.82 58.7477C126.503 59.2162 127.809 59.6078 128.968 59.9188C128.827 60.2298 128.605 60.5946 128.259 60.9478C127.736 61.4776 127.147 61.7387 126.743 61.8654C126.7 61.8808 126.685 61.923 126.692 61.9614C126.7 61.9883 126.721 62.0113 126.754 62.0152C127.256 62.0766 127.965 62.0958 128.769 61.8885C130.016 61.5698 130.834 60.8748 131.252 60.4487C132.546 60.6905 133.87 60.8172 135.641 60.8288C137.517 60.8403 140.087 60.8326 143.047 59.7499C143.047 59.7422 143.04 59.7345 143.04 59.7268C143.04 59.7268 143.047 59.7422 143.047 59.7499C143.429 59.6078 143.822 59.4504 144.214 59.2738C145.498 58.694 146.501 58.0528 147.185 57.569C147.218 57.5383 147.247 57.5114 147.265 57.4845C147.265 57.4845 147.283 57.4538 147.294 57.4193C147.312 57.3578 146.16 56.4363 143.025 55.4074L143.029 55.4189ZM142.305 57.0161C141.066 56.9009 139.789 56.8049 138.484 56.7282C139.793 56.8049 141.069 56.9009 142.305 57.0161ZM132.332 56.5477C132.63 56.5477 132.928 56.5477 133.226 56.5515C134.532 56.563 135.811 56.6014 137.062 56.6552C135.811 56.5976 134.535 56.563 133.226 56.5515C132.924 56.5515 132.626 56.5477 132.332 56.5477Z" fill="#312383"/>
<path d="M175.269 42.6063C175.168 42.5718 175.062 42.5373 174.953 42.5027C173.735 42.1149 172.153 41.6926 170.226 41.37C170.237 41.3432 170.237 41.3086 170.212 41.2817C169.841 40.8786 168.99 40.0761 167.619 39.7267C166.816 39.5194 166.107 39.5386 165.605 39.6C165.572 39.6039 165.55 39.6269 165.543 39.6538C165.532 39.6921 165.547 39.7344 165.59 39.7497C165.994 39.8803 166.579 40.1414 167.107 40.6674C167.248 40.8095 167.368 40.9515 167.47 41.0936C166.772 41.0936 166.074 41.1435 165.38 41.2472C164.801 41.3355 164.205 41.4468 163.601 41.5774C163.601 41.5543 163.602 41.5313 163.583 41.5159C163.213 41.1128 162.362 40.3103 160.991 39.9609C160.187 39.7536 159.478 39.7728 158.976 39.8342C158.944 39.8381 158.922 39.8611 158.915 39.888C158.904 39.9264 158.918 39.9686 158.962 39.984C159.365 40.1145 159.951 40.3756 160.478 40.9016C160.907 41.3316 161.144 41.7885 161.274 42.1303C159.78 42.518 158.351 42.9404 157.209 43.2706C156.944 42.9788 156.453 42.5449 155.726 42.3414C155.304 42.2224 154.926 42.2147 154.631 42.2378C154.606 42.2378 154.584 42.2531 154.573 42.2723C154.544 42.3145 154.551 42.3837 154.606 42.4067C154.842 42.5065 155.137 42.6793 155.409 42.9826C155.617 43.213 155.748 43.4511 155.835 43.6546C155.58 43.7237 155.362 43.7736 155.184 43.812C153.904 44.0731 152.912 44.1614 152.483 44.2957C151.963 43.5586 151.039 42.4528 149.588 41.5543C148.243 40.7211 146.97 40.3948 146.105 40.2604C146.072 40.2566 146.047 40.2758 146.04 40.3026C146.029 40.3295 146.04 40.3679 146.072 40.3833C146.712 40.702 147.658 41.3086 148.421 42.4106C148.425 42.4182 148.432 42.4259 148.436 42.4336C149.305 43.6968 149.341 45.3977 148.519 46.6955C148.501 46.7223 148.483 46.7531 148.465 46.7799C147.712 47.9241 146.719 48.477 146.119 48.7342C146.076 48.7534 146.072 48.8072 146.098 48.8379C146.109 48.8494 146.123 48.8571 146.145 48.8571C147.145 48.8034 149.174 48.5039 150.915 46.8759C151.708 46.1349 152.213 45.3286 152.53 44.6951C152.966 44.8755 153.886 45.079 155.119 45.4054C155.34 45.463 155.555 45.5206 155.762 45.5782C155.682 45.7317 155.573 45.893 155.431 46.0504C155.162 46.3499 154.864 46.5265 154.628 46.6263C154.57 46.6494 154.562 46.7185 154.595 46.7607C154.61 46.7799 154.628 46.7914 154.653 46.7953C154.948 46.8222 155.326 46.8106 155.748 46.6916C156.34 46.5227 156.777 46.204 157.06 45.9352C158.744 46.4037 160.049 46.7953 161.209 47.1063C161.067 47.4173 160.845 47.782 160.5 48.1353C159.976 48.6651 159.387 48.9262 158.984 49.0529C158.94 49.0683 158.926 49.1105 158.933 49.1489C158.94 49.1758 158.962 49.1988 158.995 49.2027C159.496 49.2641 160.205 49.2833 161.009 49.076C162.256 48.7573 163.074 48.0623 163.492 47.6361C164.787 47.878 166.11 48.0047 167.881 48.0163C169.757 48.0278 172.328 48.0201 175.288 46.9373C175.288 46.9297 175.28 46.922 175.28 46.9143C175.28 46.9143 175.288 46.9297 175.288 46.9373C175.669 46.7953 176.062 46.6379 176.455 46.4613C177.738 45.8815 178.742 45.2403 179.425 44.7565C179.458 44.7258 179.487 44.6989 179.505 44.672C179.505 44.672 179.524 44.6413 179.534 44.6068C179.553 44.5453 178.4 43.6238 175.266 42.5948L175.269 42.6063ZM164.572 43.7352C164.87 43.7352 165.169 43.7352 165.467 43.739C166.772 43.7505 168.052 43.7889 169.303 43.8427C168.052 43.7889 166.776 43.7505 165.467 43.739C165.165 43.739 164.867 43.7352 164.572 43.7352Z" fill="#312383"/>
<path d="M73.7774 50.6617C73.6755 50.6271 73.5701 50.5926 73.461 50.558C72.2429 50.1702 70.6612 49.7479 68.7342 49.4254C68.7451 49.3985 68.745 49.3639 68.7196 49.3371C68.3487 48.9339 67.4979 48.1315 66.1272 47.7821C65.3236 47.5747 64.6146 47.5939 64.1128 47.6553C64.0801 47.6592 64.0583 47.6822 64.051 47.7091C64.0401 47.7475 64.0547 47.7897 64.102 47.8051C64.5056 47.9356 65.0909 48.1967 65.6182 48.7227C65.76 48.8648 65.8799 49.0069 65.9818 49.1489C65.2836 49.1489 64.5855 49.1988 63.891 49.3025C63.3129 49.3908 62.7166 49.5022 62.113 49.6327C62.113 49.6097 62.1131 49.5866 62.0949 49.5713C61.724 49.1681 60.8732 48.3657 59.5024 48.0163C58.6989 47.8089 57.9898 47.8281 57.4881 47.8896C57.4553 47.8934 57.4334 47.9164 57.4261 47.9433C57.4152 47.9817 57.4299 48.0239 57.4735 48.0393C57.8771 48.1698 58.4625 48.4309 58.9897 48.957C59.4188 49.387 59.6551 49.8439 59.786 50.1856C58.2916 50.5734 56.8625 50.9957 55.7208 51.3259C55.4554 51.0341 54.9645 50.6003 54.2373 50.3968C53.8155 50.2777 53.4375 50.2701 53.143 50.2931C53.1175 50.2931 53.0956 50.3085 53.0847 50.3277C53.0556 50.3699 53.063 50.439 53.1176 50.462C53.3539 50.5619 53.6484 50.7346 53.9211 51.038C54.1284 51.2683 54.2592 51.5064 54.3465 51.7099C54.092 51.779 53.8738 51.8289 53.6956 51.8673C52.4158 52.1284 51.4231 52.2167 50.994 52.3511C50.4741 51.6139 49.5505 50.5081 48.0998 49.6097C46.7544 48.7765 45.4818 48.4501 44.6164 48.3158C44.5837 48.3119 44.5584 48.3311 44.5511 48.358C44.5402 48.3849 44.551 48.4232 44.5838 48.4386C45.2237 48.7573 46.1691 49.3639 46.9326 50.4659C46.9363 50.4736 46.9435 50.4812 46.9472 50.4889C47.8162 51.7521 47.8525 53.453 47.0308 54.7508C47.0126 54.7777 46.9945 54.8084 46.9763 54.8353C46.2236 55.9794 45.2309 56.5323 44.631 56.7896C44.5874 56.8088 44.5837 56.8625 44.6092 56.8932C44.6201 56.9048 44.6347 56.9163 44.6566 56.9124C45.6565 56.8587 47.6852 56.5592 49.4269 54.9313C50.2195 54.1902 50.7251 53.3839 51.0414 52.7504C51.4777 52.9309 52.3975 53.1344 53.6301 53.4607C53.8519 53.5183 54.0665 53.5759 54.2737 53.6335C54.1937 53.7871 54.0848 53.9483 53.943 54.1058C53.6739 54.4052 53.3758 54.5818 53.1394 54.6817C53.0812 54.7047 53.0738 54.7738 53.1066 54.8161C53.1211 54.8353 53.1393 54.8468 53.1648 54.8506C53.4593 54.8775 53.8374 54.866 54.2592 54.747C54.8518 54.578 55.2883 54.2593 55.5719 53.9906C57.2554 54.459 58.5606 54.8506 59.7205 55.1616C59.5787 55.4726 59.3606 55.8374 59.0115 56.1906C58.488 56.7205 57.899 56.9816 57.4954 57.1083C57.4517 57.1236 57.4371 57.1659 57.4444 57.2042C57.4517 57.2311 57.4735 57.2542 57.5062 57.258C58.008 57.3194 58.717 57.3386 59.5205 57.1313C60.7677 56.8126 61.5858 56.1177 62.004 55.6915C63.2984 55.9334 64.6218 56.0601 66.3926 56.0716C68.2688 56.0831 70.8395 56.0754 73.7992 54.9927C73.7992 54.985 73.7919 54.9773 73.7919 54.9696C73.7919 54.9696 73.7992 54.985 73.7992 54.9927C74.181 54.8506 74.5736 54.6932 74.9663 54.5166C76.2498 53.9368 77.2534 53.2956 77.9369 52.8118C77.9697 52.7811 77.9988 52.7542 78.017 52.7274C78.017 52.7274 78.0352 52.6966 78.0461 52.6621C78.0643 52.6007 76.9116 51.6792 73.7774 50.6502V50.6617ZM73.0537 52.2589C71.8138 52.1437 70.5377 52.0478 69.2323 51.971C70.5413 52.0478 71.8175 52.1437 73.0537 52.2589ZM63.0802 51.7905C63.3784 51.7905 63.6765 51.7905 63.9747 51.7944C65.28 51.8059 66.5598 51.8443 67.8106 51.898C66.5598 51.8443 65.2836 51.8059 63.9747 51.7944C63.6729 51.7944 63.3747 51.7905 63.0802 51.7905Z" fill="#312383"/>
<path d="M37.8464 33.883C37.7155 33.8407 37.5808 33.7947 37.4427 33.7524C35.8864 33.2571 33.8612 32.7158 31.4033 32.3049C31.4178 32.2704 31.4143 32.2243 31.3852 32.1936C30.9125 31.6791 29.8216 30.6539 28.0726 30.2047C27.0473 29.9398 26.1384 29.9628 25.4985 30.0434C25.4549 30.0473 25.4293 30.078 25.4184 30.1126C25.4075 30.1586 25.4257 30.2162 25.4802 30.2354C25.9965 30.4005 26.7456 30.7346 27.4182 31.4103C27.5964 31.5908 27.7527 31.7751 27.8836 31.9555C26.9891 31.9555 26.0984 32.017 25.2112 32.1552C24.4731 32.2704 23.7096 32.4124 22.9387 32.5775C22.9387 32.5506 22.935 32.5199 22.9132 32.4969C22.4405 31.9824 21.3497 30.9573 19.6008 30.508C18.5754 30.2431 17.6664 30.2661 17.0265 30.3468C16.9828 30.3506 16.9575 30.3813 16.9466 30.4159C16.9357 30.4619 16.9538 30.5195 17.0084 30.5387C17.5247 30.7038 18.2737 31.0379 18.9464 31.7136C19.4918 32.2627 19.7936 32.8463 19.9608 33.284C18.0483 33.7793 16.2266 34.3168 14.765 34.7392C14.4232 34.3667 13.7978 33.8139 12.8706 33.5528C12.3325 33.3992 11.8488 33.3877 11.4743 33.4222C11.4415 33.4222 11.4161 33.4414 11.3979 33.4645C11.3579 33.5182 11.3689 33.6065 11.4416 33.6372C11.7434 33.7639 12.1215 33.9866 12.4669 34.3706C12.7287 34.6624 12.8996 34.9696 13.0123 35.2306C12.6887 35.3151 12.4051 35.3842 12.1796 35.4303C10.5434 35.7643 9.27454 35.8757 8.72914 36.0523C8.06739 35.1116 6.88571 33.6987 5.03134 32.5506C3.31151 31.4871 1.68612 31.0686 0.580776 30.8958C0.537144 30.8881 0.508063 30.915 0.497155 30.9496C0.486247 30.988 0.497105 31.0302 0.537101 31.0532C1.3552 31.4602 2.56245 32.2358 3.54054 33.6449C3.54781 33.6526 3.55502 33.6641 3.55865 33.6718C4.66764 35.2844 4.71501 37.4614 3.66784 39.1162C3.64602 39.1508 3.62059 39.1892 3.59877 39.2237C2.63523 40.6828 1.36618 41.3931 0.602613 41.7194C0.544437 41.7425 0.540773 41.8154 0.573497 41.8538C0.588041 41.8692 0.609829 41.8807 0.635281 41.8807C1.91152 41.8116 4.50773 41.4276 6.72933 39.3466C7.74378 38.3982 8.38724 37.3693 8.79448 36.5591C9.35079 36.7895 10.5253 37.0506 12.0997 37.4653C12.3833 37.5382 12.6561 37.615 12.9251 37.6841C12.8197 37.8799 12.6851 38.0872 12.5033 38.2869C12.1579 38.6708 11.7761 38.8936 11.478 39.0203C11.4053 39.051 11.3943 39.1393 11.4343 39.193C11.4525 39.2161 11.4779 39.2314 11.5107 39.2353C11.8852 39.2698 12.3687 39.2583 12.9068 39.1047C13.6631 38.8897 14.2196 38.4827 14.5832 38.1372C16.7357 38.7361 18.4009 39.2353 19.8881 39.6346C19.7099 40.03 19.4263 40.4985 18.979 40.9477C18.3064 41.6235 17.5573 41.9575 17.041 42.1226C16.9865 42.1418 16.9647 42.1955 16.9792 42.2454C16.9901 42.28 17.0155 42.3107 17.0591 42.3146C17.6991 42.3914 18.6045 42.4144 19.6335 42.1533C21.2297 41.7425 22.2733 40.8594 22.8041 40.3142C24.4585 40.6213 26.153 40.7864 28.4146 40.8018C30.8143 40.8172 34.0976 40.8095 37.879 39.4272C37.8754 39.4196 37.8719 39.4081 37.8682 39.4004C37.8682 39.4004 37.8754 39.4196 37.879 39.4272C38.3699 39.2468 38.868 39.0471 39.3734 38.8168C41.0169 38.0757 42.2967 37.2579 43.1694 36.6398C43.213 36.6014 43.2495 36.563 43.2713 36.5323C43.2713 36.5323 43.2931 36.4939 43.3077 36.4516C43.3331 36.3748 41.8569 35.1961 37.8537 33.883H37.8464ZM36.9228 35.9218C35.3375 35.7759 33.7086 35.653 32.036 35.5532C33.7086 35.6491 35.3375 35.772 36.9228 35.9218ZM24.1749 35.3228C24.5531 35.3228 24.9348 35.3228 25.3202 35.3305C26.9892 35.3458 28.6254 35.3919 30.2216 35.4649C28.6254 35.3919 26.9892 35.3497 25.3202 35.3305C24.9385 35.3305 24.5567 35.3266 24.1749 35.3228Z" fill="#312383"/>
<path d="M62.0477 16.6589C61.9459 16.6243 61.8404 16.5897 61.7313 16.5552C60.5133 16.1674 58.9316 15.745 57.0045 15.4225C57.0154 15.3956 57.0154 15.3611 56.9899 15.3342C56.6191 14.9311 55.7683 14.1286 54.3975 13.7792C53.5939 13.5719 52.8849 13.5911 52.3831 13.6525C52.3504 13.6563 52.3286 13.6794 52.3214 13.7063C52.3104 13.7447 52.3286 13.7869 52.3686 13.8023C52.7722 13.9328 53.3575 14.1939 53.8848 14.7199C54.0266 14.862 54.1466 15.004 54.2484 15.1461C53.5503 15.1461 52.8521 15.196 52.1577 15.2997C51.5795 15.388 50.9832 15.4993 50.3796 15.6299C50.3796 15.6068 50.3797 15.5838 50.3615 15.5684C49.9906 15.1653 49.1398 14.3628 47.7691 14.0134C46.9655 13.8061 46.2565 13.8253 45.7547 13.8867C45.722 13.8906 45.7 13.9136 45.6927 13.9405C45.6818 13.9789 45.6964 14.0211 45.7437 14.0365C46.1473 14.167 46.7326 14.4281 47.2599 14.9541C47.6889 15.3841 47.9252 15.841 48.0561 16.1828C46.5617 16.5706 45.1329 16.9929 43.9912 17.3231C43.7258 17.0313 43.2349 16.5974 42.5077 16.3939C42.0859 16.2749 41.7078 16.2672 41.4133 16.2903C41.3879 16.2903 41.366 16.3056 41.3551 16.3248C41.326 16.3671 41.3332 16.4362 41.3877 16.4592C41.6241 16.559 41.9186 16.7318 42.1913 17.0351C42.3985 17.2655 42.5294 17.5036 42.6167 17.707C42.3622 17.7723 42.144 17.8261 41.9658 17.8645C40.6859 18.1255 39.6934 18.2139 39.2644 18.3482C38.7444 17.6111 37.8209 16.5053 36.3701 15.6068C35.0248 14.7737 33.7522 14.4473 32.8868 14.3129C32.8541 14.3091 32.8285 14.3283 32.8213 14.3551C32.8104 14.382 32.8213 14.4204 32.8504 14.4358C33.4903 14.7544 34.4357 15.3611 35.1992 16.463C35.2029 16.4707 35.2102 16.4784 35.2138 16.4861C36.0828 17.7454 36.1192 19.4502 35.2974 20.7479C35.2792 20.7748 35.2611 20.8056 35.2429 20.8324C34.4903 21.9766 33.4976 22.5295 32.8976 22.7867C32.854 22.8059 32.8503 22.8597 32.8758 22.8904C32.8867 22.9019 32.9014 22.9096 32.9232 22.9096C33.9231 22.8558 35.9518 22.5564 37.6935 20.9284C38.4861 20.1874 38.9917 19.3811 39.308 18.7476C39.7444 18.928 40.6641 19.1315 41.8967 19.4579C42.1185 19.5155 42.3331 19.5731 42.5403 19.6307C42.4603 19.7842 42.3514 19.9455 42.2096 20.1029C41.9405 20.4024 41.6424 20.5752 41.406 20.6788C41.3479 20.7019 41.3405 20.771 41.3732 20.8132C41.3877 20.8324 41.406 20.8439 41.4314 20.8478C41.7259 20.8747 42.104 20.8631 42.5258 20.7441C43.1184 20.5752 43.5549 20.2565 43.8385 19.9877C45.522 20.4562 46.8272 20.8478 47.9871 21.1588C47.8453 21.4698 47.6236 21.8345 47.2782 22.1878C46.7546 22.7176 46.1656 22.9787 45.762 23.1054C45.7183 23.1208 45.7037 23.163 45.711 23.2014C45.7183 23.2283 45.7401 23.2513 45.7728 23.2552C46.2746 23.3166 46.9836 23.3358 47.7872 23.1285C49.0343 22.8098 49.8524 22.1148 50.2706 21.6886C51.565 21.9305 52.8885 22.0572 54.6592 22.0687C56.5354 22.0803 59.1061 22.0726 62.0658 20.9898C62.0658 20.9822 62.0585 20.9745 62.0585 20.9668C62.0585 20.9668 62.0658 20.9822 62.0658 20.9898C62.4476 20.8478 62.8403 20.6904 63.2329 20.5137C64.5165 19.934 65.52 19.2928 66.2035 18.809C66.2363 18.7783 66.2654 18.7514 66.2836 18.7245C66.2836 18.7245 66.3018 18.6938 66.3127 18.6592C66.3309 18.5978 65.1782 17.6763 62.044 16.6473L62.0477 16.6589ZM61.324 18.2561C60.0842 18.1409 58.808 18.0449 57.5027 17.9681C58.8116 18.0449 60.0878 18.1409 61.324 18.2561ZM51.3504 17.7877C51.6485 17.7877 51.9467 17.7877 52.2448 17.7915C53.5502 17.803 54.8301 17.8414 56.0809 17.8952C54.8301 17.8376 53.5538 17.803 52.2448 17.7915C51.943 17.7915 51.6449 17.7877 51.3504 17.7877Z" fill="#312383"/>
<path d="M94.2845 3.84637C94.1827 3.81181 94.0772 3.77725 93.9681 3.74269C92.75 3.3549 91.1684 2.93255 89.2413 2.61003C89.2522 2.58315 89.2524 2.5486 89.2269 2.52173C88.856 2.11857 88.0051 1.31612 86.6343 0.966722C85.8307 0.759387 85.1217 0.778578 84.6199 0.840011C84.5872 0.84385 84.5654 0.866893 84.5581 0.89377C84.5472 0.932165 84.5617 0.9744 84.6054 0.989758C85.009 1.1203 85.5945 1.38137 86.1217 1.90739C86.2635 2.04945 86.3835 2.19153 86.4853 2.33359C85.7872 2.33359 85.0891 2.38349 84.3946 2.48716C83.8165 2.57547 83.2201 2.68683 82.6166 2.81738C82.6166 2.79434 82.6165 2.77129 82.5983 2.75593C82.2274 2.35278 81.3766 1.55032 80.0058 1.20093C79.2023 0.993593 78.4932 1.01278 77.9915 1.07422C77.9588 1.07806 77.937 1.1011 77.9297 1.12798C77.9188 1.16637 77.9333 1.20861 77.9769 1.22396C78.3805 1.35451 78.9661 1.6156 79.4933 2.14162C79.9223 2.57164 80.1587 3.02853 80.2896 3.37025C78.7952 3.75804 77.3661 4.1804 76.2244 4.5106C75.959 4.21879 75.4681 3.78493 74.7409 3.58144C74.3191 3.46241 73.9411 3.45473 73.6465 3.47776C73.6211 3.47776 73.5992 3.49313 73.5883 3.51233C73.5592 3.55456 73.5664 3.62367 73.621 3.6467C73.8573 3.74653 74.1518 3.91931 74.4245 4.22263C74.6318 4.453 74.7628 4.69105 74.8501 4.89455C74.5956 4.96366 74.3774 5.01357 74.1992 5.05196C72.9193 5.31305 71.9267 5.40136 71.4976 5.53574C70.9777 4.79856 70.0541 3.69277 68.6033 2.79432C67.258 1.96114 65.9854 1.63478 65.12 1.5004C65.0873 1.49656 65.0618 1.51577 65.0545 1.54265C65.0436 1.56953 65.0545 1.60791 65.0836 1.62327C65.7236 1.94195 66.6689 2.5486 67.4325 3.65055C67.4361 3.65823 67.4434 3.6659 67.447 3.67358C68.316 4.93679 68.3524 6.63769 67.5307 7.93545C67.5125 7.96233 67.4943 7.99305 67.4762 8.01993C66.7235 9.16411 65.731 9.71699 65.131 9.97424C65.0874 9.99343 65.0837 10.0472 65.1092 10.0779C65.1201 10.0894 65.1346 10.0971 65.1564 10.0971C66.1563 10.0434 68.1853 9.74388 69.9269 8.11592C70.7196 7.37489 71.225 6.56859 71.5413 5.93507C71.9776 6.11553 72.8976 6.31901 74.1302 6.64537C74.352 6.70297 74.5665 6.76056 74.7737 6.81816C74.6938 6.97174 74.5846 7.13299 74.4428 7.29041C74.1737 7.58989 73.8756 7.76267 73.6393 7.86634C73.5811 7.88938 73.5737 7.9585 73.6064 8.00074C73.621 8.01993 73.6392 8.03144 73.6647 8.03528C73.9592 8.06216 74.3374 8.05063 74.7592 7.9316C75.3519 7.76267 75.7881 7.444 76.0717 7.17523C77.7552 7.64365 79.0606 8.03528 80.2205 8.34628C80.0787 8.65728 79.8605 9.02203 79.5114 9.37527C78.9878 9.90513 78.3988 10.1662 77.9952 10.2929C77.9516 10.3083 77.937 10.3505 77.9443 10.3889C77.9515 10.4158 77.9733 10.4388 78.006 10.4427C78.5078 10.5041 79.2168 10.5233 80.0204 10.316C81.2676 9.99728 82.0857 9.30232 82.5038 8.87614C83.7983 9.11803 85.1217 9.24473 86.8924 9.25625C88.7686 9.26777 91.3393 9.26009 94.299 8.17734C94.299 8.16966 94.2918 8.16198 94.2918 8.1543C94.2918 8.1543 94.299 8.16966 94.299 8.17734C94.6808 8.03528 95.0735 7.87786 95.4662 7.70124C96.7497 7.12147 97.7532 6.48027 98.4368 5.99649C98.4695 5.96578 98.4987 5.93891 98.5169 5.91203C98.5169 5.91203 98.5351 5.8813 98.546 5.84675C98.5641 5.78531 97.4115 4.86383 94.2772 3.83484L94.2845 3.84637ZM83.5874 4.97519C83.8855 4.97519 84.1836 4.97517 84.4818 4.97901C85.7871 4.99053 87.0671 5.02893 88.3179 5.08268C87.0671 5.02893 85.7908 4.99053 84.4818 4.97901C84.18 4.97901 83.8819 4.97519 83.5874 4.97519Z" fill="#312383"/>
<path d="M136.11 5.47817C136.008 5.44361 135.902 5.40905 135.793 5.37449C134.575 4.9867 132.994 4.56435 131.066 4.24183C131.077 4.21495 131.077 4.1804 131.052 4.15352C130.681 3.75037 129.83 2.94792 128.459 2.59852C127.656 2.39119 126.947 2.41038 126.445 2.47181C126.412 2.47565 126.391 2.49869 126.383 2.52557C126.372 2.56396 126.387 2.6062 126.431 2.62156C126.834 2.7521 127.42 3.01317 127.947 3.53919C128.089 3.68125 128.209 3.82333 128.31 3.96539C127.612 3.96539 126.914 4.01529 126.22 4.11896C125.642 4.20727 125.045 4.31863 124.442 4.44917C124.442 4.42614 124.442 4.40309 124.423 4.38773C124.053 3.98458 123.202 3.18212 121.831 2.83273C121.027 2.62539 120.318 2.64458 119.817 2.70601C119.784 2.70985 119.762 2.7329 119.755 2.75977C119.744 2.79817 119.762 2.8404 119.806 2.85576C120.209 2.98631 120.795 3.2474 121.322 3.77341C121.751 4.20344 121.987 4.66033 122.118 5.00204C120.624 5.38984 119.195 5.8122 118.053 6.1424C117.788 5.85059 117.297 5.41673 116.57 5.21324C116.148 5.09421 115.77 5.08652 115.475 5.10956C115.45 5.10956 115.428 5.12493 115.417 5.14413C115.388 5.18636 115.395 5.25547 115.45 5.2785C115.686 5.37833 115.981 5.55111 116.253 5.85443C116.461 6.0848 116.592 6.32285 116.679 6.52635C116.424 6.59546 116.206 6.64536 116.028 6.68376C114.748 6.94485 113.755 7.03316 113.326 7.16754C112.806 6.43035 111.883 5.32456 110.432 4.42612C109.087 3.59294 107.814 3.26658 106.949 3.1322C106.916 3.12836 106.891 3.14757 106.883 3.17445C106.872 3.20133 106.883 3.23971 106.912 3.25506C107.552 3.57375 108.498 4.1804 109.261 5.28235C109.265 5.29002 109.272 5.2977 109.276 5.30538C110.145 6.56475 110.181 8.26949 109.359 9.56725C109.341 9.59412 109.323 9.62485 109.305 9.65173C108.552 10.7959 107.56 11.3488 106.96 11.606C106.916 11.6252 106.912 11.679 106.938 11.7097C106.949 11.7212 106.963 11.7327 106.985 11.7289C107.985 11.6751 110.014 11.3757 111.756 9.74772C112.548 9.00669 113.054 8.20039 113.37 7.56687C113.806 7.74733 114.726 7.95081 115.959 8.27717C116.181 8.33476 116.395 8.39236 116.602 8.44995C116.522 8.60354 116.413 8.76479 116.272 8.92221C116.002 9.22169 115.704 9.39447 115.468 9.49814C115.41 9.52118 115.402 9.5903 115.435 9.63254C115.45 9.65173 115.468 9.66324 115.493 9.66708C115.788 9.69396 116.166 9.68243 116.588 9.5634C117.181 9.39446 117.617 9.0758 117.9 8.80703C119.584 9.27545 120.889 9.66708 122.049 9.97808C121.907 10.2891 121.686 10.6538 121.34 11.0071C120.817 11.5369 120.228 11.798 119.824 11.9247C119.78 11.9401 119.766 11.9823 119.777 12.0207C119.784 12.0476 119.806 12.0706 119.838 12.0745C120.34 12.1359 121.049 12.1551 121.853 11.9478C123.1 11.6291 123.918 10.9341 124.336 10.5079C125.631 10.7498 126.958 10.8765 128.725 10.888C130.601 10.8996 133.172 10.8919 136.132 9.80914C136.132 9.80146 136.124 9.79378 136.124 9.7861C136.124 9.7861 136.132 9.80146 136.132 9.80914C136.513 9.66708 136.906 9.50966 137.299 9.33304C138.582 8.75327 139.586 8.11207 140.269 7.62829C140.302 7.59757 140.331 7.57071 140.349 7.54383C140.349 7.54383 140.367 7.5131 140.378 7.47854C140.396 7.41711 139.244 6.49563 136.11 5.46664V5.47817ZM135.386 7.0754C134.146 6.96021 132.87 6.86422 131.565 6.78743C132.874 6.86422 134.146 6.96021 135.386 7.0754ZM125.412 6.60699C125.711 6.60699 126.009 6.60697 126.307 6.61081C127.612 6.62233 128.892 6.66073 130.143 6.71448C128.892 6.65689 127.616 6.62233 126.307 6.61081C126.005 6.61081 125.707 6.60699 125.412 6.60699Z" fill="#312383"/>
<path d="M164.183 22.1916C163.98 22.1263 163.776 22.0572 163.565 21.9919C161.176 21.2355 158.078 20.4062 154.304 19.7765C154.33 19.7228 154.322 19.6537 154.279 19.6076C153.555 18.8167 151.886 17.2463 149.199 16.559C147.625 16.1559 146.232 16.1904 145.254 16.3094C145.189 16.3171 145.149 16.3632 145.134 16.417C145.116 16.4899 145.145 16.5782 145.229 16.6051C146.018 16.8585 147.167 17.3692 148.196 18.4058C148.472 18.6823 148.708 18.9664 148.908 19.2428C147.541 19.239 146.17 19.3388 144.814 19.5462C143.683 19.7189 142.513 19.9416 141.331 20.1912C141.334 20.149 141.324 20.1029 141.291 20.0683C140.567 19.2774 138.898 17.707 136.211 17.0198C134.637 16.6166 133.244 16.6512 132.266 16.7702C132.201 16.7779 132.161 16.824 132.146 16.8777C132.128 16.9507 132.157 17.039 132.241 17.0658C133.03 17.3192 134.179 17.8299 135.208 18.8666C136.048 19.7113 136.509 20.602 136.764 21.2778C133.833 22.038 131.037 22.8635 128.801 23.5124C128.278 22.9403 127.321 22.0956 125.896 21.6925C125.07 21.4583 124.329 21.4429 123.754 21.4928C123.703 21.4966 123.663 21.5235 123.638 21.5581C123.58 21.6387 123.594 21.7769 123.707 21.823C124.169 22.0188 124.751 22.3567 125.281 22.948C125.685 23.3972 125.947 23.8656 126.118 24.2688C125.62 24.3993 125.191 24.5068 124.841 24.5759C122.336 25.0866 120.391 25.2594 119.547 25.5281C118.533 24.0845 116.722 21.919 113.875 20.1605C111.235 18.5287 108.745 17.8875 107.05 17.6226C106.985 17.6111 106.938 17.6533 106.92 17.7032C106.901 17.7608 106.916 17.8299 106.981 17.8606C108.236 18.4865 110.087 19.6767 111.585 21.8345C111.595 21.8499 111.603 21.8614 111.614 21.8768C113.315 24.3494 113.384 27.686 111.777 30.2239C111.741 30.2776 111.708 30.3352 111.672 30.389C110.196 32.6274 108.25 33.7179 107.079 34.217C106.992 34.2554 106.985 34.3629 107.036 34.4205C107.058 34.4435 107.09 34.4627 107.13 34.4589C109.09 34.3552 113.064 33.7639 116.475 30.5733C118.028 29.1181 119.017 27.5439 119.638 26.2999C120.489 26.657 122.293 27.0524 124.707 27.6936C125.14 27.8088 125.561 27.9202 125.969 28.0315C125.809 28.331 125.598 28.6497 125.321 28.9568C124.79 29.5481 124.209 29.886 123.747 30.0818C123.634 30.1279 123.62 30.2661 123.678 30.3467C123.703 30.3813 123.743 30.4082 123.794 30.412C124.369 30.4619 125.111 30.4466 125.936 30.2124C127.096 29.8822 127.95 29.2563 128.507 28.7265C131.808 29.6441 134.361 30.4082 136.637 31.0187C136.36 31.6253 135.928 32.3433 135.244 33.0306C134.215 34.0672 133.066 34.5779 132.277 34.8313C132.19 34.8582 132.161 34.9465 132.183 35.0195C132.197 35.0732 132.237 35.1193 132.303 35.127C133.284 35.246 134.673 35.2844 136.248 34.8774C138.691 34.2516 140.295 32.8924 141.109 32.0592C143.643 32.5314 146.243 32.781 149.708 32.8041C153.388 32.8309 158.424 32.8156 164.216 30.6923C164.209 30.677 164.205 30.6654 164.198 30.6501C164.198 30.6501 164.209 30.677 164.216 30.6923C164.969 30.4159 165.732 30.1087 166.507 29.7555C169.023 28.619 170.99 27.3634 172.324 26.4189C172.393 26.3575 172.444 26.3037 172.481 26.2538C172.481 26.2538 172.517 26.1962 172.539 26.131C172.579 26.0119 170.317 24.2073 164.176 22.1916H164.183ZM162.769 25.317C160.34 25.0904 157.842 24.9023 155.279 24.7526C157.842 24.8985 160.34 25.0904 162.769 25.317ZM143.229 24.3993C143.81 24.3993 144.396 24.3993 144.985 24.407C144.396 24.4032 143.81 24.3993 143.229 24.3993Z" fill="#312383"/>
</svg>
