<svg width="193" height="114" viewBox="0 0 193 114" fill="none" xmlns="http://www.w3.org/2000/svg">
<path opacity="0.7" d="M192.203 3.06581L187.032 0.650759C186.945 0.612364 186.85 0.600843 186.759 0.62388L157.588 7.92664C157.013 8.06871 156.45 8.25302 155.897 8.46803L150.992 10.3993C150.319 10.6642 149.618 10.8409 148.901 10.9176C146.142 11.221 138.782 12.2154 138.342 14.2849C138.117 15.3484 138.204 16.4849 138.382 17.4525C138.702 19.1841 138.484 20.9772 137.699 22.5322L137.611 22.7088C137.477 22.9776 137.328 23.2348 137.164 23.4844C134.234 27.3163 131.787 30.5184 129.994 32.8721C125.165 39.2034 124.096 40.6202 122.744 42.7396C121.231 45.1086 119.253 48.522 117.326 52.9835C116.89 53.9894 116.068 54.7573 115.068 55.0837C107.803 57.4642 100.539 59.8486 93.2738 62.2291C89.7433 63.3848 86.0237 63.7457 82.355 63.285C82.3295 63.285 82.3186 63.2811 82.2932 63.2773C81.9769 63.2389 77.8572 62.7628 74.4685 64.3408C70.7925 66.0532 68.6689 70.2422 67.9345 71.9392C67.7927 72.2694 67.3709 72.327 67.1528 72.0467L65.6911 70.1846L71.4251 66.395C73.4903 65.0319 74.2356 62.2367 73.1485 59.933L69.1016 51.3555C67.9708 48.9635 65.2583 47.9345 62.9458 49.0211L31.5417 63.7726C30.1491 64.4253 29.1418 65.7461 28.8328 67.3203L28.2364 70.3497C28.1164 70.4111 27.9964 70.4841 27.8874 70.5724L24.8658 72.9375C23.7314 71.8317 22.3316 71.3748 21.1645 71.6781C20.3173 71.9008 19.5609 72.5689 19.0301 73.5633C18.2774 74.9801 18.0737 76.8423 18.5101 78.309C19.0591 80.1558 20.4917 80.9813 21.6443 81.6417C22.7352 82.2676 23.4152 82.6937 23.6479 83.5308C23.8842 84.3793 23.5424 85.3046 23.0189 86.18C22.8843 86.1301 22.757 86.061 22.637 85.9689L18.8046 83.047C15.2086 79.6874 10.369 78.6622 6.69301 80.486C1.99528 82.8128 0.573681 89.0981 0.417332 89.793C0.384608 89.9313 0.362707 90.0503 0.329983 90.2231C-0.189967 93.0297 0.784513 95.9132 2.81341 97.81C4.32236 99.2191 5.82764 100.632 7.33659 102.041C7.63474 102.321 7.82389 102.709 7.86388 103.128L7.93668 103.903C8.04212 105.024 8.75115 105.988 9.76196 106.353C11.0018 106.802 12.7144 107.121 14.1033 106.253C14.9942 105.7 15.8885 105.335 16.6775 105.097C16.6411 105.19 16.6084 105.286 16.5866 105.382L16.234 106.883C15.8886 108.349 16.4667 109.881 17.6666 110.699C18.1429 111.022 18.6847 111.214 19.2483 111.252L20.15 111.317C21.5353 111.417 22.8734 110.753 23.6878 109.563C24.0005 109.11 24.2186 108.591 24.3422 108.05C25.9966 107.704 27.7965 107.033 29.56 105.823C29.8108 105.65 30.0509 105.474 30.2836 105.289C30.8436 104.852 31.3489 104.383 31.8106 103.899C33.1123 104.882 34.5123 105.712 35.9958 106.364C37.2829 106.929 38.5663 107.328 39.5844 107.301C41.6642 107.24 45.1694 106.318 47.4347 105.658C49.2672 107.044 51.1216 107.8 52.5615 108.211L52.2451 109.117C52.0524 109.67 52.3179 110.281 52.8415 110.484L59.0772 112.915C59.8771 113.226 60.7679 112.796 61.0624 111.947L61.6877 110.162C61.9823 109.317 61.575 108.376 60.7715 108.065L54.5357 105.635C54.0121 105.431 53.434 105.712 53.2413 106.265L53.0376 106.844C51.9432 106.541 50.5688 106.023 49.158 105.124C49.5326 104.998 49.9071 104.859 50.2707 104.698L53.3432 103.339C53.994 103.65 54.6885 103.961 55.4193 104.268C61.1097 106.637 74.2975 105.957 74.2975 105.957L72.9486 101.638C72.9486 101.638 73.7521 101.577 66.2619 102.01C63.6876 102.16 60.8878 101.745 58.3244 101.139L63.684 98.7698L66.0075 97.714C66.4438 97.5143 67.7273 99.2575 67.7273 99.2575C68.2291 100.26 69.1161 100.989 70.1779 101.254C71.3814 101.553 73.0286 100.908 73.8721 99.9524C74.0975 99.6952 74.3011 99.4149 74.472 99.1116L75.1302 97.9635C75.8901 96.6351 76.3628 95.1415 76.5082 93.5941L76.621 92.3962C76.69 91.6552 77.1954 91.037 77.8826 90.8604L78.2826 90.7568C79.0388 90.5609 79.7661 90.2461 80.4388 89.8276L81.9512 88.4454C84.1401 90.0196 87.1144 92.066 90.7286 94.2891C94.9064 96.8578 98.7934 99.2498 103.8 101.427C106.956 102.798 119.199 106.153 122.755 107.117C123.82 107.405 124.962 107.198 125.853 106.514C127.391 105.332 129.579 102.563 131.786 96.0975C135.15 86.2568 140.437 70.0425 142.167 64.7286C142.546 63.5652 143.058 62.4594 143.698 61.4343L148.101 54.3504C148.381 53.9011 148.807 53.5709 149.301 53.4442C150.356 53.1755 151.257 52.4536 151.785 51.4553L153.403 48.3953C153.621 47.9844 153.897 47.612 154.221 47.2933L157.679 43.8761C158.893 42.6744 159.864 41.223 160.533 39.6104L160.707 39.1881C160.707 39.1881 167.881 31.4476 169.877 27.1627C171.176 24.3713 173.561 21.0425 175.066 19.0613C175.771 18.1321 175.539 16.7652 174.575 16.1509L173.801 15.6556C173.237 15.2947 172.499 15.5251 172.212 16.1509C171.139 18.4892 168.492 23.9029 164.936 28.5987C161.162 33.5824 157.082 38.0631 155.639 39.6143C155.286 39.9944 154.853 40.2823 154.381 40.4628L150.683 41.8489C150.134 42.0562 149.625 42.3634 149.185 42.7627L146.269 45.3851C145.843 45.769 145.327 46.0224 144.778 46.1261C142.291 46.5869 135.077 47.9998 134.492 49.0211C133.783 50.2613 135.575 56.7193 135.575 56.7193L135.55 58.332C135.539 59.1574 135.321 59.9637 134.924 60.6741C132.008 65.4159 129.194 71.1905 126.278 75.9285C125.336 77.4566 124.536 79.0731 123.856 80.7471C122.576 83.9032 121.224 86.3183 119.922 89.2709C119.588 90.0272 118.675 90.2615 118.053 89.7431L105.564 79.2804C105.175 78.954 105.218 78.3167 105.651 78.0556L121.511 68.4491C124.464 66.6599 126.642 63.7341 127.587 60.2863L129.059 54.9225C129.201 54.4118 129.398 53.9165 129.649 53.4557L140.895 32.6878C141.182 32.1579 141.528 31.6665 141.924 31.2211L153.421 18.351L160.973 12.177C162.242 11.1403 163.674 10.3532 165.205 9.84641C170.568 8.08022 183.498 3.90282 185.432 3.99113C187.003 4.06408 190.068 3.99881 192.064 3.94121C192.523 3.92969 192.646 3.26547 192.224 3.06966L192.203 3.06581ZM20.1864 77.7561C19.8991 76.7847 20.0518 75.437 20.5608 74.481C20.8481 73.9396 21.2117 73.5902 21.5826 73.4904C22.0843 73.3598 22.7679 73.5595 23.4078 74.0817L22.2224 75.0109C21.2225 75.7941 21.0153 77.2838 21.7571 78.3359C22.4988 79.3917 23.9097 79.6106 24.9059 78.8273L27.2766 76.9728C27.4039 77.7292 27.6911 78.4549 28.1347 79.0884C28.651 79.8218 29.331 80.3708 30.0945 80.7125C30.1309 80.9276 30.16 81.1464 30.1782 81.3691C30.1709 81.3691 30.1599 81.3691 30.1526 81.3691C29.3927 81.4229 28.6691 81.7415 28.0983 82.2752L25.3968 85.0013C25.5241 84.3601 25.5277 83.692 25.3386 83.0124C24.8877 81.3921 23.6115 80.6588 22.488 80.0099C21.4372 79.4071 20.5282 78.8849 20.1937 77.7561H20.1864ZM28.6909 104.437C27.3019 105.393 25.884 105.973 24.5496 106.307C24.5351 105.961 24.4331 105.62 24.2586 105.324C23.9496 104.806 23.8806 104.172 24.066 103.592L24.4514 102.394C25.135 101.822 25.7277 101.123 26.1858 100.321L26.3967 99.9524C26.6658 99.4802 27.2948 99.4226 27.6402 99.8372L27.9056 100.16C28.7165 101.143 29.6 102.053 30.549 102.882C30 103.435 29.3855 103.961 28.6946 104.437H28.6909Z" fill="#2A1D74"/>
</svg>
