<svg width="150" height="153" viewBox="0 0 150 153" fill="none" xmlns="http://www.w3.org/2000/svg">
<path d="M141.87 15.4974C135.743 6.98522 126.602 2.62735 117.116 1.05698C99.1833 -1.91481 80.0251 5.07313 77.7344 12.7522C76.6 16.5533 79.9087 19.4982 87.9625 27.8031C84.4355 33.4626 80.8723 36.8874 77.7926 39.076C73.0513 42.4432 70.3242 42.2589 65.2411 46.9201C58.5981 53.0096 59.7107 56.5689 53.464 62.3474C47.141 68.1988 43.385 66.9624 37.8655 72.4376C34.3386 75.9354 32.2879 79.99 31.0553 83.4072C32.8551 82.7122 35.244 76.519 40.9016 72.1458C44.8613 69.0819 45.643 70.6138 51.1588 67.0546C52.1878 66.3904 57.2418 63.1268 61.5541 57.9281C65.4774 53.1978 64.9429 51.5007 68.3026 48.383C70.0333 46.7781 70.226 47.1812 76.4945 43.2687C82.5012 39.5214 83.9264 38.1507 84.6464 37.4135C87.148 34.8563 88.6461 32.2877 89.2461 31.2434C89.3952 30.9823 89.6751 30.4946 89.9806 29.8995C90.3769 30.3142 90.7877 30.7442 91.2022 31.1819C90.6895 32.1418 90.1732 33.0518 89.6569 33.9118C89.6424 33.8926 89.6278 33.8773 89.6132 33.8581C89.4751 34.1307 89.3333 34.4033 89.1951 34.6682C85.6646 40.3353 82.1012 43.764 79.0178 45.9487C74.2765 49.3122 71.5494 49.1317 66.4663 53.789C63.4884 56.5189 62.0667 58.742 60.845 60.8845C59.4197 61.8674 57.8926 63.0692 56.1946 64.628C52.6349 67.8916 50.5333 70.6791 48.8971 73.3054C45.5738 75.0139 42.7124 75.7204 39.0909 79.3065C36.593 81.783 34.8366 84.536 33.5895 87.1507C32.6332 88.5636 31.8479 89.9958 31.208 91.378C29.1391 92.5683 27.0011 94.1002 24.6559 96.427C24.5322 96.5498 24.4085 96.6727 24.2885 96.7994C21.1579 98.27 18.0566 99.967 14.4569 103.534C9.07924 108.867 5.95216 115.049 4.07598 120.259C6.82117 119.203 10.4646 109.758 19.0855 103.089C19.191 103.008 19.2927 102.927 19.3945 102.851C17.0601 106.368 15.4276 109.946 14.2714 113.152C14.5477 113.044 14.8313 112.852 15.1294 112.588C12.3697 116.465 10.5081 120.47 9.22818 124.022C11.9734 122.966 15.6131 113.521 24.2378 106.851C27.881 104.033 29.7608 103.764 32.5278 102.804C29.7172 105.868 27.5901 109.155 25.9684 112.338C22.3906 114.123 18.7655 116.354 14.6568 120.428C7.54114 127.481 3.40698 135.659 0.923584 142.551C4.55596 141.154 9.37008 128.66 20.7763 119.84C21.798 119.049 22.7106 118.416 23.5578 117.886C23.5214 117.982 23.4887 118.078 23.4523 118.17C23.8559 118.017 24.2777 117.675 24.7322 117.195C29.7026 114.465 32.4443 115.39 41.4616 109.57C42.6833 108.783 46.7264 106.168 51.6242 102.01C51.366 102.62 51.1332 103.215 50.9223 103.795C51.8168 103.449 52.8569 101.749 54.3694 99.5869C56.8783 97.287 59.5033 94.6301 62.0195 91.6468C64.2447 90.2223 65.4628 90.3452 68.0189 89.1396C65.4664 93.0866 63.8085 96.7226 61.1651 100.639C60.7543 100.992 60.3361 101.372 59.9071 101.798C58.0745 103.618 56.6419 105.584 55.5148 107.539C54.8639 108.203 54.1693 108.879 53.4203 109.574C52.5622 110.368 51.7297 111.094 50.9152 111.766C45.4976 114.841 41.0361 115.644 35.4512 120.781C31.1461 122.782 26.9066 125.016 21.9652 129.915C14.8496 136.969 10.7154 145.147 8.23201 152.035C11.8644 150.637 16.6785 138.143 28.0847 129.324C28.3174 129.144 28.5463 128.971 28.7718 128.806C26.6592 132.112 25.1576 135.448 24.0741 138.454C26.2702 137.61 29.0408 131.397 34.4767 125.534C38.1563 124.068 41.3197 123.864 48.7736 119.057C50.8461 117.721 61.0379 111.14 69.7316 100.658C70.1498 100.151 70.5387 99.6675 70.9096 99.1953C71.6622 98.27 72.3059 97.4176 72.8622 96.6305C72.9749 96.5575 73.0875 96.4884 73.2075 96.4116C74.2365 95.7474 79.2907 92.4838 83.603 87.2851C86.25 84.0944 86.868 82.2822 88.0242 80.4853C89.395 79.6867 91.1185 78.6538 93.3547 77.2601C102.514 71.5468 104.685 69.4581 105.786 68.3332C106.637 67.4616 107.411 66.5939 108.113 65.7492C111.767 63.2535 113.756 61.6601 114.985 60.562C112.706 64.7778 110.393 68.3217 108.102 71.3165C107.833 71.52 107.568 71.7158 107.306 71.9039C102.565 75.2673 99.8377 75.0869 94.7546 79.7481C91.7222 82.5279 90.3041 84.7817 89.0678 86.9587C85.5554 88.675 82.1958 90.2761 77.538 94.5456C74.2584 97.552 72.2186 100.151 70.6369 102.597C69.6006 103.281 68.528 104.125 67.379 105.266C63.8521 108.763 61.8014 112.818 60.5688 116.235C62.0814 115.651 64.0085 111.19 67.939 107.181C66.0337 110.564 64.0338 113.947 59.5797 118.067C49.937 126.986 44.214 125.104 35.7967 133.448C30.419 138.781 27.292 144.962 25.4122 150.173C28.1574 149.117 31.8006 139.672 40.4216 133.002C46.461 128.333 47.6501 130.668 56.0602 125.239C57.1837 124.513 61.4778 121.741 66.241 117.302C64.7611 119.56 63.7212 121.848 62.9794 123.906C64.7792 123.212 67.1681 117.018 72.8258 112.645C76.7854 109.581 77.5671 111.113 83.083 107.554C84.112 106.89 89.166 103.626 93.4783 98.4274C97.4015 93.6971 96.8671 92 100.227 88.8823C101.957 87.2774 102.15 87.6805 108.419 83.7681C114.425 80.0207 115.851 78.65 116.571 77.9128C119.072 75.3557 120.57 72.787 121.17 71.7427C121.403 71.3395 121.937 70.4065 122.41 69.3622C129.177 78.8919 131.704 82.8312 135.427 81.8406C135.838 81.7331 136.249 81.5642 136.66 81.3453C137.318 80.9959 137.972 80.5122 138.623 79.9093C148.2 70.994 156.371 35.6242 141.877 15.4859L141.87 15.4974ZM48.8389 92.2726C51.0714 90.2876 53.4676 87.9071 55.7292 85.181C61.7105 77.9704 60.8959 75.3825 66.0191 70.6292C67.6807 69.0895 68.4117 68.7594 71.1132 67.2389C70.5678 67.9108 70.0734 68.5635 69.6189 69.2047C61.9542 76.2963 59.4925 81.6947 56.2746 87.2659C53.5403 89.6041 51.1151 91.0939 48.8389 92.2688V92.2726ZM120.581 43.6105C120.556 43.5221 120.53 43.43 120.509 43.3417C120.534 43.43 120.559 43.5221 120.585 43.6105H120.581ZM95.3146 35.5935C95.4273 35.7164 95.5399 35.8393 95.6526 35.9621C95.4563 36.2002 95.2637 36.4344 95.071 36.6648C95.1146 36.4267 95.1472 36.204 95.1654 35.989C95.2163 35.8585 95.2672 35.7241 95.3181 35.5897L95.3146 35.5935ZM97.9542 44.5012C98.3178 43.8677 99.1723 42.3818 99.9068 40.7308C100.739 41.6792 101.594 42.6698 102.474 43.6988C99.7614 46.6399 97.1362 48.8706 94.7109 50.5945C94.0492 51.063 93.4165 51.4853 92.802 51.8731C95.5108 48.7093 97.1979 45.8182 97.9542 44.5012ZM69.7678 61.2646C70.7968 60.6503 71.975 59.9323 73.3531 59.0722C79.887 54.9947 82.8611 52.7677 84.4319 51.4162C86.5081 50.1108 88.1952 49.005 89.5806 48.0643C86.399 51.7579 83.3121 54.4456 80.4905 56.446C75.9346 59.6827 72.5968 60.7693 68.8081 62.9079C69.1244 62.3358 69.4225 61.7983 69.7643 61.2646H69.7678ZM119.679 40.0896C119.756 40.4083 119.836 40.727 119.912 41.0418C119.832 40.7231 119.752 40.4045 119.679 40.0896ZM120.079 41.7099C120.167 42.0478 120.258 42.3895 120.345 42.7274C120.254 42.3895 120.163 42.0478 120.079 41.7099ZM118.963 36.8836C119.025 37.1793 119.09 37.4749 119.152 37.7744C119.087 37.4787 119.025 37.1793 118.963 36.8836ZM119.309 38.4808C119.378 38.7842 119.447 39.0913 119.519 39.3947C119.447 39.0875 119.378 38.7842 119.309 38.4808ZM116.556 15.0329C116.556 15.1749 116.56 15.3208 116.563 15.4629C116.563 15.317 116.56 15.1749 116.556 15.0329ZM116.585 16.3037C116.589 16.4727 116.593 16.6455 116.6 16.8144C116.596 16.6416 116.589 16.4727 116.585 16.3037ZM116.687 18.9761C116.698 19.1796 116.705 19.3869 116.72 19.5904C116.709 19.383 116.698 19.1796 116.687 18.9761ZM116.763 20.3545C116.778 20.5733 116.789 20.7883 116.803 21.0072C116.789 20.7883 116.774 20.5733 116.763 20.3545ZM116.858 21.7597C116.876 21.9862 116.891 22.2166 116.909 22.4431C116.891 22.2128 116.872 21.9862 116.858 21.7597ZM116.971 23.188C116.993 23.4222 117.011 23.6603 117.032 23.8983C117.011 23.6603 116.989 23.4261 116.971 23.188ZM117.102 24.6394C117.127 24.8851 117.149 25.127 117.174 25.3727C117.149 25.127 117.123 24.8812 117.102 24.6394ZM117.254 26.1099C117.283 26.3633 117.312 26.6129 117.342 26.8663C117.312 26.6129 117.283 26.3595 117.254 26.1099ZM116.538 13.8273C116.538 13.9309 116.538 14.0307 116.538 14.1306C116.538 14.0269 116.538 13.9271 116.538 13.8273ZM104.514 57.8129C106.986 55.2865 108.473 52.7562 109.091 51.685C109.666 52.3991 110.226 53.1018 110.771 53.7929C109.644 55.5936 108.517 57.2485 107.393 58.7651C105.703 60.2433 104.056 61.5334 102.474 62.6545C95.7618 67.4194 91.0494 68.6595 85.29 72.2264C85.9408 71.0631 86.6753 70.0111 88.1661 68.7786C90.6168 66.7513 92.104 66.3981 96.3581 63.6643C102.321 59.8363 103.79 58.5462 104.51 57.809L104.514 57.8129ZM77.0436 89.6656C77.8908 88.2872 78.8944 86.9433 80.5415 85.3653C79.5416 87.0969 78.389 88.8631 76.3673 90.8904C76.6 90.4719 76.8218 90.0649 77.0436 89.6656ZM42.1268 79.0301C44.2612 77.3791 45.4757 77.0642 47.0028 76.5651C46.8864 76.7763 46.7664 76.9836 46.65 77.1948C44.6793 78.2046 42.8722 78.8688 40.967 79.9938C41.3378 79.6636 41.7232 79.3411 42.1268 79.0301ZM39.9234 82.8811C41.5487 81.6256 42.6395 81.1418 43.7412 80.7617C43.0649 81.28 42.3706 81.8828 41.6434 82.6047C39.7709 84.4592 38.3163 86.4749 37.1783 88.4638C35.862 89.0743 34.575 89.6425 33.2806 90.2876C34.8404 88.0338 36.9237 85.2002 39.9234 82.8811ZM19.6127 107.312C18.9945 107.926 18.4056 108.552 17.8456 109.186C19.6382 106.598 21.9215 103.127 25.0812 99.8134C27.4374 99.0187 29.8844 98.4619 34.724 95.3404C35.6112 94.7683 38.4618 92.9292 41.9596 90.0034C42.8432 89.5235 43.8212 88.9476 44.9229 88.2334C45.5447 87.8341 47.1301 86.809 49.2281 85.2232C47.8209 87.3004 46.0429 89.4851 43.4032 91.9309C33.7605 100.85 28.0373 98.9688 19.6199 107.312H19.6127ZM46.1119 100.098C39.5998 106.122 34.4404 108.422 29.4663 110.699C31.7024 107.588 34.5749 104.022 38.4582 101.015C43.614 97.0298 45.2357 98.1471 50.8279 95.183C49.5153 96.7457 47.9772 98.3698 46.1119 100.098ZM64.8084 88.1298C67.9609 83.8448 69.2151 80.9268 70.9204 78.1278C71.884 76.8915 72.6441 75.801 73.2767 74.8104C74.0367 73.9005 74.9237 72.956 76.0254 71.9385C79.516 68.7018 79.9015 69.5158 92.5439 61.6294C97.1943 58.7267 100.481 56.5343 102.848 54.8487C101.034 56.8338 99.2741 58.3312 97.6524 59.4869C92.911 62.8503 90.184 62.6699 85.1009 67.3311C80.1304 71.8847 79.5016 75.0255 76.8836 78.7383C74.8111 80.6581 73.1203 82.4549 71.6913 84.1635C69.0988 86.2292 66.9245 87.1622 64.8047 88.1375L64.8084 88.1298ZM85.3736 102.87C80.1014 107.746 76.6145 107.704 72.4004 110.725C75.9237 106.348 76.9018 103.726 78.5126 101.165C79.0434 100.885 79.6288 100.547 80.2869 100.132C81.6104 99.7021 83.1556 99.153 85.7445 97.4828C86.6316 96.9108 90.5295 94.392 94.3546 90.3644C90.675 94.8144 90.5513 98.0818 85.3736 102.874V102.87ZM95.8236 88.7287C95.929 88.6059 96.0345 88.4792 96.1399 88.3525C96.3036 88.1566 96.4562 87.9685 96.6053 87.7804C96.8016 87.6537 96.9981 87.5308 97.1835 87.4118C97.1726 87.4233 97.1616 87.431 97.1507 87.4425C96.6671 87.884 96.2308 88.3141 95.8236 88.7326V88.7287ZM109.702 79.5983C107.408 81.2263 105.583 82.0249 103.735 82.9426C105.681 81.4874 106.535 80.6504 107.102 80.0706C109.877 77.237 111.84 74.3958 113.055 72.4415C117.418 69.6271 118.6 68.4868 119.232 67.8379C119.647 67.4155 120.029 66.9932 120.389 66.5747C120.487 66.709 120.585 66.8473 120.679 66.9778C116.891 73.4474 113.015 77.2409 109.699 79.5945L109.702 79.5983ZM125.606 57.9588C129.319 66.5286 133.729 73.5549 138.027 79.176C133.733 73.5549 129.322 66.5286 125.606 57.9588Z" fill="#2A1D74"/>
</svg>
