<svg width="217" height="62" viewBox="0 0 217 62" fill="none" xmlns="http://www.w3.org/2000/svg">
<path d="M0.41019 30.7871C0.421098 30.8216 0.439306 30.8523 0.439306 30.8523C0.457486 30.8754 0.486475 30.9061 0.519199 30.9368C1.20277 31.4206 2.20265 32.0579 3.48979 32.6415C3.88612 32.822 4.27516 32.9794 4.65694 33.1176C4.65694 33.11 4.66422 33.1023 4.66422 33.0946C4.66422 33.0946 4.65694 33.11 4.65694 33.1176C7.61302 34.2004 10.1837 34.2081 12.0635 34.1965C13.8343 34.185 15.1615 34.0583 16.4523 33.8164C16.8668 34.2426 17.6848 34.9337 18.9356 35.2563C19.7391 35.4636 20.4482 35.4444 20.9499 35.383C20.9827 35.3791 21.0045 35.3561 21.0117 35.3292C21.0226 35.2908 21.0081 35.2486 20.9645 35.2332C20.5609 35.1027 19.9755 34.8416 19.4483 34.3156C19.0993 33.9662 18.8774 33.5976 18.7392 33.2866C19.8991 32.9756 21.2045 32.584 22.888 32.1155C23.1716 32.3843 23.6078 32.703 24.2005 32.8719C24.6223 32.9909 25.0005 32.9986 25.2951 32.9756C25.3205 32.9756 25.3424 32.9602 25.3533 32.941C25.3824 32.8988 25.3751 32.8297 25.3169 32.8066C25.0805 32.7068 24.786 32.534 24.5133 32.2307C24.3715 32.0733 24.266 31.912 24.1824 31.7585C24.3933 31.7009 24.6078 31.6433 24.826 31.5857C26.0586 31.2593 26.9786 31.0558 27.4149 30.8754C27.7312 31.5089 28.2366 32.3152 29.0292 33.0562C30.7673 34.6842 32.7998 34.9836 33.7997 35.0374C33.8216 35.0374 33.8361 35.0297 33.847 35.0182C33.8724 34.9875 33.8688 34.9337 33.8251 34.9145C33.2252 34.6611 32.2325 34.1044 31.4798 32.9602C31.4616 32.9333 31.4435 32.9026 31.4253 32.8758C30.6036 31.578 30.6399 29.8771 31.5089 28.6139C31.5126 28.6062 31.5199 28.5985 31.5235 28.5908C32.2871 27.4889 33.2324 26.8823 33.8724 26.5636C33.9051 26.5482 33.9124 26.5137 33.9015 26.4829C33.8942 26.4561 33.8687 26.4369 33.836 26.4407C32.9706 26.5751 31.6981 26.9053 30.3528 27.7346C28.902 28.6331 27.9749 29.7389 27.4586 30.4761C27.0295 30.3378 26.0368 30.2534 24.7569 29.9923C24.5788 29.9577 24.3606 29.904 24.1061 29.8348C24.1933 29.6314 24.3278 29.3895 24.5315 29.1629C24.8005 28.8634 25.0987 28.6907 25.335 28.587C25.3932 28.564 25.4006 28.4949 25.3678 28.4526C25.3533 28.4334 25.3351 28.4219 25.3096 28.4181C25.0151 28.3912 24.6369 28.4027 24.2151 28.5217C23.4879 28.7291 23.0008 29.1591 22.7317 29.4509C21.59 29.1207 20.161 28.6983 18.6666 28.3106C18.7975 27.965 19.0338 27.5119 19.4629 27.0819C19.9865 26.552 20.5755 26.291 20.9791 26.1643C21.0227 26.1489 21.0372 26.1067 21.0263 26.0683C21.019 26.0414 20.9972 26.0184 20.9645 26.0145C20.4627 25.9531 19.7537 25.9339 18.9501 26.1412C17.5794 26.4945 16.7249 27.2931 16.3577 27.6962C16.3432 27.7154 16.336 27.7385 16.3396 27.7577C15.736 27.631 15.136 27.5158 14.5615 27.4275C13.8671 27.32 13.1689 27.27 12.4708 27.2739C12.5726 27.1318 12.6926 26.9859 12.8344 26.8477C13.358 26.3178 13.947 26.0567 14.3506 25.93C14.3942 25.9147 14.4088 25.8724 14.4016 25.8341C14.3943 25.8072 14.3725 25.7841 14.3398 25.7803C13.838 25.7189 13.129 25.6997 12.3254 25.907C10.9546 26.2602 10.1002 27.0589 9.73298 27.462C9.71116 27.4851 9.70751 27.5196 9.71842 27.5503C7.79497 27.8728 6.20967 28.2952 4.9916 28.683C4.88252 28.7175 4.77704 28.7521 4.67523 28.7867C1.54098 29.8156 0.388281 30.7371 0.406461 30.7986L0.41019 30.7871ZM5.3987 30.3724C6.63858 30.2572 7.91492 30.1612 9.22025 30.0844C7.91128 30.1612 6.63495 30.2572 5.3987 30.3724ZM14.4779 29.9078C13.1726 29.9193 11.8928 29.9577 10.642 30.0115C11.8928 29.9577 13.1689 29.9193 14.4779 29.9078C14.7797 29.9078 15.0778 29.904 15.3724 29.904C15.0742 29.904 14.7761 29.904 14.4779 29.9078Z" fill="#312383"/>
<path d="M122.809 23.9565C122.817 23.9834 122.831 24.0065 122.831 24.0065C122.846 24.0256 122.867 24.0487 122.893 24.0717C123.435 24.4557 124.227 24.9625 125.249 25.4232C125.562 25.5653 125.871 25.692 126.176 25.8033C126.176 25.7995 126.18 25.7918 126.183 25.788C126.183 25.788 126.18 25.7995 126.176 25.8033C128.522 26.6634 130.558 26.6672 132.048 26.6557C133.452 26.6442 134.503 26.5444 135.528 26.3524C135.859 26.6903 136.506 27.2393 137.495 27.4927C138.131 27.6578 138.695 27.6425 139.091 27.5926C139.117 27.5926 139.135 27.5695 139.139 27.5503C139.146 27.5196 139.135 27.4851 139.099 27.4735C138.779 27.3699 138.313 27.1625 137.899 26.744C137.622 26.4676 137.448 26.1758 137.335 25.93C138.255 25.6843 139.291 25.3733 140.626 25.0009C140.851 25.2159 141.197 25.4693 141.666 25.5999C142 25.6958 142.298 25.6997 142.531 25.6805C142.553 25.6805 142.567 25.669 142.578 25.6536C142.604 25.619 142.596 25.5653 142.549 25.5461C142.364 25.4655 142.127 25.3311 141.913 25.0892C141.8 24.9663 141.716 24.8358 141.651 24.7168C141.818 24.6707 141.986 24.6246 142.164 24.5785C143.142 24.3213 143.869 24.16 144.215 24.0141C144.465 24.5171 144.865 25.1545 145.494 25.7458C146.872 27.0358 148.483 27.2739 149.276 27.3161C149.29 27.3161 149.305 27.3123 149.312 27.3008C149.334 27.2777 149.33 27.2316 149.294 27.2201C148.821 27.0166 148.032 26.5751 147.436 25.6728C147.421 25.6498 147.407 25.6267 147.392 25.6075C146.741 24.5785 146.771 23.2309 147.458 22.2287C147.461 22.2211 147.465 22.2172 147.469 22.2096C148.076 21.3341 148.825 20.8542 149.33 20.6008C149.356 20.5893 149.363 20.5586 149.356 20.5355C149.349 20.5163 149.33 20.4971 149.305 20.501C148.618 20.6085 147.611 20.8696 146.542 21.53C145.389 22.2403 144.658 23.1195 144.247 23.7031C143.905 23.5956 143.12 23.5265 142.106 23.3192C141.964 23.2923 141.793 23.2462 141.589 23.1963C141.658 23.035 141.764 22.8431 141.927 22.6626C142.142 22.4246 142.378 22.2863 142.564 22.2057C142.607 22.1865 142.615 22.1328 142.589 22.0982C142.578 22.0828 142.564 22.0752 142.542 22.0713C142.309 22.0521 142.007 22.0598 141.677 22.152C141.102 22.3171 140.713 22.6588 140.502 22.8891C139.597 22.6281 138.466 22.294 137.277 21.9869C137.382 21.7142 137.568 21.3533 137.906 21.0116C138.324 20.5931 138.786 20.3858 139.106 20.2821C139.142 20.2706 139.153 20.236 139.146 20.2053C139.139 20.1823 139.124 20.1631 139.099 20.1631C138.702 20.1132 138.139 20.1017 137.502 20.2629C136.415 20.5432 135.739 21.1767 135.448 21.4954C135.434 21.5108 135.43 21.5261 135.434 21.5453C134.954 21.4416 134.481 21.3533 134.023 21.2842C133.474 21.1998 132.921 21.1575 132.365 21.1614C132.445 21.05 132.539 20.9348 132.652 20.8235C133.07 20.405 133.532 20.1976 133.852 20.094C133.885 20.0825 133.899 20.0479 133.892 20.0172C133.885 19.9941 133.87 19.9749 133.845 19.9749C133.448 19.925 132.885 19.9135 132.248 20.0748C131.161 20.3551 130.485 20.9886 130.194 21.3073C130.176 21.3265 130.172 21.3533 130.183 21.3764C128.656 21.6298 127.402 21.9677 126.434 22.2748C126.351 22.3017 126.267 22.3286 126.183 22.3554C123.7 23.1694 122.784 23.8989 122.798 23.9489L122.809 23.9565ZM126.765 23.6263C127.747 23.5342 128.758 23.4574 129.798 23.3998C128.762 23.4612 127.751 23.538 126.765 23.6263ZM133.965 23.2577C132.928 23.2693 131.914 23.2961 130.925 23.3384C131.917 23.2923 132.928 23.2654 133.965 23.2577C134.201 23.2577 134.441 23.2577 134.674 23.2539C134.437 23.2539 134.201 23.2539 133.965 23.2577Z" fill="#312383"/>
<path d="M89.6344 44.4059C89.6489 44.4481 89.6706 44.4865 89.6706 44.4865C89.696 44.5172 89.7289 44.5556 89.7725 44.594C90.6451 45.2122 91.925 46.03 93.5685 46.771C94.0739 47.0014 94.572 47.201 95.0628 47.3815C95.0665 47.3738 95.0702 47.3623 95.0738 47.3546C95.0738 47.3546 95.0665 47.3738 95.0628 47.3815C98.8407 48.7637 102.128 48.7752 104.527 48.756C106.789 48.7407 108.483 48.5794 110.138 48.2684C110.669 48.8136 111.716 49.6967 113.308 50.1076C114.334 50.3725 115.243 50.3494 115.883 50.2688C115.926 50.265 115.952 50.2343 115.963 50.1997C115.974 50.1536 115.955 50.096 115.901 50.0768C115.385 49.9117 114.635 49.5777 113.963 48.9019C113.519 48.4527 113.236 47.9843 113.054 47.5888C114.537 47.1895 116.203 46.6942 118.359 46.0914C118.723 46.437 119.279 46.8439 120.035 47.059C120.573 47.2125 121.057 47.2241 121.431 47.1895C121.464 47.1895 121.489 47.1703 121.508 47.1473C121.548 47.0935 121.537 47.0052 121.464 46.9745C121.162 46.8478 120.784 46.6251 120.439 46.2412C120.257 46.0415 120.122 45.8342 120.017 45.6383C120.286 45.5654 120.559 45.4924 120.842 45.4195C122.417 45.0048 123.595 44.7437 124.147 44.5134C124.555 45.3235 125.198 46.3525 126.213 47.3009C128.434 49.3819 131.03 49.7658 132.307 49.8349C132.332 49.8349 132.354 49.8273 132.368 49.8081C132.401 49.7697 132.397 49.7006 132.339 49.6737C131.576 49.3473 130.307 48.637 129.343 47.178C129.321 47.1434 129.296 47.105 129.274 47.0705C128.227 45.4157 128.274 43.2386 129.383 41.626C129.391 41.6184 129.398 41.6068 129.401 41.5992C130.379 40.1901 131.587 39.4145 132.405 39.0075C132.448 38.9883 132.456 38.9422 132.445 38.9038C132.434 38.8693 132.401 38.8424 132.361 38.8501C131.256 39.0228 129.63 39.4414 127.911 40.5049C126.056 41.6529 124.874 43.0659 124.213 44.0065C123.664 43.8299 122.395 43.7186 120.762 43.3845C120.537 43.3385 120.257 43.2694 119.93 43.1849C120.042 42.9238 120.213 42.6166 120.475 42.3248C120.82 41.9409 121.202 41.7182 121.5 41.5915C121.573 41.5608 121.584 41.4725 121.544 41.4187C121.526 41.3957 121.5 41.3803 121.468 41.3765C121.093 41.3419 120.61 41.3534 120.071 41.507C119.144 41.7719 118.519 42.3248 118.177 42.6934C116.715 42.2711 114.894 41.7336 112.981 41.2383C113.148 40.8005 113.45 40.2169 113.996 39.6679C114.668 38.9921 115.417 38.6581 115.934 38.493C115.988 38.4738 116.01 38.42 115.995 38.3701C115.985 38.3356 115.959 38.3048 115.915 38.301C115.275 38.2242 114.366 38.2012 113.341 38.4623C111.589 38.9115 110.498 39.9366 110.029 40.4511C110.007 40.4742 110 40.5049 110.003 40.5318C109.232 40.3667 108.465 40.2246 107.731 40.1094C106.843 39.975 105.953 39.9059 105.058 39.9098C105.189 39.7293 105.342 39.545 105.524 39.3646C106.196 38.6888 106.945 38.3548 107.462 38.1897C107.516 38.1705 107.538 38.1167 107.523 38.0668C107.513 38.0322 107.487 38.0015 107.444 37.9977C106.804 37.9209 105.895 37.8979 104.869 38.1589C103.117 38.6082 102.026 39.6333 101.557 40.1478C101.528 40.1785 101.524 40.2246 101.539 40.2592C99.0807 40.67 97.0554 41.2114 95.4992 41.7067C95.3611 41.7489 95.2264 41.795 95.0955 41.8372C91.0922 43.1503 89.616 44.3291 89.6415 44.4059H89.6344ZM96.0118 43.876C97.5971 43.7301 99.2262 43.6072 100.899 43.5074C99.2262 43.6034 97.5971 43.7263 96.0118 43.876ZM107.614 43.2847C105.945 43.3001 104.309 43.3461 102.713 43.4191C104.309 43.3461 105.945 43.3039 107.614 43.2847C107.996 43.2847 108.378 43.2809 108.76 43.277C108.382 43.277 108 43.277 107.614 43.2847Z" fill="#312383"/>
<path d="M69.2399 56.7691C69.2508 56.8037 69.269 56.8344 69.269 56.8344C69.2872 56.8574 69.3163 56.8882 69.3491 56.9189C70.0326 57.4027 71.0325 58.04 72.3197 58.6236C72.716 58.8041 73.105 58.9615 73.4868 59.0997C73.4868 59.092 73.4941 59.0844 73.4941 59.0767C73.4941 59.0767 73.4868 59.092 73.4868 59.0997C76.4429 60.1825 79.0136 60.1901 80.8934 60.1786C82.6642 60.1671 83.9912 60.0404 85.282 59.7985C85.6965 60.2247 86.5147 60.9158 87.7654 61.2383C88.569 61.4457 89.278 61.4265 89.7798 61.365C89.8125 61.3612 89.8343 61.3382 89.8416 61.3113C89.8525 61.2729 89.8379 61.2307 89.7906 61.2153C89.387 61.0848 88.8017 60.8237 88.2745 60.2976C87.9254 59.9483 87.7035 59.5797 87.5654 59.2687C88.7253 58.9577 90.0306 58.566 91.7141 58.0976C91.9977 58.3664 92.434 58.685 93.0267 58.854C93.4484 58.973 93.8267 58.9807 94.1212 58.9577C94.1466 58.9577 94.1685 58.9423 94.1794 58.9231C94.2085 58.8809 94.2011 58.8118 94.1466 58.7887C93.9102 58.6889 93.6157 58.5161 93.343 58.2128C93.2012 58.0554 93.0957 57.8941 93.0121 57.7405C93.223 57.6829 93.4375 57.6253 93.6557 57.5678C94.8883 57.2414 95.8083 57.0379 96.2446 56.8574C96.5609 57.491 97.0663 58.2973 97.8589 59.0383C99.597 60.6662 101.63 60.9696 102.629 61.0195C102.651 61.0195 102.666 61.0118 102.677 61.0003C102.702 60.9696 102.698 60.9158 102.655 60.8966C102.059 60.6432 101.062 60.0865 100.31 58.9423C100.292 58.9154 100.273 58.8847 100.255 58.8578C99.4335 57.5601 99.4698 55.8592 100.339 54.596C100.342 54.5883 100.35 54.5806 100.353 54.5729C101.117 53.471 102.062 52.8643 102.702 52.5456C102.735 52.5303 102.742 52.4957 102.731 52.465C102.724 52.4381 102.699 52.4189 102.666 52.4228C101.8 52.5572 100.528 52.8874 99.1825 53.7167C97.7317 54.6152 96.8046 55.7209 96.2882 56.4581C95.8592 56.3199 94.8665 56.2354 93.5866 55.9743C93.4085 55.9398 93.1903 55.886 92.9358 55.8169C93.023 55.6096 93.1577 55.3715 93.3613 55.145C93.6304 54.8455 93.9285 54.6728 94.1649 54.5691C94.223 54.546 94.2303 54.4769 94.1975 54.4347C94.183 54.4155 94.1648 54.404 94.1393 54.4001C93.8448 54.3733 93.4667 54.3848 93.0449 54.5038C92.3177 54.7111 91.8305 55.1412 91.5614 55.433C90.4197 55.1028 88.9907 54.6804 87.4963 54.2926C87.6272 53.9471 87.8635 53.494 88.2926 53.064C88.8161 52.5341 89.4053 52.273 89.8089 52.1463C89.8526 52.131 89.867 52.0887 89.8597 52.0503C89.8524 52.0235 89.8306 52.0004 89.7979 51.9966C89.2962 51.9352 88.5871 51.916 87.7836 52.1233C86.4128 52.4765 85.5584 53.2752 85.1911 53.6783C85.1766 53.6975 85.1694 53.7205 85.173 53.7397C84.5694 53.613 83.9694 53.4979 83.395 53.4095C82.7005 53.302 82.0024 53.2521 81.3042 53.256C81.406 53.1139 81.526 52.968 81.6678 52.8298C82.1914 52.2999 82.7804 52.0388 83.184 51.9121C83.2277 51.8968 83.2422 51.8545 83.2313 51.8161C83.224 51.7893 83.2022 51.7662 83.1695 51.7624C82.6677 51.701 81.9587 51.6818 81.1551 51.8891C79.7843 52.2423 78.9299 53.0409 78.5627 53.4441C78.5409 53.4671 78.5372 53.5017 78.5481 53.5324C76.6247 53.8549 75.0394 54.2773 73.8213 54.6651C73.7122 54.6996 73.6067 54.7342 73.5049 54.7687C70.3707 55.7977 69.2181 56.7192 69.2363 56.7806L69.2399 56.7691ZM74.2286 56.3545C75.4685 56.2393 76.7446 56.1433 78.0499 56.0665C76.741 56.1433 75.4648 56.2393 74.2286 56.3545ZM83.3076 55.8899C82.0023 55.9014 80.7225 55.9398 79.4717 55.9935C80.7225 55.936 81.9986 55.9014 83.3076 55.8899C83.6094 55.8899 83.9075 55.886 84.202 55.886C83.9039 55.886 83.6058 55.886 83.3076 55.8899Z" fill="#312383"/>
<path d="M37.0031 43.9566C37.014 43.9912 37.032 44.0219 37.032 44.0219C37.0502 44.0449 37.0794 44.0756 37.1121 44.1064C37.7957 44.5901 38.7956 45.2275 40.0827 45.8111C40.479 45.9916 40.8681 46.149 41.2498 46.2872C41.2498 46.2795 41.2571 46.2719 41.2571 46.2642C41.2571 46.2642 41.2498 46.2795 41.2498 46.2872C44.2059 47.37 46.7766 47.3776 48.6565 47.3661C50.4272 47.3546 51.7543 47.2279 53.0451 46.986C53.4596 47.4122 54.2777 48.1033 55.5285 48.4258C56.332 48.6332 57.0411 48.614 57.5428 48.5525C57.5756 48.5487 57.5974 48.5257 57.6046 48.4988C57.6155 48.4604 57.6009 48.4181 57.5537 48.4028C57.1501 48.2722 56.5647 48.0112 56.0375 47.4851C55.6884 47.1357 55.4667 46.7672 55.3286 46.4562C56.4885 46.1452 57.7937 45.7535 59.4771 45.2851C59.7608 45.5539 60.1972 45.8725 60.7899 46.0415C61.2117 46.1605 61.5897 46.1682 61.8842 46.1452C61.9097 46.1452 61.9316 46.1298 61.9425 46.1106C61.9716 46.0684 61.9643 45.9993 61.9098 45.9762C61.6735 45.8764 61.3788 45.7036 61.1061 45.4003C60.9643 45.2429 60.8589 45.0816 60.7753 44.928C60.9862 44.8704 61.2007 44.8128 61.4189 44.7552C62.6515 44.4289 63.5713 44.2254 64.0076 44.0449C64.3239 44.6785 64.8295 45.4848 65.6222 46.2258C67.3602 47.8537 69.3926 48.1571 70.3925 48.207C70.4143 48.207 70.429 48.1993 70.4399 48.1878C70.4653 48.1571 70.4617 48.1033 70.418 48.0841C69.8217 47.8307 68.8254 47.274 68.0727 46.1298C68.0546 46.1029 68.0364 46.0722 68.0182 46.0453C67.1965 44.7476 67.2328 43.0466 68.1018 41.7834C68.1055 41.7758 68.1128 41.7681 68.1164 41.7604C68.88 40.6585 69.8253 40.0518 70.4653 39.7331C70.498 39.7178 70.5052 39.6832 70.4979 39.6525C70.487 39.6256 70.4653 39.6064 70.4326 39.6103C69.5672 39.7447 68.2946 40.0749 66.9493 40.9042C65.4985 41.8026 64.5713 42.9084 64.055 43.6456C63.626 43.5074 62.6333 43.4229 61.3534 43.1618C61.1752 43.1273 60.957 43.0735 60.7025 43.0044C60.7898 42.8009 60.9243 42.559 61.1279 42.3325C61.397 42.033 61.6951 41.8564 61.9315 41.7566C61.9896 41.7335 61.997 41.6644 61.9643 41.6222C61.9498 41.603 61.9315 41.5915 61.9061 41.5876C61.6115 41.5607 61.2335 41.5723 60.8117 41.6913C60.0845 41.8986 59.5973 42.3287 59.3282 42.6205C58.1865 42.2903 56.7575 41.8679 55.2631 41.4801C55.394 41.1346 55.6303 40.6815 56.0593 40.2515C56.5829 39.7216 57.1719 39.4605 57.5755 39.3338C57.6191 39.3185 57.6337 39.2762 57.6265 39.2378C57.6192 39.211 57.5974 39.1879 57.5647 39.1841C57.0629 39.1227 56.3539 39.1035 55.5503 39.3108C54.1795 39.664 53.3251 40.4627 52.9579 40.8658C52.9433 40.885 52.936 40.908 52.9396 40.9272C52.336 40.8005 51.7362 40.6853 51.1617 40.597C50.4672 40.4895 49.7691 40.4396 49.071 40.4435C49.1728 40.3014 49.2928 40.1555 49.4346 40.0134C49.9582 39.4836 50.5472 39.2225 50.9508 39.0958C50.9944 39.0804 51.0089 39.0382 50.998 38.9998C50.9907 38.9729 50.969 38.9499 50.9362 38.946C50.4345 38.8846 49.7254 38.8654 48.9219 39.0727C47.5511 39.426 46.6967 40.2246 46.3294 40.6277C46.3076 40.6508 46.304 40.6853 46.3149 40.7161C44.3914 41.0386 42.8061 41.4609 41.5881 41.8487C41.479 41.8833 41.3735 41.9178 41.2717 41.9524C38.1374 42.9814 36.9849 43.9029 37.0031 43.9643V43.9566ZM51.0708 43.0774C49.7655 43.0889 48.4855 43.1273 47.2347 43.181C48.4855 43.1273 49.7618 43.0889 51.0708 43.0774C51.3726 43.0774 51.6707 43.0735 51.9653 43.0735C51.6671 43.0735 51.369 43.0735 51.0708 43.0774Z" fill="#312383"/>
<path d="M138.491 52.012C138.502 52.0465 138.52 52.0772 138.52 52.0772C138.539 52.1003 138.568 52.131 138.601 52.1617C139.284 52.6455 140.284 53.2828 141.571 53.8664C141.967 54.0469 142.357 54.2043 142.738 54.3425C142.738 54.3349 142.746 54.3272 142.746 54.3195C142.746 54.3195 142.738 54.3349 142.738 54.3425C145.694 55.4253 148.265 55.433 150.145 55.4215C151.916 55.4099 153.243 55.2832 154.534 55.0413C154.948 55.4675 155.766 56.1586 157.017 56.4812C157.82 56.6885 158.53 56.6693 159.031 56.6079C159.064 56.604 159.086 56.581 159.093 56.5541C159.104 56.5157 159.089 56.4735 159.046 56.4581C158.642 56.3276 158.057 56.0665 157.53 55.5405C157.181 55.1911 156.959 54.8225 156.821 54.5115C157.98 54.2005 159.286 53.8088 160.969 53.3404C161.253 53.6092 161.689 53.9279 162.282 54.0968C162.704 54.2158 163.082 54.2235 163.376 54.2005C163.402 54.2005 163.424 54.1851 163.434 54.1659C163.464 54.1237 163.456 54.0546 163.402 54.0315C163.165 53.9317 162.871 53.7589 162.598 53.4556C162.456 53.2982 162.351 53.1369 162.267 52.9834C162.478 52.9258 162.693 52.8682 162.911 52.8106C164.144 52.4842 165.063 52.2807 165.5 52.1003C165.816 52.7338 166.322 53.5401 167.114 54.2811C168.852 55.9091 170.885 56.2085 171.885 56.2623C171.906 56.2623 171.921 56.2546 171.932 56.2431C171.957 56.2124 171.954 56.1586 171.91 56.1394C171.31 55.886 170.317 55.3293 169.565 54.1851C169.547 54.1582 169.528 54.1275 169.51 54.1007C168.688 52.8029 168.725 51.102 169.594 49.8388C169.597 49.8311 169.605 49.8234 169.608 49.8157C170.372 48.7138 171.317 48.1072 171.957 47.7885C171.99 47.7731 171.997 47.7347 171.99 47.7078C171.983 47.681 171.957 47.6618 171.925 47.6656C171.059 47.8 169.787 48.1302 168.441 48.9595C166.99 49.858 166.063 50.9638 165.547 51.701C165.118 51.5627 164.125 51.4783 162.845 51.2172C162.667 51.1826 162.449 51.1289 162.195 51.0597C162.282 50.8563 162.416 50.6144 162.62 50.3878C162.889 50.0883 163.187 49.9156 163.424 49.8119C163.482 49.7889 163.489 49.7197 163.456 49.6775C163.442 49.6583 163.424 49.6468 163.398 49.643C163.104 49.6161 162.726 49.6276 162.304 49.7466C161.577 49.954 161.089 50.384 160.82 50.6758C159.678 50.3456 158.249 49.9232 156.755 49.5355C156.886 49.1899 157.122 48.7368 157.551 48.3068C158.075 47.7769 158.664 47.5159 159.068 47.3892C159.111 47.3738 159.126 47.3316 159.118 47.2932C159.111 47.2663 159.089 47.2433 159.057 47.2394C158.555 47.178 157.846 47.1588 157.042 47.3661C155.672 47.7194 154.817 48.518 154.45 48.9211C154.435 48.9403 154.428 48.9634 154.432 48.9826C153.828 48.8559 153.228 48.7407 152.654 48.6524C151.959 48.5449 151.261 48.4949 150.563 48.4988C150.665 48.3567 150.785 48.2108 150.927 48.0726C151.45 47.5427 152.039 47.2816 152.443 47.1549C152.486 47.1396 152.501 47.0974 152.49 47.059C152.483 47.0321 152.461 47.009 152.428 47.0052C151.926 46.9438 151.217 46.9246 150.414 47.1319C149.043 47.4851 148.189 48.2838 147.821 48.6869C147.8 48.71 147.796 48.7445 147.807 48.7752C145.883 49.0977 144.298 49.5201 143.08 49.9079C142.971 49.9424 142.865 49.977 142.764 50.0116C139.629 51.0405 138.477 51.962 138.495 52.0235L138.491 52.012ZM143.48 51.5973C144.72 51.4821 145.996 51.3861 147.301 51.3093C145.992 51.3861 144.716 51.4821 143.48 51.5973ZM152.559 51.1327C151.254 51.1442 149.974 51.1826 148.723 51.2364C149.974 51.1826 151.25 51.1442 152.559 51.1327C152.861 51.1327 153.159 51.1289 153.454 51.1289C153.155 51.1289 152.857 51.1289 152.559 51.1327Z" fill="#312383"/>
<path d="M173.237 35.79C173.252 35.8322 173.274 35.8706 173.274 35.8706C173.299 35.9013 173.332 35.9397 173.375 35.9781C174.248 36.5963 175.528 37.4141 177.171 38.1551C177.677 38.3855 178.175 38.5851 178.666 38.7656C178.669 38.7579 178.673 38.7464 178.677 38.7387C178.677 38.7387 178.669 38.7579 178.666 38.7656C182.444 40.1478 185.73 40.1593 188.13 40.1401C190.392 40.1248 192.086 39.9635 193.741 39.6525C194.272 40.1977 195.319 41.0808 196.911 41.4916C197.94 41.7566 198.846 41.7335 199.486 41.6529C199.529 41.6491 199.555 41.6184 199.566 41.5838C199.577 41.5377 199.558 41.4801 199.504 41.4609C198.988 41.2958 198.238 40.9618 197.566 40.286C197.122 39.8368 196.839 39.3684 196.657 38.9729C198.14 38.5736 199.806 38.0783 201.962 37.4755C202.325 37.8211 202.882 38.2281 203.638 38.4431C204.176 38.5967 204.66 38.6082 205.034 38.5736C205.067 38.5736 205.092 38.5544 205.111 38.5314C205.151 38.4776 205.14 38.3893 205.067 38.3586C204.765 38.2319 204.387 38.0092 204.042 37.6253C203.86 37.4256 203.725 37.2183 203.62 37.0224C203.889 36.9495 204.161 36.8765 204.445 36.8036C206.02 36.3889 207.198 36.1278 207.75 35.8936C208.157 36.7038 208.801 37.7328 209.816 38.6811C212.037 40.7621 214.633 41.1461 215.909 41.2152C215.935 41.2152 215.957 41.2075 215.971 41.1883C216.004 41.1499 216 41.0808 215.942 41.0539C215.179 40.7276 213.91 40.0173 212.946 38.5583C212.924 38.5237 212.899 38.4853 212.877 38.4507C211.83 36.7959 211.877 34.6189 212.986 33.0063C212.993 32.9986 213.001 32.9871 213.004 32.9794C213.982 31.5703 215.189 30.7947 216.008 30.3877C216.051 30.3685 216.059 30.3225 216.048 30.2841C216.037 30.2495 216.004 30.2226 215.964 30.2303C214.859 30.4031 213.233 30.8216 211.513 31.8852C209.659 33.0332 208.477 34.4461 207.816 35.3868C207.267 35.2102 205.998 35.0988 204.365 34.7648C204.14 34.7187 203.86 34.6496 203.533 34.5651C203.645 34.3041 203.816 33.9969 204.078 33.7051C204.423 33.3211 204.805 33.0985 205.103 32.9717C205.176 32.941 205.187 32.8527 205.147 32.799C205.129 32.7759 205.103 32.7606 205.071 32.7567C204.696 32.7222 204.212 32.7337 203.674 32.8873C202.747 33.1522 202.122 33.7013 201.78 34.0737C200.318 33.6513 198.497 33.1138 196.584 32.6185C196.751 32.177 197.053 31.5972 197.598 31.0481C198.271 30.3724 199.02 30.0383 199.536 29.8732C199.591 29.8541 199.613 29.8003 199.598 29.7504C199.587 29.7158 199.562 29.6851 199.518 29.6813C198.878 29.6045 197.969 29.5814 196.944 29.8425C195.191 30.2917 194.101 31.3169 193.632 31.8314C193.61 31.8544 193.602 31.8852 193.606 31.912C192.835 31.7469 192.068 31.6049 191.334 31.4897C190.446 31.3553 189.556 31.2862 188.661 31.29C188.792 31.1096 188.945 30.9253 189.127 30.7448C189.799 30.0691 190.548 29.735 191.065 29.5699C191.119 29.5507 191.141 29.497 191.126 29.4471C191.116 29.4125 191.09 29.3818 191.046 29.3779C190.406 29.3012 189.497 29.2781 188.472 29.5392C186.719 29.9884 185.629 31.0136 185.16 31.5281C185.131 31.5588 185.127 31.6049 185.142 31.6394C182.684 32.0503 180.658 32.5916 179.102 33.0869C178.964 33.1292 178.829 33.1752 178.698 33.2175C174.695 34.5306 173.219 35.7093 173.244 35.7861L173.237 35.79ZM179.615 35.2601C181.2 35.1142 182.829 34.9913 184.502 34.8915C182.829 34.9875 181.2 35.1104 179.615 35.2601ZM191.217 34.6688C189.548 34.6842 187.912 34.7302 186.316 34.8032C187.912 34.7302 189.548 34.688 191.217 34.6688C191.599 34.6688 191.981 34.665 192.363 34.6611C191.984 34.6611 191.603 34.6611 191.217 34.6688Z" fill="#312383"/>
<path d="M150.225 18.0091C150.236 18.0437 150.254 18.0744 150.254 18.0744C150.272 18.0974 150.301 18.1281 150.334 18.1588C151.018 18.6426 152.017 19.28 153.305 19.8636C153.701 20.0441 154.09 20.2015 154.472 20.3397C154.472 20.332 154.479 20.3243 154.479 20.3167C154.479 20.3167 154.472 20.332 154.472 20.3397C157.428 21.4224 159.999 21.4301 161.878 21.4186C163.649 21.4071 164.976 21.2804 166.267 21.0385C166.681 21.4647 167.5 22.1558 168.75 22.4783C169.554 22.6856 170.263 22.6665 170.765 22.605C170.797 22.6012 170.819 22.5781 170.827 22.5513C170.837 22.5129 170.823 22.4706 170.776 22.4553C170.372 22.3247 169.787 22.0637 169.259 21.5376C168.91 21.1882 168.688 20.8196 168.55 20.5086C169.71 20.1976 171.016 19.806 172.699 19.3376C172.983 19.6063 173.419 19.925 174.012 20.094C174.433 20.213 174.812 20.2207 175.106 20.1976C175.132 20.1976 175.153 20.1823 175.164 20.1631C175.193 20.1208 175.186 20.0517 175.132 20.0287C174.895 19.9289 174.601 19.7561 174.328 19.4528C174.186 19.2953 174.081 19.1341 173.997 18.9805C174.208 18.9229 174.422 18.8653 174.641 18.8077C175.873 18.4814 176.793 18.2779 177.23 18.0974C177.546 18.7309 178.051 19.5372 178.844 20.2783C180.582 21.9062 182.614 22.2057 183.614 22.2595C183.636 22.2595 183.651 22.2518 183.662 22.2403C183.687 22.2095 183.683 22.1558 183.64 22.1366C183.043 21.8832 182.047 21.3265 181.295 20.1823C181.276 20.1554 181.258 20.1247 181.24 20.0978C180.418 18.8001 180.455 17.0991 181.324 15.8359C181.327 15.8283 181.335 15.8206 181.338 15.8129C182.102 14.711 183.047 14.1043 183.687 13.7856C183.72 13.7703 183.727 13.7357 183.716 13.705C183.709 13.6781 183.683 13.6589 183.651 13.6628C182.785 13.7971 181.513 14.1273 180.167 14.9567C178.717 15.8551 177.79 16.9609 177.273 17.6981C176.844 17.5599 175.851 17.4754 174.572 17.2143C174.393 17.1798 174.175 17.126 173.921 17.0569C174.008 16.8496 174.143 16.6115 174.346 16.385C174.615 16.0855 174.913 15.9089 175.15 15.8091C175.208 15.786 175.215 15.7169 175.182 15.6747C175.168 15.6555 175.15 15.644 175.124 15.6401C174.83 15.6132 174.452 15.6248 174.03 15.7438C173.303 15.9511 172.815 16.3811 172.546 16.673C171.405 16.3428 169.976 15.9204 168.481 15.5326C168.612 15.1871 168.848 14.734 169.277 14.304C169.801 13.7741 170.39 13.513 170.794 13.3863C170.838 13.371 170.852 13.3287 170.845 13.2903C170.837 13.2635 170.816 13.2404 170.783 13.2366C170.281 13.1751 169.572 13.1559 168.768 13.3633C167.398 13.7165 166.543 14.5151 166.176 14.9183C166.162 14.9375 166.154 14.9605 166.158 14.9797C165.554 14.853 164.954 14.7378 164.38 14.6495C163.685 14.542 162.987 14.4921 162.289 14.4959C162.391 14.3539 162.511 14.208 162.653 14.0698C163.176 13.5399 163.765 13.2788 164.169 13.1521C164.213 13.1367 164.227 13.0945 164.216 13.0561C164.209 13.0292 164.187 13.0062 164.154 13.0024C163.653 12.9409 162.944 12.9217 162.14 13.1291C160.769 13.4823 159.915 14.2809 159.548 14.6841C159.526 14.7071 159.522 14.7417 159.533 14.7724C157.61 15.0949 156.024 15.5173 154.806 15.905C154.697 15.9396 154.592 15.9742 154.49 16.0087C151.356 17.0377 150.203 17.9592 150.221 18.0206L150.225 18.0091ZM155.214 17.5944C156.453 17.4792 157.73 17.3833 159.035 17.3065C157.726 17.3833 156.45 17.4792 155.214 17.5944ZM164.293 17.1299C162.987 17.1414 161.707 17.1798 160.457 17.2335C161.707 17.1759 162.984 17.1414 164.293 17.1299C164.594 17.1299 164.892 17.126 165.187 17.126C164.889 17.126 164.591 17.126 164.293 17.1299Z" fill="#312383"/>
<path d="M117.984 5.1966C117.995 5.23116 118.013 5.26188 118.013 5.26188C118.032 5.28492 118.061 5.31563 118.093 5.34635C118.777 5.83013 119.777 6.46749 121.064 7.0511C121.46 7.23156 121.849 7.38897 122.231 7.5272C122.231 7.51952 122.239 7.51184 122.239 7.50416C122.239 7.50416 122.231 7.51952 122.231 7.5272C125.187 8.60994 127.758 8.61762 129.638 8.6061C131.408 8.59458 132.736 8.46788 134.026 8.22599C134.441 8.65218 135.259 9.3433 136.51 9.66582C137.313 9.87315 138.022 9.85395 138.524 9.79251C138.557 9.78868 138.579 9.76564 138.586 9.73877C138.597 9.70037 138.582 9.65814 138.535 9.64278C138.131 9.51224 137.546 9.25114 137.019 8.72513C136.67 8.37573 136.448 8.00714 136.31 7.69614C137.47 7.38514 138.775 6.99351 140.459 6.52509C140.742 6.79385 141.178 7.11253 141.771 7.28147C142.193 7.4005 142.571 7.40817 142.866 7.38514C142.891 7.38514 142.913 7.36978 142.924 7.35058C142.953 7.30835 142.946 7.23923 142.891 7.2162C142.655 7.11637 142.36 6.94359 142.087 6.64027C141.946 6.48285 141.84 6.32158 141.757 6.168C141.967 6.11041 142.182 6.05282 142.4 5.99523C143.633 5.66887 144.553 5.46537 144.989 5.28492C145.305 5.91844 145.811 6.72473 146.603 7.46576C148.341 9.09372 150.374 9.39705 151.374 9.44696C151.396 9.44696 151.41 9.43929 151.421 9.42777C151.447 9.39705 151.443 9.34329 151.399 9.32409C150.803 9.07068 149.807 8.51395 149.054 7.36977C149.036 7.3429 149.018 7.31218 148.999 7.2853C148.178 5.98754 148.214 4.28664 149.083 3.02344C149.087 3.01576 149.094 3.00807 149.098 3.00039C149.861 1.89845 150.807 1.2918 151.447 0.973123C151.479 0.957765 151.487 0.923213 151.476 0.892497C151.465 0.86562 151.443 0.846428 151.41 0.850267C150.545 0.984651 149.272 1.31485 147.927 2.14419C146.476 3.04263 145.549 4.14841 145.033 4.8856C144.604 4.74738 143.611 4.66292 142.331 4.40183C142.153 4.36727 141.935 4.31352 141.68 4.24441C141.767 4.04091 141.902 3.79902 142.106 3.57249C142.375 3.27301 142.673 3.09639 142.909 2.99656C142.967 2.97352 142.975 2.90441 142.942 2.86218C142.927 2.84298 142.909 2.83146 142.884 2.82762C142.589 2.80074 142.211 2.81226 141.789 2.93128C141.062 3.13862 140.575 3.56865 140.306 3.86045C139.164 3.53026 137.735 3.10791 136.241 2.72011C136.372 2.37456 136.608 1.92149 137.037 1.49146C137.561 0.961607 138.15 0.700525 138.553 0.573821C138.597 0.558463 138.611 0.516228 138.601 0.477833C138.593 0.450956 138.572 0.427913 138.539 0.424074C138.037 0.362641 137.328 0.34345 136.524 0.550785C135.154 0.904021 134.299 1.70264 133.932 2.10579C133.917 2.12499 133.91 2.14802 133.914 2.16722C133.31 2.04052 132.71 1.92533 132.136 1.83702C131.441 1.72951 130.743 1.6796 130.045 1.68344C130.147 1.54138 130.267 1.39548 130.409 1.25726C130.932 0.727402 131.521 0.466308 131.925 0.339604C131.968 0.324246 131.983 0.282011 131.972 0.243616C131.965 0.216739 131.943 0.193708 131.91 0.189868C131.408 0.128436 130.7 0.109233 129.896 0.316568C128.525 0.669804 127.671 1.46843 127.303 1.87158C127.282 1.89462 127.278 1.92917 127.289 1.95988C125.365 2.2824 123.78 2.70476 122.562 3.09255C122.453 3.1271 122.348 3.16166 122.246 3.19621C119.112 4.2252 117.959 5.14669 117.977 5.20812L117.984 5.1966ZM132.052 4.31736C130.747 4.32888 129.467 4.36727 128.216 4.42102C129.467 4.36727 130.743 4.32888 132.052 4.31736C132.354 4.31736 132.652 4.31352 132.946 4.31352C132.648 4.31352 132.35 4.31352 132.052 4.31736Z" fill="#312383"/>
<path d="M76.1628 6.8284C76.1737 6.86296 76.1919 6.89368 76.1919 6.89368C76.2101 6.91672 76.2393 6.94743 76.272 6.97815C76.9556 7.46193 77.9555 8.09929 79.2426 8.6829C79.6389 8.86336 80.028 9.02077 80.4098 9.159C80.4098 9.15132 80.417 9.14364 80.417 9.13596C80.417 9.13596 80.4098 9.15132 80.4098 9.159C83.3658 10.2417 85.9365 10.2494 87.8164 10.2379C89.5871 10.2264 90.9142 10.0997 92.205 9.85779C92.6195 10.284 93.4376 10.9751 94.6884 11.2976C95.492 11.5049 96.201 11.4857 96.7028 11.4243C96.7355 11.4205 96.7573 11.3974 96.7645 11.3706C96.7755 11.3322 96.7609 11.2899 96.7173 11.2746C96.3137 11.144 95.7282 10.8829 95.201 10.3569C94.8519 10.0075 94.6302 9.63894 94.492 9.32794C95.6519 9.01693 96.9571 8.62531 98.6406 8.15689C98.9242 8.42565 99.3607 8.74433 99.9533 8.91327C100.375 9.0323 100.753 9.03997 101.048 9.01693C101.073 9.01693 101.095 9.00158 101.106 8.98238C101.135 8.94015 101.128 8.87103 101.073 8.84799C100.837 8.74817 100.542 8.57539 100.27 8.27207C100.128 8.11465 100.022 7.95338 99.9388 7.7998C100.15 7.74221 100.364 7.68462 100.582 7.62703C101.815 7.30067 102.735 7.09717 103.171 6.91671C103.488 7.55024 103.993 8.35653 104.786 9.09756C106.524 10.7255 108.556 11.0288 109.556 11.0788C109.578 11.0788 109.592 11.0711 109.603 11.0596C109.629 11.0288 109.625 10.9751 109.581 10.9559C108.985 10.7025 107.989 10.1458 107.236 9.00157C107.218 8.9747 107.2 8.94398 107.182 8.9171C106.36 7.61934 106.396 5.91844 107.265 4.65524C107.269 4.64756 107.276 4.63987 107.28 4.63219C108.043 3.53025 108.989 2.9236 109.629 2.60492C109.661 2.58956 109.669 2.55501 109.661 2.5243C109.65 2.49742 109.629 2.47823 109.596 2.48207C108.731 2.61645 107.458 2.94665 106.113 3.77598C104.662 4.67443 103.735 5.78021 103.218 6.5174C102.789 6.37918 101.797 6.29472 100.517 6.03363C100.339 5.99907 100.121 5.94532 99.866 5.87621C99.9533 5.67271 100.088 5.43082 100.291 5.20429C100.56 4.90481 100.859 4.72819 101.095 4.62836C101.153 4.60532 101.16 4.53621 101.128 4.49397C101.113 4.47478 101.095 4.46326 101.07 4.45942C100.775 4.43254 100.397 4.44406 99.9752 4.56308C99.248 4.77042 98.7607 5.20045 98.4917 5.49225C97.3499 5.16205 95.9209 4.73971 94.4265 4.35191C94.5574 4.00636 94.7937 3.55329 95.2228 3.12326C95.7464 2.59341 96.3354 2.33232 96.739 2.20562C96.7826 2.19026 96.7972 2.14803 96.7899 2.10963C96.7827 2.08275 96.7609 2.05971 96.7281 2.05587C96.2264 1.99444 95.5173 1.97525 94.7138 2.18258C93.343 2.53582 92.4886 3.33444 92.1213 3.73759C92.1068 3.75678 92.0994 3.77982 92.1031 3.79902C91.4995 3.67232 90.8997 3.55712 90.3252 3.46882C89.6307 3.36131 88.9326 3.3114 88.2345 3.31524C88.3363 3.17317 88.4563 3.02728 88.5981 2.88905C89.1217 2.3592 89.7107 2.09811 90.1143 1.9714C90.1579 1.95604 90.1724 1.91381 90.1615 1.87541C90.1542 1.84854 90.1324 1.82551 90.0997 1.82167C89.5979 1.76023 88.8889 1.74103 88.0853 1.94837C86.7146 2.3016 85.8601 3.10023 85.4929 3.50338C85.4711 3.52642 85.4674 3.56097 85.4783 3.59168C83.5549 3.9142 81.9696 4.33656 80.7515 4.72435C80.6424 4.7589 80.537 4.79345 80.4352 4.82801C77.3009 5.857 76.1484 6.77849 76.1666 6.83992L76.1628 6.8284ZM81.1515 6.41374C82.3914 6.29855 83.6676 6.20256 84.9729 6.12577C83.6639 6.20256 82.3914 6.29855 81.1515 6.41374ZM90.2306 5.94916C88.9252 5.96068 87.6454 5.99907 86.3946 6.05282C87.6454 5.99523 88.9216 5.96068 90.2306 5.94916C90.5323 5.94916 90.8305 5.94531 91.125 5.94531C90.8268 5.94531 90.5287 5.94532 90.2306 5.94916Z" fill="#312383"/>
<path d="M43.9914 25.4693C44.0132 25.5346 44.0496 25.5922 44.0496 25.5922C44.086 25.6421 44.1404 25.6958 44.2058 25.7573C45.5439 26.7018 47.5073 27.9573 50.0235 29.0938C50.7979 29.4432 51.5616 29.7542 52.3143 30.0307C52.3215 30.0153 52.3251 30.0038 52.3324 29.9884C52.3324 29.9884 52.3215 30.0153 52.3143 30.0307C58.1064 32.1501 63.1423 32.1654 66.8219 32.1424C70.2907 32.1194 72.8868 31.8698 75.4211 31.3975C76.2355 32.2307 77.8391 33.5899 80.2825 34.2157C81.8568 34.6189 83.2495 34.5843 84.2276 34.4653C84.293 34.4576 84.333 34.4116 84.3476 34.3578C84.3658 34.2849 84.3366 34.1966 84.253 34.1697C83.4639 33.9163 82.3149 33.4056 81.2859 32.3689C80.6023 31.6817 80.1698 30.9637 79.8935 30.357C82.1696 29.7465 84.722 28.9825 88.0235 28.0648C88.5835 28.5947 89.4343 29.2205 90.5941 29.5469C91.4195 29.7811 92.1613 29.7964 92.7358 29.7465C92.7867 29.7427 92.8266 29.7158 92.8521 29.6813C92.9103 29.6006 92.8957 29.4624 92.783 29.4163C92.3213 29.2205 91.7395 28.8826 91.2086 28.2914C90.9323 27.9842 90.7215 27.6655 90.5615 27.366C90.9724 27.2547 91.394 27.1433 91.8231 27.0282C94.2374 26.3908 96.041 25.9915 96.8918 25.6344C97.5136 26.8784 98.5025 28.4565 100.055 29.9078C103.462 33.0984 107.44 33.6859 109.4 33.7934C109.44 33.7934 109.472 33.778 109.494 33.755C109.545 33.6974 109.538 33.5899 109.451 33.5515C108.28 33.0524 106.331 31.9619 104.858 29.7235C104.822 29.6697 104.785 29.6122 104.753 29.5584C103.146 27.0205 103.218 23.6801 104.916 21.2113C104.927 21.1959 104.935 21.1844 104.946 21.169C106.444 19.0112 108.294 17.821 109.549 17.1951C109.614 17.1644 109.629 17.0953 109.611 17.0377C109.592 16.9878 109.545 16.9456 109.48 16.9571C107.785 17.2258 105.295 17.8632 102.655 19.495C99.8078 21.2535 98.0008 23.419 96.9827 24.8627C96.1428 24.5939 94.1975 24.425 91.6887 23.9105C91.3433 23.8414 90.9105 23.7338 90.4123 23.6033C90.5832 23.2001 90.8451 22.7317 91.2487 22.2825C91.7796 21.6912 92.3612 21.3533 92.823 21.1575C92.9357 21.1114 92.9504 20.9732 92.8922 20.8926C92.8668 20.858 92.8267 20.8312 92.7758 20.8273C92.2013 20.7774 91.4596 20.7928 90.6343 21.027C89.2126 21.4301 88.2526 22.2787 87.729 22.8469C85.4892 22.198 82.6932 21.3725 79.7662 20.6123C80.0243 19.9366 80.486 19.0458 81.3223 18.2011C82.3513 17.1644 83.5003 16.6538 84.2894 16.4003C84.3766 16.3735 84.4056 16.2852 84.3838 16.2122C84.3693 16.1584 84.3294 16.1124 84.264 16.1047C83.2822 15.9857 81.8932 15.9473 80.3188 16.3543C77.6318 17.0415 75.9628 18.6119 75.2393 19.4028C75.2065 19.4374 75.1957 19.4835 75.1993 19.5257C74.014 19.2761 72.8431 19.0535 71.716 18.8807C70.3597 18.6733 68.9891 18.5697 67.6219 18.5774C67.8219 18.2971 68.0582 18.0168 68.3346 17.7403C69.3636 16.7037 70.5124 16.193 71.3014 15.9396C71.3851 15.9127 71.4179 15.8244 71.3961 15.7515C71.3815 15.6977 71.3415 15.6516 71.276 15.644C70.2943 15.5249 68.9053 15.4865 67.3309 15.8935C64.6439 16.5808 62.9751 18.1512 62.2515 18.9421C62.2079 18.992 62.2005 19.0573 62.2259 19.1111C58.4554 19.7407 55.354 20.5701 52.9651 21.3265C52.7542 21.3917 52.5469 21.4608 52.3469 21.5261C46.2057 23.5419 43.9441 25.3426 43.9841 25.4655L43.9914 25.4693ZM53.7687 24.6553C56.1975 24.4288 58.6955 24.2407 61.2589 24.0909C58.6955 24.2368 56.1975 24.4288 53.7687 24.6553ZM71.556 23.7492C72.1451 23.7454 72.7305 23.7415 73.3122 23.7415C72.7305 23.7415 72.1451 23.7415 71.556 23.7492Z" fill="#312383"/>
</svg>
