<svg width="72" height="118" viewBox="0 0 72 118" fill="none" xmlns="http://www.w3.org/2000/svg">
<path d="M27.607 62.1956C27.6434 62.1956 27.6761 62.1918 27.7125 62.1879C27.7198 62.1802 27.727 62.1687 27.7379 62.1611C27.727 62.1726 27.7198 62.1802 27.7125 62.1879C28.6033 62.2685 29.0033 62.0305 29.2033 61.7848C29.6105 61.2857 29.2214 60.7251 29.585 59.6615C29.8759 58.8092 30.2685 58.7477 30.3522 58.1449C30.414 57.6842 30.2795 57.0122 29.3959 56.0907C29.3959 56.0946 29.3959 56.0984 29.3959 56.1023C29.3923 56.0984 29.385 56.0907 29.3814 56.0869C28.2506 55.0003 26.7052 56.5208 23.8001 55.7951C22.0875 55.3689 20.8658 54.4014 20.3132 53.956C18.9642 52.8656 19.037 52.3549 17.6662 51.0034C16.9427 50.2892 16.1063 49.4676 15.0919 48.8878C15.1937 48.9415 15.2919 48.9915 15.3864 49.0452C16.0009 48.7841 18.0515 47.855 18.6732 46.4842C18.7387 46.3422 18.7932 46.1886 18.7932 46.1886C18.9241 45.8431 19.2732 44.8103 18.9605 43.5547C18.7169 42.5757 18.1898 41.9613 17.888 41.6234C17.6662 41.3739 17.4444 41.1742 17.2371 41.0091C17.2371 41.0091 17.2371 41.0091 17.2371 41.0053C17.1389 40.9246 17.0335 40.844 16.9245 40.7672C16.8517 40.7173 16.7753 40.6751 16.699 40.6443C16.6881 40.6367 16.6772 40.629 16.6663 40.6251C16.6663 40.6251 16.6662 40.6328 16.6699 40.6328C16.3354 40.51 15.9572 40.5637 15.6627 40.7941C15.0627 41.2664 14.1064 41.7348 12.8993 42.4105C12.0521 42.8866 10.8014 42.4681 9.77601 42.0765C9.52876 41.9844 9.28143 41.9882 9.05963 42.0688C9.05236 42.0688 9.04507 42.0688 9.0378 42.0727C9.0378 42.0727 9.03433 42.0765 9.03069 42.0803C8.59437 42.2493 8.27433 42.71 8.3216 43.2591C8.40159 44.1959 8.4161 45.2518 7.9216 45.7125C7.49619 46.108 6.68529 46.0389 5.94718 45.9122C5.64539 45.8584 5.36179 45.9429 5.13636 46.1118C5.12545 46.1118 5.11824 46.1118 5.11097 46.1195C5.1037 46.1233 5.0965 46.1349 5.09286 46.1464C4.78744 46.3998 4.61279 46.8221 4.69641 47.2714C4.84186 48.0431 4.92193 48.8955 4.50378 49.387C3.97293 50.009 3.02028 50.3545 2.21672 50.5695C1.54042 50.7538 1.19857 51.5486 1.5149 52.2013C2.2821 53.7909 2.72939 54.6663 2.39852 56.0869C2.18036 57.0199 1.45678 57.162 1.47496 58.1103C1.48223 58.598 1.67866 58.7208 2.01681 59.5579C2.40586 60.5177 2.71123 61.3586 2.68578 62.3876C2.6785 62.641 2.67483 63.0173 2.55848 63.5011C2.35486 64.3381 2.04212 64.5569 2.14392 64.9486C2.19119 65.129 2.28948 65.2173 2.62399 65.4515C2.56218 65.8431 2.43858 66.2847 2.19861 66.7263C1.78774 67.4865 1.21689 67.9395 0.75148 68.2045C0.555136 68.3158 0.420489 68.5039 0.362313 68.7151C0.344133 68.7842 0.333197 68.8534 0.333197 68.9263C0.333197 69.0338 0.34779 69.1413 0.384151 69.2488C0.511411 69.6021 0.595054 70.0666 0.489609 70.5927C0.467793 70.7117 0.438648 70.8038 0.431376 70.8307C0.304116 71.2377 0.144138 71.349 0.165954 71.4489C0.165954 71.7099 0.198771 72.0901 0.351483 72.5086C0.631456 73.2726 1.07139 73.3187 1.14047 73.9407C1.15138 74.0444 1.2386 74.9083 0.733194 75.4842C0.445949 75.8106 0.151495 75.8374 0.162403 75.9142C0.162403 75.9219 0.16969 75.9296 0.176962 75.9411C0.191506 75.9526 0.206085 75.9641 0.213357 75.9641C0.511511 76.1177 2.07856 76.1907 4.04928 75.8144C4.0711 75.8413 4.09298 75.8682 4.11479 75.8989C4.37295 76.2598 4.44196 76.6246 4.4965 76.9087C4.77648 78.3792 3.75847 79.8152 3.66757 79.9419C3.16217 80.6368 2.80219 80.706 2.74401 81.2205C2.68583 81.7388 3.14757 81.8348 3.25302 82.6372C3.28574 82.8753 3.24199 82.8292 3.22017 83.9158C3.2129 84.3689 3.20926 84.5954 3.22017 84.7912C3.27108 85.5553 3.42025 85.5975 3.41298 86.0391C3.39844 86.853 2.8931 87.1026 3.03127 87.5211C3.14399 87.8628 3.54391 87.6939 4.08568 88.0932C4.28566 88.2391 4.34374 88.3428 5.07457 89.5753C5.6927 90.6158 5.73639 90.6849 5.77639 90.8884C5.90001 91.5065 5.72546 91.9827 5.93635 92.1017C6.10361 92.1977 6.2782 92.0326 6.63817 91.9328C7.28174 91.7561 7.98716 91.9673 8.39439 92.2706C9.08887 92.7889 8.90703 93.5761 9.35062 93.7527C9.66695 93.8794 10.2306 93.6605 11.2959 92.2706C11.2123 92.2476 11.1286 92.2245 11.0413 92.2015C10.9432 92.1785 10.8486 92.1554 10.7541 92.1324C10.7541 92.1324 10.7541 92.1401 10.7468 92.1401C10.7468 92.1401 10.7504 92.1362 10.7541 92.1324C10.6741 92.1093 10.5904 92.0825 10.5068 92.0556C10.834 92.1516 11.1214 92.2168 11.3504 92.2706C11.6922 92.3474 11.9613 92.3897 12.0922 92.4089C12.8194 92.524 14.6991 92.7698 16.8698 91.9328C17.5243 91.6794 19.0551 91.0688 20.3895 89.5023C20.7677 89.0608 21.4839 88.2046 21.9203 86.8416C22.1239 86.2119 22.6184 84.5954 22.0476 82.6987C21.9021 82.2149 21.313 80.2491 19.415 79.2431C19.055 79.0511 17.5062 78.2564 15.7609 78.9168C15.39 79.055 14.2156 79.5003 13.572 80.8019C13.4556 81.0323 12.6994 82.6296 13.5102 84.0924C13.6556 84.3574 13.8592 84.6261 14.1028 84.8603C14.5719 85.3096 15.1936 85.6398 15.8772 85.5745C16.9207 85.4785 17.7826 84.5225 17.6589 84.2038C17.6335 84.1347 17.5644 84.104 17.4626 84.0886C17.4553 84.0886 17.448 84.0886 17.4408 84.0886C16.0845 84.5609 14.8482 84.5263 14.5137 83.9465C14.0773 83.1863 15.081 81.3241 16.5245 81.017C17.7971 80.7444 18.9314 81.781 19.4296 82.7025C20.1931 84.1232 19.6369 85.6206 19.4951 85.97C18.5933 88.1662 16.0809 88.5924 15.5391 88.6653C15.121 88.7229 12.0339 89.0838 10.6559 86.7456C9.61599 84.9794 10.2124 82.7831 10.9105 81.6236C11.0632 81.3663 11.234 81.1629 11.5722 80.7559C11.7649 80.5255 11.9576 80.3105 12.1467 80.107H12.154C12.154 80.107 12.1539 80.107 12.1502 80.107C13.1865 78.9935 14.0992 78.337 14.3901 78.1219C14.561 77.9952 14.75 77.8532 14.9536 77.6958C15.7135 77.1122 16.6699 76.3212 17.488 75.346C18.2879 74.3938 18.9533 73.2688 19.1751 71.9864C19.5097 70.0321 18.8551 67.4059 17.2916 65.9545C16.1572 64.9025 14.9137 64.8103 14.5392 63.5394C14.5101 63.4435 14.1647 62.1534 14.761 61.2166C14.9537 60.9132 15.2337 60.6598 16.7281 60.2758C17.099 60.1799 17.5426 60.0762 18.0771 59.9649C19.9641 59.5617 20.9276 59.3621 21.7857 59.4811C23.1056 59.6615 24.1092 60.2067 24.48 60.4256C25.0872 60.7827 25.3454 61.2549 26.2071 61.708C26.8325 62.0343 27.1706 62.211 27.596 62.1918L27.607 62.1956ZM28.4651 61.1321C28.4833 61.0975 28.505 61.0629 28.5196 61.0284C28.6323 60.8057 28.7196 60.5984 28.785 60.4064C28.745 60.6713 28.6141 60.8441 28.5196 61.0284C28.5014 61.0629 28.4833 61.0975 28.4651 61.1321ZM20.2622 84.3689C20.2622 84.342 20.2549 84.3151 20.2549 84.2921C20.2549 84.3151 20.2622 84.342 20.2622 84.365C20.2622 84.365 20.2622 84.365 20.2622 84.3689ZM20.2223 84.0655C20.2295 84.1116 20.2367 84.1539 20.2404 84.2C20.2331 84.1539 20.2295 84.1116 20.2223 84.0655ZM14.43 68.5692C14.43 68.5692 14.43 68.5692 14.43 68.5731C14.4228 68.5462 14.4119 68.5193 14.4046 68.4924C14.4083 68.504 14.4119 68.5193 14.4192 68.5308C14.4228 68.5462 14.4265 68.5577 14.4338 68.5692H14.43ZM14.7283 70.3968C14.7283 70.3738 14.7283 70.3508 14.7283 70.3316C14.7283 70.3546 14.7283 70.3776 14.7283 70.3968ZM14.7246 70.201C14.7246 70.1741 14.7247 70.1511 14.721 70.1242C14.721 70.1511 14.7209 70.1741 14.7246 70.201ZM14.7137 70.009C14.7137 69.9822 14.7101 69.9553 14.7065 69.9284C14.7065 69.9553 14.7101 69.9822 14.7137 70.009ZM9.2306 80.4065C9.49967 79.6232 9.80875 78.8937 10.0705 78.2679C9.77239 79.0089 9.48512 79.7231 9.2306 80.4065ZM12.0922 61.0322C12.0922 61.0322 12.074 61.0438 12.0631 61.0476C12.074 61.0399 12.0848 61.0361 12.0957 61.0284C12.0957 61.0284 12.0958 61.0284 12.0922 61.0284V61.0322ZM11.1468 62.0152C11.1577 61.9883 11.1685 61.9614 11.1795 61.9383C11.1685 61.9652 11.1577 61.9921 11.1468 62.0152ZM11.1905 61.9115C11.1905 61.9115 11.2049 61.8769 11.2159 61.8577C11.2086 61.8769 11.1977 61.8923 11.1905 61.9115ZM11.234 61.827C11.234 61.827 11.2523 61.7963 11.2595 61.781C11.2523 61.7963 11.2412 61.8117 11.234 61.827ZM11.2814 61.7464C11.2814 61.7464 11.2994 61.7157 11.3103 61.7041C11.2994 61.7195 11.2923 61.7348 11.2814 61.7464ZM11.3321 61.6696C11.3321 61.6696 11.3503 61.6427 11.3613 61.6274C11.3503 61.6427 11.3394 61.6542 11.3321 61.6696ZM11.3904 61.5928C11.3904 61.5928 11.4121 61.5659 11.423 61.5544C11.4121 61.5659 11.4013 61.5813 11.3904 61.5928ZM11.4559 61.516C11.4559 61.516 11.4776 61.4891 11.4921 61.4776C11.4812 61.4891 11.4668 61.5045 11.4559 61.516ZM11.0996 62.1649C11.0996 62.1649 11.0996 62.1688 11.0996 62.1726C11.0996 62.1611 11.1068 62.1495 11.1068 62.138C11.1068 62.1457 11.1032 62.1534 11.0996 62.1611V62.1649ZM11.0559 62.4529C11.0559 62.4529 11.0559 62.4336 11.0559 62.426C11.0559 62.4336 11.0559 62.4452 11.0559 62.4529ZM11.5285 61.4392C11.5285 61.4392 11.554 61.4162 11.5649 61.4047C11.554 61.4162 11.5394 61.4277 11.5285 61.4392ZM11.6086 61.3663C11.6086 61.3663 11.634 61.3432 11.6485 61.3317C11.634 61.3432 11.6231 61.3547 11.6086 61.3663ZM11.6957 61.2933C11.6957 61.2933 11.7177 61.2779 11.7286 61.2664C11.7177 61.2741 11.7067 61.2818 11.6957 61.2933ZM11.8703 61.1666C11.8703 61.1666 11.8776 61.1628 11.8813 61.1589C11.8776 61.1589 11.8739 61.1628 11.8703 61.1666ZM11.9539 61.1129C11.9539 61.1129 11.9794 61.0975 11.9903 61.0898C11.9757 61.0975 11.9648 61.1052 11.9539 61.1129ZM9.66327 87.1602C9.62691 87.1065 9.59426 87.0488 9.56154 86.9912C9.59062 87.045 9.62326 87.0949 9.65599 87.1487C9.65599 87.1525 9.65963 87.1564 9.66327 87.1602ZM14.1573 70.5965C14.1937 70.3623 14.2156 70.1127 14.2228 69.844C14.2192 70.1166 14.1973 70.3661 14.1573 70.5965ZM14.1392 70.6963C14.1429 70.6733 14.1464 70.6503 14.1501 70.6234C14.1464 70.6464 14.1429 70.6733 14.1392 70.6963ZM14.1501 67.8435C14.161 67.8704 14.172 67.8935 14.1829 67.9203C14.172 67.8935 14.161 67.8666 14.1501 67.8435ZM10.8595 44.7181C10.9032 44.7795 10.9468 44.8486 10.9941 44.9254C10.9505 44.8563 10.9032 44.7872 10.8595 44.7181ZM10.3104 87.9588C10.3104 87.9588 10.2814 87.9281 10.2632 87.9127C10.285 87.9319 10.3031 87.9511 10.325 87.9703C10.3213 87.9665 10.314 87.9627 10.3104 87.955V87.9588ZM10.0269 87.6555C10.0414 87.6747 10.0596 87.6939 10.0741 87.7093C10.0596 87.6901 10.0414 87.6747 10.0269 87.6555ZM14.3173 83.2285C14.3173 83.2285 14.3173 83.2285 14.3173 83.2324C14.3173 83.2324 14.3173 83.2324 14.3173 83.2285ZM15.0882 81.3817C15.0882 81.3817 15.0845 81.3817 15.0809 81.3894C15.0809 81.3894 15.0845 81.3855 15.0882 81.3817ZM15.0409 81.4355C15.0409 81.4355 15.0228 81.4547 15.0156 81.4662C15.0228 81.4547 15.0337 81.447 15.0409 81.4355ZM14.99 81.4969C14.99 81.4969 14.961 81.5315 14.95 81.5468C14.9646 81.5315 14.9754 81.5123 14.99 81.4969ZM14.841 81.6927C14.841 81.6927 14.83 81.7081 14.8228 81.7157C14.83 81.7081 14.8338 81.7004 14.841 81.6927ZM14.6701 81.9692C14.6701 81.9692 14.6629 81.9807 14.6592 81.9884C14.6592 81.9807 14.6664 81.973 14.6701 81.9692ZM14.6264 82.0536C14.6264 82.0536 14.6155 82.0728 14.6118 82.0805C14.6155 82.0728 14.6228 82.0613 14.6264 82.0536ZM14.5719 82.165C14.5719 82.165 14.5682 82.1727 14.5646 82.1765C14.5646 82.1727 14.5683 82.1688 14.5719 82.165ZM14.5282 82.261C14.5282 82.261 14.5283 82.2687 14.5247 82.2725C14.5247 82.2725 14.5246 82.2648 14.5282 82.261ZM14.3938 82.6565C14.3938 82.6565 14.3938 82.6565 14.3938 82.6603C14.3938 82.6603 14.3938 82.6603 14.3938 82.6565ZM14.3283 83.0404C14.3283 83.0404 14.3283 83.0443 14.3283 83.0481C14.3283 83.0481 14.3283 83.0443 14.3283 83.0404ZM14.321 83.1364C14.321 83.1364 14.321 83.1402 14.321 83.1441C14.321 83.1441 14.321 83.1402 14.321 83.1364ZM15.1572 81.3203C15.1572 81.3203 15.1609 81.3165 15.1645 81.3126C15.1645 81.3126 15.1609 81.3165 15.1572 81.3203ZM18.0007 80.848C17.9534 80.8288 17.9061 80.8096 17.8589 80.7905C17.9061 80.8058 17.9534 80.825 18.0007 80.848ZM18.9896 81.5353C18.9569 81.5046 18.9242 81.47 18.8952 81.4432C18.9279 81.4739 18.9605 81.5046 18.9896 81.5353ZM18.7169 81.2896C18.6878 81.2665 18.6587 81.2435 18.626 81.2205C18.6551 81.2435 18.6842 81.2665 18.7169 81.2896ZM18.5861 81.1859C18.5533 81.1629 18.5205 81.1398 18.4914 81.1168C18.5242 81.1398 18.557 81.1629 18.5861 81.1859ZM18.4552 81.0937C18.4116 81.0669 18.3678 81.0362 18.3242 81.0131C18.3678 81.04 18.4116 81.0669 18.4552 81.0937ZM18.1424 80.9133C18.1097 80.8979 18.077 80.8826 18.0407 80.8672C18.0734 80.8826 18.106 80.8979 18.1424 80.9133ZM19.1387 81.6966C19.1678 81.7311 19.1969 81.7618 19.2224 81.7964C19.1933 81.7618 19.1642 81.7273 19.1387 81.6966ZM20.175 83.8275C20.1678 83.7968 20.1605 83.7622 20.1532 83.7315C20.1605 83.7622 20.1678 83.7929 20.175 83.8275ZM20.1349 83.6586C20.1204 83.6048 20.1095 83.5549 20.095 83.505C20.1095 83.5549 20.124 83.6087 20.1349 83.6586ZM20.0731 83.4359C20.0622 83.4013 20.0549 83.3706 20.044 83.3361C20.0549 83.3706 20.0659 83.4013 20.0731 83.4359ZM19.9604 83.098C19.9459 83.0596 19.9314 83.0212 19.9132 82.979C19.9277 83.0174 19.9459 83.0558 19.9604 83.098ZM19.8841 82.9099C19.8659 82.8715 19.8515 82.8292 19.8333 82.7908C19.8515 82.8292 19.8695 82.8715 19.8841 82.9099ZM19.8042 82.7294C19.7896 82.6987 19.7751 82.668 19.7569 82.6372C19.7715 82.668 19.786 82.6987 19.8042 82.7294ZM19.7278 82.572C19.7096 82.5374 19.6913 82.5029 19.6731 82.4722C19.6913 82.5067 19.7096 82.5413 19.7278 82.572ZM19.6477 82.4222C19.6223 82.3762 19.5932 82.3301 19.5641 82.284C19.5932 82.3301 19.6187 82.3762 19.6477 82.4222ZM16.1099 60.3027C16.1717 60.3027 16.2373 60.3027 16.3027 60.3027C16.2373 60.3027 16.1754 60.3027 16.1099 60.3027ZM15.7318 60.3142C15.8117 60.3142 15.8917 60.3104 15.9753 60.3065C15.8917 60.3065 15.8117 60.3104 15.7318 60.3142Z" fill="#2A1D74"/>
<path d="M49.4631 89.4447C49.4631 89.4447 49.4559 89.4371 49.4523 89.4332C48.6015 88.6193 47.4415 89.7596 45.2599 89.2144C43.9727 88.8918 43.0528 88.17 42.6383 87.8321C41.6239 87.0143 41.6785 86.6304 40.6495 85.6129C40.1041 85.0753 39.4678 84.4495 38.6969 84.0118C38.7806 84.0541 38.8606 84.0963 38.937 84.1385C39.3988 83.9427 40.9403 83.2439 41.4057 82.2149C41.4529 82.1074 41.4966 81.9922 41.4966 81.9922C41.5947 81.735 41.8567 80.9594 41.6203 80.0149C41.4385 79.2777 41.0385 78.8208 40.813 78.5635C40.6458 78.3754 40.4785 78.2257 40.3221 78.1028C40.2458 78.0414 40.1696 77.9837 40.0896 77.9223C40.0387 77.8877 39.9841 77.8609 39.9296 77.8378C39.9187 77.8302 39.9041 77.8225 39.8932 77.8148C39.8932 77.8148 39.8931 77.8225 39.8968 77.8225C39.6459 77.7304 39.3587 77.7687 39.1369 77.9415C38.686 78.2986 37.9661 78.648 37.0607 79.1548C36.4244 79.5119 35.4826 79.197 34.7154 78.9052C34.53 78.8361 34.3446 78.84 34.1773 78.8976C34.17 78.8976 34.1664 78.8976 34.1628 78.8976C34.1628 78.8976 34.1591 78.8976 34.1555 78.9014C33.8282 79.0281 33.5884 79.3737 33.6211 79.7884C33.6793 80.491 33.6938 81.2857 33.3193 81.6313C32.9993 81.9308 32.392 81.877 31.8357 81.781C31.6067 81.7426 31.3921 81.8041 31.2248 81.9308C31.2176 81.9308 31.214 81.9308 31.2067 81.9308C31.1994 81.9346 31.1959 81.9423 31.1959 81.95C30.9668 82.142 30.8358 82.4568 30.8976 82.7947C31.0067 83.3745 31.0685 84.0157 30.7522 84.3843C30.3522 84.8527 29.6396 85.1099 29.0324 85.275C28.5233 85.4132 28.2651 86.0084 28.5051 86.5037C29.0796 87.6978 29.4178 88.3543 29.1705 89.4255C29.0069 90.1282 28.4652 90.2318 28.4762 90.946C28.4834 91.3107 28.6287 91.4029 28.8833 92.0364C29.1778 92.7582 29.407 93.3918 29.3852 94.1635C29.3815 94.3516 29.3778 94.6396 29.2905 95.0005C29.1378 95.6302 28.9052 95.7915 28.9779 96.091C29.0142 96.2292 29.0869 96.2945 29.3378 96.4711C29.2941 96.7667 29.1996 97.0969 29.0178 97.431C28.7088 98.003 28.2798 98.3448 27.9307 98.5406C27.7853 98.6251 27.6834 98.7633 27.6398 98.9245C27.6252 98.9744 27.6179 99.0282 27.6179 99.082C27.6179 99.1626 27.629 99.2432 27.658 99.3239C27.7526 99.5926 27.8179 99.9381 27.7379 100.334C27.7198 100.422 27.6979 100.491 27.6943 100.514C27.5997 100.821 27.4762 100.902 27.4944 100.979C27.4944 101.174 27.5198 101.462 27.6325 101.773C27.8434 102.349 28.1742 102.384 28.2251 102.849C28.2324 102.925 28.3015 103.574 27.9197 104.008C27.7052 104.254 27.4834 104.273 27.4906 104.331C27.4906 104.338 27.4944 104.342 27.5016 104.35C27.5125 104.361 27.5235 104.365 27.5308 104.369C27.7562 104.484 28.9305 104.538 30.414 104.258C30.4322 104.277 30.4468 104.3 30.465 104.323C30.6613 104.592 30.7122 104.868 30.7522 105.083C30.9631 106.189 30.1996 107.264 30.1305 107.36C29.7523 107.882 29.4796 107.932 29.4359 108.324C29.3923 108.711 29.7414 108.784 29.8214 109.387C29.8468 109.568 29.8142 109.529 29.796 110.351C29.7887 110.693 29.7851 110.862 29.796 111.008C29.8323 111.583 29.945 111.614 29.9414 111.944C29.9305 112.555 29.5487 112.743 29.6541 113.058C29.7378 113.315 30.0396 113.188 30.4468 113.488C30.5959 113.599 30.6396 113.676 31.1886 114.601C31.654 115.385 31.6866 115.435 31.7157 115.588C31.8103 116.053 31.6794 116.41 31.8357 116.498C31.963 116.567 32.0903 116.444 32.363 116.371C32.8466 116.241 33.3774 116.398 33.6829 116.625C34.2064 117.013 34.0683 117.608 34.4028 117.738C34.6428 117.834 35.0645 117.669 35.8645 116.625C35.8027 116.606 35.7371 116.59 35.6717 116.575C35.5989 116.556 35.5263 116.54 35.4572 116.525C35.3881 116.506 35.319 116.483 35.2463 116.46C35.5044 116.536 35.7262 116.586 35.9044 116.629C36.1626 116.686 36.3662 116.717 36.4644 116.732C37.0134 116.817 38.4242 117.001 40.0532 116.375C40.544 116.187 41.6929 115.726 42.7001 114.548C42.9837 114.217 43.5219 113.572 43.8491 112.547C44.0019 112.071 44.3726 110.862 43.9436 109.433C43.8345 109.069 43.3909 107.594 41.9656 106.834C41.6966 106.692 40.5295 106.093 39.2205 106.588C38.9442 106.692 38.0606 107.026 37.577 108.005C37.4898 108.178 36.9226 109.376 37.5298 110.478C37.6389 110.677 37.7916 110.881 37.977 111.057C38.3297 111.395 38.7986 111.641 39.3077 111.595C40.0931 111.522 40.7403 110.804 40.6458 110.566C40.6276 110.516 40.5731 110.489 40.5004 110.478C40.4968 110.478 40.4895 110.478 40.4858 110.478C39.4677 110.835 38.5406 110.808 38.2861 110.37C37.9589 109.798 38.7115 108.4 39.795 108.166C40.7513 107.959 41.6021 108.738 41.9766 109.433C42.5511 110.501 42.1329 111.626 42.0239 111.891C41.3476 113.542 39.4568 113.86 39.0495 113.914C38.7368 113.956 36.4171 114.229 35.3809 112.47C34.5991 111.142 35.0464 109.495 35.5737 108.623C35.69 108.431 35.8171 108.278 36.0717 107.97C36.2171 107.798 36.3626 107.636 36.5008 107.483C36.5008 107.483 36.5044 107.483 36.5081 107.483C37.2862 106.646 37.9733 106.154 38.1915 105.993C38.3187 105.897 38.4605 105.793 38.6169 105.674C39.1877 105.237 39.9077 104.642 40.5222 103.908C41.1222 103.194 41.6239 102.346 41.7876 101.386C41.8021 101.309 41.8129 101.228 41.8202 101.144C41.9184 100.268 41.7731 99.2471 41.3913 98.3486C41.1477 97.7765 40.8058 97.2543 40.3731 96.8512C39.5186 96.0602 38.5877 95.9911 38.3078 95.0351C38.286 94.9621 38.028 93.9946 38.4752 93.2919C38.6206 93.0654 38.8314 92.8734 39.9513 92.5855C40.2276 92.5125 40.5621 92.4357 40.9657 92.3513C42.3838 92.0479 43.1074 91.8982 43.751 91.9865C44.7436 92.1209 45.4998 92.5317 45.7762 92.6968C46.2343 92.9656 46.4271 93.3227 47.0743 93.6606C47.5434 93.9063 47.7979 94.0406 48.1179 94.0253C48.1434 94.0253 48.1688 94.0253 48.1943 94.0176C48.2015 94.0099 48.2051 94.0022 48.2124 93.9984C48.2051 94.0061 48.1979 94.0138 48.1943 94.0176C48.8633 94.079 49.1649 93.8986 49.314 93.7143C49.6194 93.3418 49.3286 92.9195 49.6013 92.1209C49.8194 91.4797 50.1176 91.4336 50.1758 90.9805C50.223 90.635 50.1212 90.1282 49.4558 89.4371C49.4558 89.4371 49.4558 89.4447 49.4558 89.4486L49.4631 89.4447ZM42.6019 110.681C42.6019 110.681 42.6019 110.67 42.6019 110.666C42.6019 110.67 42.6019 110.673 42.6019 110.677V110.681ZM41.6349 108.535C41.6349 108.535 41.6166 108.519 41.6093 108.508C41.6166 108.516 41.6276 108.523 41.6349 108.535ZM42.573 110.474C42.573 110.474 42.573 110.462 42.573 110.455C42.573 110.462 42.573 110.466 42.573 110.474ZM42.5329 110.255C42.5329 110.255 42.5292 110.232 42.5256 110.224C42.5256 110.236 42.5292 110.247 42.5329 110.255ZM42.4748 110.028C42.4748 110.028 42.4748 110.025 42.4748 110.021C42.4748 110.021 42.4748 110.025 42.4748 110.028ZM42.4128 109.829C42.4128 109.829 42.4057 109.806 42.402 109.794C42.4057 109.806 42.4092 109.817 42.4128 109.829ZM42.2456 109.422C42.2456 109.422 42.2348 109.399 42.2275 109.387C42.2348 109.399 42.2383 109.41 42.2456 109.422ZM42.1366 109.211C42.1366 109.211 42.133 109.203 42.1293 109.199C42.1293 109.199 42.133 109.207 42.1366 109.211ZM42.0347 109.042C42.0347 109.042 42.0203 109.019 42.013 109.011C42.0203 109.022 42.0274 109.034 42.0347 109.042ZM41.9038 108.854C41.9038 108.854 41.893 108.838 41.8857 108.83C41.893 108.838 41.8966 108.846 41.9038 108.854ZM41.7803 108.7C41.7803 108.7 41.7657 108.681 41.7584 108.673C41.7657 108.681 41.773 108.692 41.7803 108.7ZM38.2169 98.8093C38.2169 98.8093 38.2205 98.8286 38.2242 98.8362C38.2278 98.8516 38.2351 98.867 38.2387 98.8862C38.2205 98.8324 38.2061 98.7748 38.1879 98.721C38.1952 98.7402 38.2025 98.7594 38.2098 98.7786C38.2098 98.7901 38.217 98.7978 38.2206 98.8093H38.2169ZM38.4205 99.7884C38.4278 99.8691 38.4352 99.9535 38.4388 100.034C38.4388 99.9459 38.4278 99.8614 38.4205 99.7769V99.7884ZM38.4024 99.6387C38.4024 99.6387 38.4023 99.6656 38.406 99.6809C38.406 99.6617 38.4023 99.6463 38.3987 99.6272C38.3987 99.631 38.3987 99.6348 38.3987 99.6387H38.4024ZM38.4388 100.042C38.4424 100.134 38.4424 100.23 38.4388 100.326C38.4388 100.23 38.4388 100.134 38.4388 100.042ZM38.086 98.4446C38.0569 98.3755 38.0279 98.3064 37.9989 98.2372C38.0279 98.3064 38.0606 98.3755 38.086 98.4446ZM38.1769 98.6903C38.1515 98.6174 38.1261 98.5444 38.097 98.4715C38.1261 98.5444 38.1515 98.6135 38.1769 98.6903ZM34.3082 107.698C34.5118 107.107 34.7409 106.561 34.9409 106.089C34.7155 106.646 34.5009 107.183 34.3082 107.698ZM36.4608 93.1383C36.4608 93.1383 36.4463 93.146 36.439 93.1499C36.4463 93.146 36.4535 93.1422 36.4644 93.1345L36.4608 93.1383ZM37.0135 96.6285C36.9953 96.6016 36.977 96.5786 36.9588 96.5517C36.977 96.5747 36.9952 96.5978 37.0098 96.6208C37.0098 96.6208 37.0099 96.6208 37.0135 96.6247V96.6285ZM35.7517 93.8794C35.759 93.8602 35.7662 93.841 35.7771 93.8218C35.7698 93.841 35.759 93.8602 35.7517 93.8794ZM35.7844 93.7988C35.7844 93.7988 35.7954 93.7719 35.8027 93.7603C35.7954 93.7719 35.7917 93.7873 35.7844 93.7988ZM35.8172 93.7373C35.8172 93.7373 35.8281 93.7143 35.8354 93.7028C35.8281 93.7143 35.8209 93.7258 35.8172 93.7373ZM35.8535 93.6759C35.8535 93.6759 35.868 93.6529 35.8753 93.6452C35.868 93.6567 35.8607 93.6682 35.8535 93.6759ZM35.8936 93.6183C35.8936 93.6183 35.9081 93.5991 35.9154 93.5876C35.9081 93.5991 35.9009 93.6068 35.8936 93.6183ZM35.9373 93.5607C35.9373 93.5607 35.9517 93.5415 35.9627 93.53C35.9554 93.5415 35.9445 93.5492 35.9373 93.5607ZM35.9845 93.5031C35.9845 93.5031 36.0026 93.4839 36.0099 93.4762C36.0026 93.4839 35.9918 93.4954 35.9845 93.5031ZM35.7191 93.9908C35.7191 93.9908 35.7191 93.9946 35.7191 93.9984C35.7191 93.9907 35.7227 93.9792 35.7263 93.9715C35.7263 93.9792 35.7263 93.9831 35.7226 93.9908H35.7191ZM35.6862 94.2057C35.6862 94.2057 35.6862 94.1904 35.6862 94.1866C35.6862 94.1943 35.6862 94.2019 35.6862 94.2057ZM36.039 93.4455C36.039 93.4455 36.0572 93.4263 36.0681 93.4187C36.0572 93.4263 36.0499 93.4378 36.039 93.4455ZM36.0972 93.3918C36.0972 93.3918 36.1153 93.3764 36.1262 93.3688C36.1153 93.3764 36.1081 93.3841 36.0972 93.3918ZM36.1626 93.338C36.1626 93.338 36.1809 93.3265 36.1881 93.3188C36.1809 93.3265 36.1698 93.3303 36.1626 93.338ZM36.2971 93.2382C36.2971 93.2382 36.2972 93.2382 36.3009 93.2382C36.3009 93.2382 36.3008 93.2382 36.2971 93.2382ZM36.3554 93.1998C36.3554 93.1998 36.3736 93.1883 36.3845 93.1844C36.3736 93.1883 36.3663 93.1959 36.3554 93.1998ZM38.0134 100.326C38.0425 100.149 38.057 99.9612 38.0606 99.7615C38.0606 99.965 38.0425 100.153 38.0134 100.326ZM35.5373 80.8826C35.57 80.9287 35.6026 80.9786 35.639 81.0362C35.6063 80.9824 35.57 80.9325 35.5373 80.8826ZM35.0064 113.254C35.0064 113.254 35.0282 113.277 35.0391 113.288C35.0282 113.277 35.0173 113.265 35.0064 113.254ZM38.1405 109.725C38.1405 109.725 38.1405 109.744 38.1405 109.756C38.1405 109.744 38.1405 109.737 38.1405 109.725ZM38.7406 108.408C38.7115 108.439 38.6861 108.466 38.657 108.496C38.6824 108.466 38.7115 108.435 38.7406 108.408ZM38.595 108.577C38.595 108.577 38.5697 108.608 38.5588 108.623C38.5697 108.608 38.5805 108.592 38.595 108.577ZM38.5114 108.692C38.4969 108.711 38.4824 108.735 38.4715 108.754C38.486 108.735 38.5005 108.711 38.5114 108.692ZM38.417 108.846C38.417 108.846 38.3988 108.877 38.3916 108.892C38.3988 108.877 38.4097 108.861 38.417 108.846ZM38.3296 109.015C38.3296 109.015 38.3223 109.026 38.3223 109.034C38.3223 109.026 38.3296 109.022 38.3296 109.015ZM38.2751 109.142C38.2751 109.142 38.2642 109.165 38.2605 109.176C38.2642 109.165 38.2715 109.153 38.2751 109.142ZM38.2242 109.284C38.2242 109.284 38.2134 109.31 38.2098 109.322C38.2134 109.31 38.2169 109.295 38.2242 109.284ZM38.1807 109.445C38.1807 109.445 38.177 109.464 38.1734 109.472C38.1734 109.464 38.177 109.453 38.1807 109.445ZM38.1551 109.583C38.1551 109.583 38.1514 109.606 38.1478 109.614C38.1478 109.602 38.1515 109.591 38.1551 109.583ZM38.2824 110.374C38.2824 110.374 38.2715 110.351 38.2643 110.343C38.2715 110.355 38.2751 110.366 38.2824 110.378V110.374ZM38.2242 110.27C38.2242 110.27 38.217 110.247 38.2098 110.236C38.2134 110.247 38.2169 110.259 38.2242 110.27ZM38.137 109.867C38.137 109.867 38.137 109.89 38.137 109.902C38.137 109.89 38.137 109.879 38.137 109.867ZM38.1478 109.998C38.1478 109.998 38.1479 110.021 38.1515 110.032C38.1515 110.021 38.1514 110.009 38.1478 109.998ZM38.1696 110.121C38.1696 110.121 38.1733 110.147 38.1769 110.159C38.1769 110.147 38.1733 110.132 38.1696 110.121ZM38.7623 108.389C38.7986 108.351 38.835 108.316 38.875 108.285C38.835 108.32 38.7986 108.354 38.7623 108.389ZM41.4893 108.408C41.4893 108.408 41.4749 108.397 41.4676 108.389C41.4749 108.397 41.482 108.4 41.4893 108.408ZM41.3293 108.278C41.3293 108.278 41.3076 108.262 41.2967 108.255C41.3076 108.262 41.3184 108.27 41.3293 108.278ZM41.1621 108.166C41.1621 108.166 41.1512 108.159 41.1475 108.155C41.1548 108.155 41.1584 108.162 41.1621 108.166ZM40.9913 108.074C40.9913 108.074 40.9658 108.063 40.9549 108.055C40.9658 108.059 40.9804 108.066 40.9913 108.074ZM39.4786 92.5932C39.5259 92.5932 39.5731 92.5932 39.6241 92.5932C39.5768 92.5932 39.5259 92.5932 39.4786 92.5932ZM39.1914 92.6008C39.2532 92.6008 39.3151 92.597 39.3769 92.5932C39.3151 92.5932 39.2532 92.5932 39.1914 92.6008ZM48.805 93.1422C48.8886 92.9771 48.9542 92.8197 49.0051 92.6738C48.976 92.8734 48.8777 93.004 48.805 93.1422Z" fill="#2A1D74"/>
<path d="M70.4722 20.1451C70.4722 20.1451 70.4722 20.1566 70.4722 20.1605C70.4649 20.1528 70.4612 20.149 70.4539 20.1413C69.0068 18.7514 67.0251 20.6942 63.3054 19.7688C61.1129 19.2236 59.546 17.9873 58.8369 17.4152C57.1098 16.0176 57.2007 15.3649 55.4445 13.6333C54.5173 12.7195 53.4447 11.6636 52.143 10.9226C52.2739 10.9878 52.4011 11.0569 52.5211 11.1261C53.3102 10.7882 55.9354 9.60177 56.7317 7.84711C56.8153 7.66281 56.8879 7.467 56.8879 7.467C57.0588 7.02545 57.5024 5.70466 57.0988 4.09206C56.7861 2.83654 56.1099 2.05327 55.7245 1.61941C55.4409 1.30072 55.1572 1.04346 54.8881 0.832283C54.8881 0.832283 54.8881 0.82846 54.8881 0.82462C54.7608 0.720953 54.6263 0.617271 54.4881 0.521283C54.3972 0.456011 54.2991 0.402264 54.1973 0.360029C54.1827 0.35235 54.1682 0.340829 54.1536 0.33315C54.1536 0.33315 54.1573 0.34084 54.1609 0.344679C53.7318 0.187259 53.2447 0.252522 52.8702 0.552005C52.103 1.15865 50.874 1.75378 49.3323 2.62152C48.2488 3.232 46.6417 2.69447 45.3327 2.19533C45.0128 2.07247 44.689 2.08398 44.4054 2.18765C44.3982 2.18765 44.3946 2.18765 44.3873 2.19149C44.3873 2.19149 44.3874 2.19149 44.3838 2.19149C43.8202 2.4065 43.4093 3.00164 43.4675 3.70811C43.5693 4.90988 43.5911 6.26139 42.9548 6.84884C42.4057 7.35566 41.3694 7.26734 40.4277 7.10224C40.0386 7.03312 39.6714 7.14064 39.3878 7.35566C39.3769 7.35566 39.366 7.35564 39.3587 7.36332C39.3478 7.371 39.3405 7.38253 39.3369 7.39404C38.9442 7.7204 38.7225 8.26178 38.8316 8.83771C39.017 9.82831 39.1224 10.9187 38.5843 11.5484C37.9007 12.347 36.6826 12.7847 35.6536 13.065C34.7882 13.2992 34.3483 14.3167 34.7519 15.1576C35.7336 17.1963 36.3081 18.3137 35.8826 20.1374C35.6063 21.3354 34.6792 21.512 34.6974 22.7291C34.7083 23.355 34.9556 23.5124 35.3919 24.5836C35.89 25.8123 36.2827 26.8912 36.25 28.2081C36.2427 28.5306 36.2354 29.0182 36.0863 29.6326C35.8245 30.7038 35.4282 30.9841 35.5554 31.4871C35.6136 31.7213 35.7409 31.8326 36.1736 32.1321C36.0973 32.6351 35.9373 33.1995 35.6282 33.7677C35.1046 34.7392 34.3701 35.3228 33.7738 35.6606C33.5229 35.8027 33.3484 36.0408 33.2756 36.3134C33.2538 36.4017 33.2393 36.49 33.2357 36.5821C33.2357 36.7204 33.2539 36.8586 33.3012 36.9929C33.4648 37.4498 33.5702 38.0411 33.4393 38.7169C33.4102 38.8666 33.3739 38.9857 33.363 39.0241C33.203 39.5462 32.9921 39.6883 33.0248 39.8188C33.0248 40.1567 33.0647 40.6443 33.2611 41.1742C33.6211 42.1533 34.1811 42.2147 34.272 43.0056C34.2865 43.14 34.3992 44.2458 33.752 44.9869C33.3847 45.4054 33.0103 45.4361 33.0212 45.5359C33.0212 45.5474 33.0284 45.559 33.0393 45.5705C33.0575 45.5858 33.0757 45.5973 33.0866 45.6012C33.4683 45.797 35.4754 45.893 38.0025 45.4092C38.0316 45.4438 38.057 45.4783 38.0861 45.5167C38.417 45.9775 38.5079 46.4459 38.577 46.8106C38.9333 48.692 37.6316 50.5311 37.5153 50.6962C36.8681 51.5832 36.4062 51.6753 36.3299 52.3357C36.2535 53 36.8463 53.1228 36.9844 54.148C37.0244 54.4551 36.9698 54.3937 36.9443 55.7874C36.9334 56.3672 36.9298 56.659 36.9443 56.9086C37.0061 57.8876 37.199 57.9414 37.1881 58.5058C37.1663 59.5463 36.519 59.8688 36.6972 60.4064C36.8426 60.8441 37.3553 60.6291 38.0461 61.1397C38.3007 61.3279 38.3733 61.4584 39.315 63.0403C40.1077 64.3726 40.1623 64.4609 40.2132 64.722C40.3732 65.5168 40.1478 66.1234 40.4168 66.277C40.6314 66.396 40.853 66.1887 41.3148 66.062C42.1402 65.8355 43.0456 66.1081 43.5619 66.492C44.4528 67.1563 44.2201 68.1661 44.7873 68.3926C45.1946 68.5538 45.9144 68.2736 47.2816 66.492C47.1761 66.4613 47.0671 66.4344 46.9544 66.4075C46.8307 66.3768 46.707 66.3461 46.587 66.3231C46.587 66.3269 46.5834 66.3308 46.5798 66.3346C46.5798 66.3346 46.587 66.3269 46.587 66.3231C46.478 66.2924 46.3654 66.2578 46.249 66.2194C46.6781 66.3461 47.0526 66.4306 47.3471 66.4997C47.7871 66.5995 48.1325 66.6533 48.2998 66.6802C49.2342 66.8261 51.6411 67.1409 54.419 66.0697C55.259 65.7471 57.2189 64.9639 58.9278 62.9558C59.4114 62.3914 60.3277 61.2895 60.8912 59.5463C61.153 58.7362 61.7856 56.6705 61.0548 54.2363C60.8693 53.6143 60.1131 51.0993 57.6806 49.8054C57.2225 49.5597 55.2335 48.5422 53.001 49.3869C52.5283 49.5674 51.0194 50.1357 50.1977 51.802C50.0522 52.0977 49.0815 54.1403 50.1178 56.0178C50.3069 56.3557 50.5649 56.7012 50.8776 57.0045C51.4776 57.5805 52.2775 58.0028 53.1502 57.9184C54.4846 57.7916 55.5935 56.5707 55.4335 56.1637C55.4008 56.0792 55.3099 56.0332 55.1826 56.014C55.1754 56.014 55.1645 56.014 55.1572 56.0101C53.4192 56.6168 51.8375 56.5745 51.4085 55.8297C50.8485 54.8583 52.1357 52.4701 53.9828 52.0746C55.6154 51.7252 57.0662 53.0498 57.7025 54.2324C58.6805 56.0524 57.9678 57.9721 57.7823 58.4214C56.6261 61.2357 53.4082 61.7809 52.7138 61.8731C52.1793 61.946 48.2234 62.4106 46.4599 59.4119C45.1291 57.1466 45.8927 54.3361 46.7871 52.8502C46.9835 52.5238 47.2016 52.2627 47.6379 51.7406C47.8852 51.4449 48.1289 51.1685 48.3688 50.9112C48.3725 50.9112 48.376 50.9112 48.3797 50.9112C48.3797 50.9112 48.376 50.9112 48.3724 50.9074C49.6995 49.4829 50.8704 48.6421 51.2412 48.3656C51.4594 48.2044 51.7029 48.0201 51.9647 47.8204C52.9392 47.0756 54.1646 46.0619 55.2118 44.8102C56.2371 43.5892 57.0915 42.1456 57.3715 40.51C57.6442 38.9281 57.4079 37.0045 56.6953 35.3343C56.2771 34.359 55.699 33.4683 54.9609 32.781C53.5065 31.4333 51.9176 31.3143 51.4376 29.6863C51.4012 29.5635 50.9576 27.9086 51.7211 26.7107C51.9684 26.3229 52.3284 26.0004 54.241 25.5089C54.0992 25.5089 53.9647 25.5089 53.8301 25.5089C53.9647 25.5089 54.1028 25.5089 54.241 25.5089C54.7136 25.3861 55.2845 25.2555 55.9681 25.1096C58.386 24.5951 59.6186 24.3379 60.7203 24.4876C62.411 24.718 63.6983 25.4168 64.1709 25.6971C64.949 26.154 65.2799 26.7606 66.3852 27.3404C67.1851 27.7589 67.6179 27.9854 68.1633 27.9624C68.2069 27.9624 68.2506 27.9547 68.2979 27.9509C68.3088 27.9393 68.3195 27.9278 68.3268 27.9163C68.3159 27.9317 68.3051 27.9432 68.2979 27.9509C69.4396 28.0545 69.9521 27.7474 70.2103 27.4325C70.7339 26.7952 70.2322 26.0772 70.7012 24.7141C71.0757 23.6237 71.581 23.5469 71.6828 22.7713C71.7628 22.1839 71.5884 21.32 70.4576 20.1374L70.4722 20.1451ZM58.775 56.371C58.775 56.3365 58.7678 56.3019 58.7641 56.2712C58.7678 56.3019 58.7713 56.3365 58.775 56.3672V56.3749V56.371ZM51.3066 36.129C51.3066 36.129 51.3066 36.129 51.3066 36.1329C51.2957 36.0983 51.2849 36.0638 51.2704 36.0292C51.2776 36.0446 51.2812 36.06 51.2885 36.0792C51.2921 36.0945 51.2993 36.1137 51.3066 36.129ZM51.6812 38.2216C51.6812 38.187 51.6775 38.1563 51.6739 38.1218C51.6739 38.1563 51.6776 38.187 51.6812 38.2216ZM51.6666 37.9759C51.6666 37.9413 51.6594 37.9068 51.6558 37.8722C51.6558 37.9068 51.663 37.9413 51.6666 37.9759ZM44.6419 51.2952C44.9873 50.2892 45.3837 49.3562 45.7182 48.5537C45.3364 49.5059 44.9655 50.4198 44.6419 51.2952ZM48.3069 26.4727C48.3069 26.4727 48.2816 26.488 48.2707 26.4918C48.2852 26.4842 48.2996 26.4765 48.3141 26.4688C48.3141 26.4688 48.3142 26.4688 48.3106 26.4688L48.3069 26.4727ZM47.158 27.5976C47.1689 27.5746 47.1798 27.5516 47.1907 27.5324C47.1798 27.5554 47.1689 27.5784 47.158 27.5976ZM47.2707 27.3865C47.2707 27.3865 47.2924 27.3481 47.307 27.3327C47.2961 27.3519 47.2817 27.3711 47.2707 27.3865ZM47.3361 27.2866C47.3361 27.2866 47.3616 27.2521 47.3725 27.2329C47.3579 27.2521 47.347 27.2674 47.3361 27.2866ZM47.4124 27.1868C47.4124 27.1868 47.4416 27.1522 47.4525 27.1369C47.438 27.1522 47.4233 27.1714 47.4124 27.1868ZM47.496 27.0908C47.496 27.0908 47.5252 27.0601 47.5397 27.0409C47.5252 27.0563 47.5106 27.0716 47.496 27.0908ZM47.0415 27.924C47.0415 27.924 47.0415 27.9317 47.0415 27.9355C47.0452 27.9202 47.0489 27.9048 47.0526 27.8894C47.0526 27.901 47.0453 27.9125 47.0453 27.9202L47.0415 27.924ZM46.9835 28.2926C46.9835 28.2926 46.9835 28.2695 46.9835 28.258C46.9835 28.2695 46.9835 28.2811 46.9835 28.2926ZM47.5869 26.9948C47.5869 26.9948 47.6198 26.9641 47.6343 26.9487C47.6198 26.9641 47.6015 26.9795 47.5869 26.9948ZM47.6889 26.8988C47.6889 26.8988 47.7215 26.872 47.7361 26.8566C47.7215 26.872 47.7034 26.8835 47.6889 26.8988ZM47.7979 26.8067C47.7979 26.8067 47.827 26.7836 47.8415 26.776C47.827 26.7875 47.8124 26.799 47.7979 26.8067ZM48.0271 26.6416C48.0271 26.6416 48.0343 26.6377 48.0379 26.6339C48.0343 26.6339 48.0307 26.6378 48.0271 26.6416ZM48.1288 26.5763C48.1288 26.5763 48.1615 26.5571 48.176 26.5456C48.1615 26.5571 48.1433 26.5648 48.1288 26.5763ZM45.1946 59.9495C45.151 59.8804 45.1073 59.8074 45.0673 59.7344C45.1073 59.8036 45.1473 59.8688 45.1873 59.9341C45.1873 59.9379 45.1946 59.9456 45.1946 59.9495ZM50.9467 38.763C50.9431 38.7937 50.9358 38.8244 50.9322 38.8551C50.9394 38.8244 50.9431 38.7937 50.9467 38.763ZM51.0339 37.7608C51.0302 38.1102 51.0013 38.4289 50.954 38.7246C51.0013 38.4212 51.0302 38.1026 51.0339 37.7608ZM51.0339 35.4034C51.0484 35.4379 51.063 35.4725 51.0776 35.5032C51.063 35.4687 51.0484 35.4341 51.0339 35.4034ZM46.7362 5.57411C46.7907 5.65474 46.849 5.74305 46.9071 5.83904C46.849 5.75073 46.7907 5.66242 46.7362 5.57411ZM46.0308 60.9746C46.0126 60.9555 45.9908 60.9362 45.9726 60.917C45.998 60.9439 46.0236 60.9669 46.0527 60.9938C46.0454 60.9861 46.0381 60.9823 46.0308 60.9746ZM45.7799 60.7135C45.8199 60.7596 45.8636 60.8018 45.9072 60.8479C45.8636 60.8057 45.8236 60.7596 45.7799 60.7135ZM45.6672 60.5869C45.689 60.6099 45.7072 60.6367 45.729 60.6598C45.7072 60.6367 45.689 60.6137 45.6672 60.5907V60.5869ZM52.1503 52.5507C52.1503 52.5507 52.1502 52.5507 52.1465 52.5545C52.1465 52.5545 52.1466 52.5545 52.1503 52.5507ZM52.0702 52.639C52.0702 52.639 52.0629 52.6505 52.0556 52.6544C52.0593 52.6505 52.0629 52.6428 52.0702 52.639ZM51.823 52.9577C51.823 52.9577 51.8157 52.9692 51.812 52.973C51.8157 52.9692 51.8194 52.9616 51.823 52.9577ZM51.7503 53.0652C51.7503 53.0652 51.743 53.0806 51.7357 53.0844C51.7393 53.0767 51.743 53.069 51.7503 53.0652ZM51.6702 53.1958C51.6702 53.1958 51.6702 53.1958 51.6702 53.1996C51.6702 53.1996 51.6702 53.1996 51.6702 53.1958ZM52.3029 56.4517C52.5502 56.5285 52.8337 56.5707 53.1391 56.5707C52.8337 56.5707 52.5502 56.5323 52.3029 56.4517C52.0193 56.3634 51.7793 56.229 51.5938 56.0523C51.7756 56.2251 52.0157 56.3634 52.3029 56.4517ZM51.5285 55.9871C51.4849 55.941 51.4485 55.8911 51.4158 55.8412C51.4158 55.8412 51.4157 55.8374 51.412 55.8335C51.412 55.8335 51.4121 55.8374 51.4158 55.8412C51.4485 55.8911 51.4885 55.941 51.5285 55.9871ZM51.2704 55.557C51.2704 55.557 51.2704 55.557 51.2704 55.5609C51.2704 55.5609 51.2704 55.5609 51.2704 55.557ZM51.354 55.7414C51.354 55.7414 51.3539 55.7452 51.3575 55.749C51.3575 55.749 51.3576 55.7452 51.354 55.7414ZM52.3248 52.3549C52.3575 52.3242 52.3902 52.2973 52.423 52.2666C52.3902 52.2935 52.3575 52.3242 52.3248 52.3549ZM55.8734 51.8404C55.8116 51.8135 55.7535 51.7905 55.6881 51.7674C55.7499 51.7905 55.8116 51.8135 55.8734 51.8404ZM57.1388 52.7197C57.0988 52.6774 57.0552 52.639 57.0152 52.6006C57.0552 52.639 57.0988 52.6813 57.1388 52.7197ZM56.7897 52.401C56.7534 52.3702 56.7133 52.3395 56.677 52.3088C56.717 52.3395 56.7534 52.3702 56.7897 52.401ZM56.6225 52.2704C56.5825 52.2397 56.5425 52.2128 56.4989 52.1821C56.5389 52.209 56.5825 52.2397 56.6225 52.2704ZM56.4552 52.1552C56.4007 52.1168 56.3425 52.0823 56.288 52.0515C56.3462 52.0861 56.4007 52.1207 56.4552 52.1552ZM56.2516 52.0285C56.2043 52.0017 56.1607 51.9786 56.1135 51.9518C56.1607 51.9748 56.2043 52.0017 56.2516 52.0285ZM56.0552 51.9249C56.0116 51.9057 55.9718 51.8826 55.9281 51.8634C55.9718 51.8826 56.0152 51.9018 56.0552 51.9249ZM57.6334 53.3109C57.6625 53.3493 57.6879 53.3877 57.717 53.4261C57.6916 53.3877 57.6625 53.3493 57.6334 53.3109ZM57.3278 52.927C57.3642 52.9692 57.4007 53.0115 57.437 53.0575C57.4007 53.0153 57.3642 52.9692 57.3278 52.927ZM57.4624 53.0882C57.5061 53.142 57.5461 53.1957 57.5897 53.2533C57.5497 53.1996 57.5061 53.142 57.4624 53.0882ZM58.6587 55.653C58.6514 55.6108 58.6405 55.5724 58.6296 55.5302C58.6405 55.5724 58.6478 55.6108 58.6587 55.653ZM58.6077 55.438C58.5896 55.3728 58.575 55.3075 58.5532 55.2384C58.5714 55.3036 58.5896 55.3689 58.6077 55.438ZM58.3824 54.72C58.3643 54.6701 58.3424 54.6202 58.3242 54.5703C58.346 54.6202 58.3643 54.6701 58.3824 54.72ZM58.1788 54.2439C58.1606 54.2017 58.1387 54.1633 58.1206 54.1249C58.1387 54.1633 58.1606 54.2056 58.1788 54.2439ZM58.0806 54.0443C58.0588 54.002 58.0334 53.956 58.0116 53.9137C58.0334 53.956 58.0588 53.9982 58.0806 54.0443ZM57.9787 53.8523C57.946 53.7909 57.9096 53.7333 57.8732 53.6719C57.9096 53.7295 57.9423 53.7909 57.9787 53.8523ZM57.837 53.6143C57.8116 53.572 57.786 53.5336 57.757 53.4914C57.7824 53.5298 57.8116 53.572 57.837 53.6143ZM53.4482 25.5166C53.5282 25.5166 53.6119 25.5166 53.6956 25.5128C53.6119 25.5128 53.5282 25.5128 53.4482 25.5166ZM52.9611 25.532C53.0629 25.5281 53.1684 25.5243 53.2775 25.5205C53.172 25.5205 53.0665 25.5281 52.9611 25.532ZM69.2759 26.5955C69.3014 26.5494 69.3231 26.5034 69.3485 26.4611C69.494 26.177 69.6031 25.9082 69.6867 25.6625C69.6358 26.0004 69.4685 26.2231 69.3485 26.4611C69.3267 26.5072 69.3014 26.5533 69.2759 26.5955Z" fill="#2A1D74"/>
</svg>
