<svg width="149" height="82" viewBox="0 0 149 82" fill="none" xmlns="http://www.w3.org/2000/svg">
<g opacity="0.8">
<path d="M56.0567 -0.00244141C42.8507 0.638759 35.5313 1.63318 35.5313 1.63318C35.5313 1.63318 31.5971 2.16689 25.2377 4.12121C24.4778 4.37078 23.8125 4.65487 23.2635 4.9582C22.7617 5.02731 22.2599 5.13101 21.7436 5.28075C21.5581 5.3345 21.3763 5.39208 21.1982 5.45351C18.0348 6.52474 15.9768 8.65951 15.2532 9.43125C14.646 10.0763 14.1624 10.6983 13.7552 11.3242C13.3225 11.9884 12.9807 12.6526 12.6789 13.3284C12.0681 14.5225 11.7046 15.5668 11.4319 16.5382C10.7265 18.4042 9.82106 20.5429 8.0176 23.2267C7.93761 23.3457 7.8612 23.4571 7.78485 23.5723C7.74849 23.6299 7.70847 23.6836 7.67211 23.7412C7.57394 23.8832 7.48311 24.0215 7.38858 24.1597C7.35585 24.2057 7.32676 24.2519 7.29768 24.2941C7.23586 24.3862 7.17041 24.4784 7.1086 24.5667C7.07224 24.6166 7.03941 24.6665 7.00669 24.7164C6.94851 24.8009 6.89034 24.8854 6.83217 24.966C6.79944 25.0121 6.77044 25.0543 6.73772 25.1004C6.66136 25.2079 6.58869 25.3115 6.51597 25.4114C6.50506 25.4267 6.49403 25.4421 6.48312 25.4574C6.40313 25.5688 6.31953 25.6802 6.23954 25.7838C6.21409 25.8184 6.1851 25.8567 6.15965 25.8913C6.10511 25.9643 6.05049 26.0334 5.99595 26.1025C5.96687 26.1409 5.93414 26.1793 5.90505 26.2177C5.85051 26.2829 5.79963 26.3482 5.74509 26.4135C5.716 26.448 5.69056 26.4787 5.66147 26.5133C5.58875 26.6016 5.51599 26.6823 5.44327 26.7667C5.436 26.7744 5.42871 26.7821 5.42144 26.7936C5.34508 26.878 5.26504 26.9625 5.18868 27.047C5.16323 27.0739 5.13424 27.1008 5.10879 27.1277C5.05425 27.1853 4.99609 27.239 4.94155 27.2927C4.91246 27.3196 4.88337 27.3503 4.85065 27.3772C4.79247 27.431 4.7343 27.4847 4.67612 27.5346C4.64704 27.5577 4.62159 27.5846 4.5925 27.6076C4.50887 27.6806 4.42162 27.7535 4.33436 27.8226C4.32345 27.8303 4.30887 27.8418 4.29796 27.8495C4.21434 27.9147 4.13073 27.9762 4.0471 28.0376C3.99256 28.076 3.9344 28.1144 3.87986 28.1528C3.83623 28.1835 3.79247 28.2142 3.74883 28.2411C3.63248 28.3179 3.51258 28.3909 3.38896 28.4677C3.29806 28.5214 3.21071 28.5713 3.11981 28.6174C3.09072 28.6327 3.058 28.6519 3.02891 28.6673C2.97073 28.698 2.90901 28.7325 2.85084 28.7633C2.81811 28.7825 2.78165 28.7978 2.74893 28.817C2.69802 28.8439 2.64715 28.8708 2.59624 28.8977C2.39626 28.9975 2.20717 29.0935 2.02901 29.1895C2.01446 29.1972 2.00005 29.2048 1.98551 29.2125C1.9237 29.2471 1.86188 29.2816 1.80371 29.3123C1.78916 29.32 1.77085 29.3315 1.7563 29.3392C1.69086 29.3776 1.62913 29.416 1.57095 29.4506C1.56732 29.4506 1.56003 29.4582 1.55639 29.4582C1.49095 29.5005 1.43277 29.5427 1.37459 29.5849C1.37459 29.5849 1.37095 29.5849 1.36731 29.5888C1.33095 29.6156 1.29831 29.6426 1.26558 29.6694C1.25468 29.6809 1.2401 29.6925 1.22919 29.704C1.20374 29.727 1.18194 29.7462 1.16013 29.7692C1.14922 29.7807 1.13464 29.7961 1.12373 29.8076C1.10191 29.8345 1.08013 29.8575 1.06195 29.8844C1.05467 29.8921 1.04738 29.9036 1.04011 29.9113C1.01829 29.9459 0.996505 29.9804 0.978325 30.0188C0.974689 30.0303 0.967403 30.0419 0.963767 30.0534C0.952859 30.0803 0.94183 30.111 0.930922 30.1417C0.930922 30.1532 0.923728 30.1647 0.920092 30.1762C0.909184 30.2185 0.901983 30.2568 0.901983 30.2991C0.869259 30.8942 1.56731 31.2129 2.56358 31.8695C2.69811 31.9578 2.83624 32.0538 2.98168 32.1536C3.23984 32.3379 3.51626 32.5452 3.79624 32.7871C5.95966 34.6455 5.74138 36.0315 7.76301 38.3314C9.0138 39.7558 10.1882 40.4623 11.9371 41.5182C12.5444 41.8868 14.0569 42.7622 16.8458 43.7298C17.3839 43.9217 17.973 44.1214 18.6165 44.3172C18.6165 44.3095 18.6129 44.3019 18.6093 44.298C19.8201 44.6589 21.2127 45.0199 22.8125 45.3616C27.2448 46.3099 32.5788 46.9588 32.7752 46.1486C32.8952 45.661 31.0736 45.0122 31.2045 44.49C31.2736 44.2212 31.8153 44.1521 32.7716 44.1713C34.2224 44.1982 36.6221 44.4247 39.7599 44.4439C41.8543 44.4593 43.0725 44.3671 45.5049 44.1828C47.3048 44.0484 48.5592 43.8987 49.4355 43.7451C50.7226 43.5147 51.1953 43.2652 51.3916 42.9964C51.5553 43.031 51.7153 43.0655 51.8753 43.0962C51.748 42.8121 51.6206 42.5357 51.4934 42.2592C51.4497 42.121 51.3735 41.9636 51.2681 41.7754C50.13 39.3373 49.0209 37.2141 47.9992 35.398C48.1665 35.3212 48.6063 35.8894 49.199 36.5882C50.1189 37.6748 51.4098 39.0801 52.6133 38.8996C55.6385 38.4466 57.4856 28.0606 56.0785 24.8508C55.904 24.4438 55.6749 24.152 55.3913 24.0138C54.0205 23.3265 51.9662 26.4327 50.5263 25.5842C49.221 24.8163 50.3589 21.9404 49.6681 18.9917C48.6754 14.7759 44.4868 12.741 36.9493 9.08189C36.273 8.75553 35.6331 8.44067 35.015 8.14887C35.0296 8.21414 35.1241 8.31782 35.2804 8.44836C35.1168 8.35621 34.9532 8.26023 34.7895 8.16424C34.7895 8.1604 34.7895 8.15271 34.7895 8.14887C34.7495 8.12967 34.7095 8.11046 34.6695 8.09126C34.6222 8.06439 34.5787 8.03753 34.5314 8.01449C34.5314 8.01833 34.5315 8.02598 34.5351 8.02982C34.2261 7.88392 33.9206 7.74186 33.6261 7.60364C32.339 7.00851 31.1754 6.49787 30.0991 6.0832C32.9352 5.14635 35.7386 4.30551 38.6256 3.64511C42.5344 2.75434 45.4539 2.49325 51.297 1.96339C57.3946 1.41434 62.5142 1.30299 65.2303 1.2646C75.8402 1.11486 80.9742 1.36059 80.9815 1.22237C80.9888 1.03807 69.6226 -0.0254982 56.0529 0.00137844L56.0567 -0.00244141ZM51.5443 42.6201C51.548 42.5817 51.5516 42.5472 51.5516 42.5088C51.5516 42.5472 51.5516 42.5817 51.5443 42.6201ZM51.5479 42.455C51.5479 42.432 51.548 42.409 51.5408 42.3859C51.5444 42.409 51.5442 42.432 51.5479 42.455ZM39.7308 19.2489C39.469 18.8996 39.2037 18.5194 38.931 18.1048C39.2037 18.5156 39.4727 18.8957 39.7308 19.2489Z" fill="#2A1D74"/>
<path d="M130.431 27.0086C120.937 27.4694 115.676 28.1835 115.676 28.1835C115.676 28.1835 112.847 28.5675 108.277 29.9727C107.731 30.1532 107.255 30.3567 106.859 30.5717C106.499 30.6216 106.135 30.6984 105.768 30.8021C105.633 30.8405 105.506 30.8827 105.375 30.9249C103.103 31.6928 101.623 33.2287 101.103 33.7816C100.667 34.2423 100.318 34.6915 100.027 35.1408C99.714 35.6169 99.4705 36.0929 99.2523 36.5844C98.8123 37.4444 98.5506 38.1932 98.3579 38.8919C97.8488 40.2358 97.2016 41.7716 95.9035 43.699C95.8454 43.7835 95.7908 43.8642 95.7363 43.9486C95.7109 43.987 95.6817 44.0293 95.6562 44.0677C95.5872 44.1713 95.5181 44.2711 95.4526 44.3671C95.4308 44.4017 95.4091 44.4324 95.3873 44.4631C95.34 44.5284 95.2963 44.5975 95.2527 44.6589C95.2272 44.6935 95.2017 44.7319 95.1799 44.7664C95.1363 44.8279 95.0964 44.8893 95.0528 44.9469C95.031 44.9776 95.0091 45.0122 94.9873 45.0429C94.9327 45.1197 94.8782 45.1965 94.8273 45.2694C94.82 45.281 94.8127 45.2925 94.8055 45.3001C94.7473 45.3808 94.6891 45.4576 94.6309 45.5343C94.6128 45.5612 94.5909 45.5842 94.5727 45.6111C94.5327 45.661 94.4964 45.7148 94.4564 45.7609C94.4346 45.7877 94.4127 45.8147 94.3909 45.8415C94.3509 45.8876 94.3145 45.9375 94.2782 45.9797C94.26 46.0028 94.2383 46.0296 94.2201 46.0527C94.1692 46.1141 94.1146 46.1755 94.0637 46.2331C94.0601 46.2408 94.0528 46.2447 94.0491 46.2523C93.9946 46.3138 93.9364 46.3752 93.8819 46.4328C93.8637 46.452 93.8419 46.4712 93.8237 46.4904C93.7837 46.5326 93.7438 46.571 93.7038 46.6094C93.682 46.6286 93.6601 46.6516 93.6383 46.6708C93.5983 46.7092 93.5547 46.7476 93.5147 46.7822C93.4966 46.8014 93.4747 46.8168 93.4565 46.8359C93.3947 46.8897 93.3328 46.9396 93.271 46.9895C93.2637 46.9972 93.2529 47.001 93.2456 47.0087C93.1874 47.0548 93.1256 47.1008 93.0638 47.1431C93.0238 47.17 92.9838 47.1969 92.9438 47.2276C92.9111 47.2506 92.8821 47.2698 92.8493 47.2928C92.7657 47.3466 92.6785 47.4004 92.5912 47.4541C92.5257 47.4925 92.4638 47.5271 92.3984 47.5616C92.3766 47.5731 92.3549 47.5847 92.333 47.5962C92.2894 47.6192 92.2494 47.6423 92.2057 47.6653C92.1803 47.6768 92.1548 47.6922 92.133 47.7037C92.0966 47.7229 92.0602 47.7421 92.0202 47.7613C91.8784 47.8342 91.7404 47.9033 91.6131 47.9724C91.6022 47.9763 91.5913 47.984 91.584 47.9878C91.5404 48.0108 91.4966 48.0377 91.453 48.0607C91.4421 48.0684 91.4312 48.0723 91.4203 48.08C91.373 48.1068 91.3294 48.1337 91.2857 48.1606C91.2857 48.1606 91.2785 48.1644 91.2749 48.1683C91.2276 48.199 91.1841 48.2297 91.1441 48.2604C91.1441 48.2604 91.144 48.2604 91.1403 48.2604C91.1149 48.2796 91.0895 48.2988 91.0677 48.318C91.0568 48.3257 91.0494 48.3334 91.0422 48.3411C91.024 48.3564 91.0095 48.3718 90.9949 48.3871C90.9877 48.3948 90.9768 48.4063 90.9695 48.414C90.955 48.4332 90.9404 48.4524 90.9259 48.4716C90.9222 48.4793 90.9149 48.4831 90.9113 48.4908C90.8931 48.5138 90.8785 48.5407 90.8676 48.5676C90.864 48.5753 90.8604 48.5829 90.8568 48.5906C90.8495 48.6098 90.8386 48.6328 90.835 48.652C90.835 48.6597 90.8313 48.6674 90.8277 48.6789C90.8204 48.7096 90.8168 48.7365 90.8131 48.7672C90.7877 49.1934 91.2894 49.4238 92.0057 49.896C92.1038 49.9613 92.202 50.0266 92.3075 50.0995C92.4929 50.2301 92.6894 50.3798 92.893 50.5564C94.4492 51.8926 94.2891 52.887 95.7471 54.5419C96.6489 55.5632 97.4888 56.0739 98.7468 56.8341C99.1832 57.099 100.27 57.7287 102.274 58.4236C102.659 58.5618 103.085 58.7039 103.546 58.846C103.546 58.8422 103.546 58.8345 103.543 58.8306C104.415 59.0917 105.415 59.349 106.564 59.5947C109.749 60.2743 113.585 60.7427 113.727 60.1591C113.811 59.8097 112.506 59.3413 112.597 58.965C112.644 58.773 113.036 58.7231 113.724 58.7385C114.767 58.7577 116.491 58.9189 118.749 58.9343C120.254 58.9458 121.13 58.8767 122.879 58.7462C124.174 58.6463 125.075 58.5426 125.704 58.4313C126.631 58.2662 126.97 58.0857 127.111 57.8938C127.228 57.9206 127.344 57.9437 127.457 57.9667C127.366 57.7632 127.275 57.5636 127.184 57.3677C127.151 57.2679 127.1 57.1566 127.024 57.0222C126.206 55.2714 125.406 53.7432 124.675 52.4378C124.795 52.3841 125.112 52.791 125.537 53.294C126.199 54.0734 127.126 55.0833 127.991 54.9566C130.166 54.6302 131.493 47.1661 130.482 44.8586C130.355 44.5668 130.191 44.3595 129.988 44.2558C129.002 43.7605 127.526 45.9951 126.49 45.3846C125.552 44.8317 126.37 42.7661 125.872 40.6466C125.159 37.6172 122.148 36.1544 116.731 33.5243C116.247 33.2901 115.782 33.0636 115.342 32.8524C115.353 32.9023 115.422 32.9753 115.531 33.0674C115.414 32.9983 115.294 32.933 115.178 32.8639C115.178 32.8639 115.178 32.8562 115.178 32.8524C115.149 32.837 115.12 32.8255 115.091 32.8102C115.058 32.791 115.025 32.7717 114.993 32.7525C114.993 32.7564 114.993 32.7602 114.993 32.7641C114.771 32.6604 114.553 32.5567 114.338 32.4569C113.411 32.0269 112.578 31.6621 111.804 31.3665C113.844 30.6907 115.858 30.0879 117.934 29.6157C120.741 28.9783 122.843 28.7863 127.042 28.4062C131.427 28.0108 135.107 27.9301 137.056 27.9032C144.681 27.7957 148.375 27.9724 148.378 27.8725C148.382 27.742 140.216 26.9779 130.46 26.9933L130.431 27.0086ZM127.188 57.6442C127.188 57.6174 127.191 57.5904 127.191 57.5636C127.191 57.5904 127.191 57.6174 127.188 57.6442ZM127.188 57.5252C127.188 57.5252 127.188 57.4906 127.184 57.4753C127.184 57.4906 127.188 57.5098 127.188 57.5252ZM118.694 40.8463C118.509 40.5929 118.312 40.3203 118.12 40.0246C118.316 40.3203 118.509 40.5929 118.694 40.8463Z" fill="#2A1D74"/>
<path d="M77.6289 60.474C71.6913 60.7619 68.397 61.2111 68.397 61.2111C68.397 61.2111 66.6263 61.453 63.7684 62.3284C63.4266 62.4398 63.1285 62.5703 62.8812 62.7047C62.6558 62.7354 62.4302 62.7815 62.1975 62.8506C62.1139 62.8736 62.034 62.9005 61.954 62.9274C60.5323 63.4074 59.6051 64.3672 59.2814 64.7166C59.0087 65.0046 58.7907 65.2887 58.6089 65.569C58.4126 65.8685 58.2598 66.1641 58.1253 66.4713C57.849 67.0088 57.6853 67.4773 57.5653 67.915C57.249 68.7558 56.8417 69.7157 56.0309 70.9213C55.9945 70.975 55.9618 71.025 55.9254 71.0787C55.9072 71.1056 55.8928 71.1286 55.8746 71.1555C55.831 71.2208 55.791 71.2822 55.7473 71.3436C55.7328 71.3628 55.7183 71.3859 55.7074 71.4051C55.6783 71.4473 55.6492 71.4895 55.6238 71.5279C55.6092 71.551 55.5909 71.574 55.5764 71.5932C55.5509 71.6316 55.5219 71.67 55.4965 71.7046C55.4819 71.7238 55.4674 71.7429 55.4528 71.766C55.4201 71.8159 55.3838 71.862 55.3511 71.908C55.3474 71.9157 55.3402 71.9234 55.3365 71.9273C55.3002 71.9772 55.2637 72.0271 55.2273 72.0732C55.2164 72.0885 55.2018 72.1039 55.1909 72.1192C55.1655 72.1499 55.1438 72.1845 55.1183 72.2152C55.1038 72.2306 55.0929 72.2498 55.0784 72.2651C55.0529 72.2958 55.031 72.3227 55.0056 72.3534C54.9947 72.3688 54.9801 72.3841 54.9692 72.3995C54.9365 72.4379 54.9037 72.4763 54.871 72.5147C54.871 72.5147 54.8638 72.5224 54.8602 72.5262C54.8238 72.5646 54.7911 72.603 54.7547 72.6376C54.7438 72.6491 54.7292 72.6606 54.7183 72.6721C54.6929 72.699 54.6674 72.722 54.642 72.7451C54.6274 72.7566 54.6166 72.7719 54.602 72.7835C54.5766 72.8065 54.5511 72.8296 54.5257 72.8526C54.5148 72.8641 54.5002 72.8756 54.4893 72.8871C54.4529 72.9217 54.4128 72.9524 54.3728 72.9831C54.3692 72.987 54.3621 72.9908 54.3584 72.9947C54.3221 73.0254 54.2821 73.0522 54.2457 73.0791C54.2203 73.0983 54.1948 73.1137 54.1694 73.1329C54.1512 73.1482 54.1293 73.1597 54.1111 73.1751C54.0602 73.2097 54.0056 73.2442 53.9474 73.2749C53.9074 73.298 53.8674 73.321 53.8274 73.3441C53.8129 73.3517 53.802 73.3594 53.7875 73.3671C53.762 73.3824 53.733 73.3939 53.7076 73.4093C53.693 73.417 53.6747 73.4247 53.6602 73.4324C53.6384 73.4439 53.6129 73.4554 53.5911 73.4669C53.5002 73.513 53.4167 73.5552 53.3367 73.5974C53.3294 73.5974 53.3257 73.6051 53.3184 73.609C53.2893 73.6243 53.2639 73.6397 53.2348 73.655C53.2275 73.6589 53.2202 73.6627 53.213 73.6666C53.1839 73.6819 53.1548 73.7011 53.1293 73.7165C53.1293 73.7165 53.1257 73.7165 53.1221 73.7203C53.093 73.7395 53.0676 73.7587 53.0422 73.7779C53.0276 73.7895 53.0095 73.801 52.9949 73.8163C52.9877 73.8202 52.984 73.8278 52.9804 73.8316C52.9695 73.8432 52.9585 73.8509 52.9513 73.8624C52.944 73.8662 52.9403 73.8739 52.9367 73.8777C52.9258 73.8892 52.9185 73.9008 52.9076 73.9123C52.9076 73.9161 52.9003 73.92 52.9003 73.9238C52.8894 73.9391 52.8821 73.9546 52.8712 73.9699C52.8712 73.9737 52.8676 73.9814 52.8639 73.9852C52.8566 73.9967 52.853 74.0121 52.8494 74.0236C52.8494 74.0275 52.8494 74.0352 52.8458 74.039C52.8422 74.0582 52.8385 74.0774 52.8385 74.0966C52.824 74.3654 53.1366 74.5074 53.5838 74.8031C53.6457 74.8414 53.7075 74.8837 53.7729 74.9298C53.8893 75.0143 54.013 75.1064 54.1403 75.2139C55.1147 76.0509 55.0128 76.6729 55.9254 77.7058C56.489 78.347 57.0163 78.6618 57.8017 79.1379C58.0744 79.303 58.7542 79.6984 60.0087 80.1323C60.2523 80.2206 60.5142 80.309 60.8051 80.3973V80.3896C61.3505 80.5508 61.9758 80.7159 62.6957 80.8695C64.6883 81.2957 67.0881 81.5875 67.1754 81.2227C67.2299 81.0039 66.4117 80.7121 66.4699 80.4779C66.4989 80.3589 66.7464 80.3281 67.1754 80.3358C67.8262 80.3473 68.906 80.451 70.3168 80.4587C71.2585 80.4663 71.8077 80.4241 72.9021 80.3397C73.713 80.2782 74.2765 80.213 74.6692 80.1438C75.2473 80.0402 75.4618 79.9288 75.5491 79.806C75.6218 79.8213 75.6945 79.8367 75.7673 79.852C75.7091 79.7253 75.6545 79.5986 75.5963 79.4758C75.5781 79.4143 75.5418 79.3414 75.4946 79.2569C74.9819 78.1588 74.4837 77.2066 74.0256 76.3888C74.102 76.3542 74.2983 76.6115 74.5637 76.9263C74.9782 77.4139 75.5563 78.0475 76.098 77.9668C77.4579 77.7633 78.2906 73.0945 77.6543 71.6508C77.5743 71.4665 77.4725 71.336 77.3452 71.2746C76.7308 70.9674 75.8036 72.3611 75.1563 71.981C74.571 71.6355 75.0836 70.3415 74.7709 69.0169C74.3237 67.1202 72.4402 66.2064 69.0515 64.5592C68.7497 64.4133 68.4587 64.2712 68.1824 64.1407C68.1897 64.1714 68.2297 64.2175 68.3024 64.2751C68.2297 64.2329 68.1534 64.1906 68.0807 64.1484C68.0807 64.1484 68.0807 64.1445 68.0807 64.1407C68.0625 64.133 68.0443 64.1253 68.0262 64.1138C68.0044 64.1023 67.9862 64.0908 67.9644 64.0793C67.9644 64.0793 67.9644 64.0831 67.9644 64.0869C67.8262 64.0217 67.6879 63.9564 67.5534 63.8949C66.9753 63.6262 66.4517 63.3958 65.9681 63.2115C67.2444 62.7892 68.5062 62.4129 69.8042 62.1172C71.5604 61.7179 72.8766 61.5989 75.5018 61.3609C78.2434 61.1113 80.5486 61.0652 81.7667 61.046C86.5371 60.9769 88.8496 61.0883 88.8496 61.0268C88.8496 60.9462 83.7409 60.4663 77.636 60.4778L77.6289 60.474ZM75.6 79.6447C75.6 79.6447 75.6 79.6101 75.6 79.5948C75.6 79.6101 75.6 79.6293 75.6 79.6447ZM75.5855 79.7177C75.5927 79.6985 75.5964 79.6793 75.6 79.6562C75.6 79.6754 75.5927 79.6946 75.5855 79.7177ZM75.6 79.5718C75.6 79.5718 75.6 79.5525 75.6 79.541C75.6 79.5525 75.6 79.5602 75.6 79.5718Z" fill="#2A1D74"/>
</g>
</svg>
