<svg width="260" height="77" viewBox="0 0 260 77" fill="none" xmlns="http://www.w3.org/2000/svg">
<path d="M62.3398 32.3646C62.1762 32.3109 62.0126 32.2571 61.8417 32.2034C59.9255 31.5967 57.4348 30.9286 54.406 30.4218C54.4242 30.3796 54.4206 30.3258 54.3842 30.2836C53.8025 29.6501 52.4607 28.3869 50.3046 27.834C49.0392 27.5076 47.923 27.5383 47.134 27.6343C47.0794 27.642 47.0467 27.6765 47.0358 27.7226C47.0212 27.7802 47.0431 27.8493 47.1122 27.8724C47.7485 28.0759 48.6684 28.4867 49.4974 29.316C49.7192 29.5387 49.9083 29.7652 50.0682 29.9879C48.9702 29.9841 47.8721 30.0647 46.7813 30.2337C45.8759 30.3719 44.9342 30.5523 43.9816 30.752C43.9852 30.7174 43.9779 30.6829 43.9524 30.6522C43.3707 30.0186 42.029 28.7554 39.8728 28.2026C38.6075 27.8762 37.4913 27.9069 36.7022 28.0029C36.6477 28.0106 36.615 28.0451 36.6041 28.0912C36.5895 28.1488 36.6113 28.2179 36.6804 28.241C37.3167 28.4445 38.2366 28.8553 39.0657 29.6846C39.7383 30.3604 40.1092 31.0784 40.3164 31.6197C37.9639 32.2302 35.7169 32.8945 33.9207 33.4128C33.5026 32.9559 32.7317 32.2724 31.59 31.9499C30.9282 31.7618 30.3319 31.7464 29.8702 31.7887C29.8302 31.7887 29.7974 31.8117 29.7756 31.8424C29.7284 31.9077 29.7393 32.019 29.8302 32.0536C30.2011 32.211 30.6665 32.4836 31.0919 32.9559C31.4155 33.3168 31.6263 33.6931 31.7609 34.0156C31.3609 34.1231 31.0156 34.2037 30.7356 34.2613C28.7212 34.6722 27.1614 34.8104 26.4851 35.0254C25.6706 33.8659 24.2162 32.1266 21.9328 30.7136C19.813 29.4043 17.8132 28.8898 16.4533 28.6748C16.4024 28.6671 16.3624 28.6979 16.3478 28.7401C16.3333 28.7862 16.3479 28.8399 16.3952 28.8668C17.4023 29.3698 18.8894 30.322 20.093 32.0574C20.1002 32.069 20.1075 32.0805 20.1184 32.092C21.4819 34.077 21.5401 36.757 20.2493 38.7958C20.2202 38.838 20.1947 38.8841 20.1657 38.9264C18.9803 40.7233 17.4169 41.5987 16.4751 41.998C16.4061 42.0287 16.3988 42.1132 16.4387 42.1631C16.4569 42.1823 16.4824 42.1976 16.5151 42.1938C18.0858 42.1093 21.282 41.6371 24.0162 39.0761C25.2634 37.9089 26.056 36.6418 26.5578 35.6436C27.2414 35.9277 28.6921 36.2502 30.6301 36.7609C30.9755 36.853 31.3137 36.9413 31.6446 37.0335C31.5173 37.2754 31.3464 37.5288 31.1246 37.7745C30.6992 38.2468 30.2301 38.5194 29.8629 38.6768C29.772 38.7152 29.7611 38.8227 29.8084 38.888C29.8302 38.9148 29.8593 38.9379 29.9029 38.9417C30.3647 38.984 30.961 38.9686 31.6227 38.7805C32.5536 38.5155 33.2408 38.0125 33.688 37.5902C36.3386 38.3274 38.3893 38.9417 40.2183 39.4332C39.9965 39.9208 39.6475 40.4967 39.1021 41.0496C38.2767 41.8789 37.3531 42.2898 36.7168 42.4933C36.6477 42.5163 36.6259 42.5854 36.6405 42.643C36.6514 42.6853 36.6841 42.7236 36.7386 42.7313C37.524 42.8273 38.6439 42.858 39.9092 42.5317C41.8727 42.0287 43.1598 40.9383 43.8143 40.2664C45.8505 40.6465 47.9339 40.8461 50.7191 40.8653C53.6716 40.8845 57.7184 40.873 62.3689 39.1721C62.3653 39.1606 62.358 39.1491 62.3544 39.1375C62.3544 39.1375 62.3653 39.1606 62.3689 39.1721C62.9725 38.9532 63.587 38.7037 64.2088 38.4195C66.2304 37.5057 67.8084 36.4998 68.881 35.7395C68.9355 35.6896 68.9792 35.6474 69.0083 35.609C69.0083 35.609 69.0373 35.5629 69.0555 35.5092C69.0882 35.4132 67.2702 33.9657 62.3398 32.3454V32.3646ZM45.5123 34.1385C45.9814 34.1385 46.4504 34.1385 46.9231 34.1462C48.9775 34.1654 50.9918 34.2229 52.9552 34.3112C50.9881 34.2229 48.9775 34.1692 46.9231 34.1462C46.4504 34.1423 45.9814 34.1385 45.5123 34.1385Z" fill="#2A1D74"/>
<path d="M88.9045 48.2756C88.7773 48.2334 88.6463 48.1911 88.5154 48.1489C87.0138 47.6728 85.0685 47.1506 82.6978 46.7551C82.7124 46.7206 82.7087 46.6784 82.6796 46.6476C82.2251 46.1523 81.1743 45.1656 79.4872 44.7317C78.4982 44.4783 77.622 44.5013 77.0075 44.5743C76.9675 44.5781 76.9421 44.6088 76.9311 44.6434C76.9202 44.6895 76.9384 44.7432 76.9929 44.7624C77.4911 44.9198 78.211 45.2424 78.8582 45.8912C79.0327 46.064 79.1781 46.2445 79.3054 46.4173C78.4436 46.4173 77.5856 46.4787 76.7311 46.6092C76.0221 46.7167 75.2876 46.8588 74.5423 47.0162C74.5423 46.9893 74.5386 46.9625 74.5168 46.9395C74.0623 46.4442 73.0115 45.4574 71.3243 45.0235C70.3354 44.7701 69.4591 44.7932 68.8447 44.8661C68.8047 44.8699 68.7791 44.9007 68.7682 44.9352C68.7573 44.9813 68.7756 45.035 68.8301 45.0542C69.3282 45.2155 70.0481 45.5342 70.6953 46.1869C71.2225 46.7168 71.5134 47.2773 71.6734 47.6997C69.8336 48.1758 68.0774 48.698 66.6702 49.1011C66.343 48.744 65.7395 48.2103 64.845 47.9569C64.3287 47.811 63.8596 47.7995 63.4996 47.8302C63.4669 47.8302 63.4415 47.8494 63.4269 47.8725C63.3906 47.9224 63.3979 48.0107 63.4706 48.0376C63.7615 48.1604 64.1251 48.3754 64.4596 48.744C64.7141 49.0243 64.8777 49.32 64.9832 49.5734C64.6705 49.6578 64.4014 49.7231 64.1833 49.7653C62.6089 50.0879 61.3871 50.1954 60.8563 50.3643C60.2163 49.4582 59.0819 48.0951 57.293 46.9932C55.635 45.968 54.0679 45.5649 53.0062 45.3998C52.9662 45.3921 52.9371 45.419 52.9262 45.4497C52.9153 45.4843 52.9261 45.5265 52.9625 45.5495C53.7515 45.9412 54.9114 46.6899 55.8531 48.0452C55.8604 48.0529 55.864 48.0644 55.8713 48.0721C56.9403 49.6233 56.9839 51.7235 55.9731 53.3169C55.9513 53.3515 55.9295 53.386 55.9077 53.4206C54.9805 54.8258 53.7588 55.5131 53.0207 55.8241C52.9662 55.8471 52.9625 55.9163 52.9952 55.9508C53.0098 55.9662 53.0279 55.9777 53.0534 55.9738C54.2823 55.9086 56.784 55.54 58.9256 53.5319C59.9 52.6181 60.5218 51.6275 60.9145 50.8442C61.449 51.0669 62.5834 51.3165 64.0996 51.7196C64.3723 51.7926 64.6341 51.8617 64.8923 51.9308C64.7905 52.119 64.6595 52.3186 64.485 52.5106C64.1505 52.883 63.7869 53.0942 63.496 53.2171C63.4269 53.2478 63.416 53.3323 63.4524 53.3822C63.467 53.4052 63.4924 53.4206 63.5251 53.4244C63.8851 53.4551 64.3541 53.4436 64.8704 53.2977C65.6013 53.0904 66.1357 52.6987 66.4848 52.3647C68.5573 52.9406 70.1645 53.4244 71.5934 53.8045C71.4189 54.1846 71.1498 54.6377 70.7172 55.0677C70.07 55.7166 69.35 56.0391 68.8518 56.1965C68.7973 56.2157 68.7792 56.2695 68.7901 56.3156C68.7973 56.3501 68.8264 56.377 68.8664 56.3847C69.4809 56.4615 70.3572 56.4845 71.3462 56.2273C72.8842 55.8318 73.8914 54.9794 74.4004 54.4572C75.993 54.7529 77.6256 54.9103 79.8036 54.9257C82.1161 54.941 85.2794 54.9333 88.9191 53.601C88.9154 53.5933 88.9118 53.5818 88.9082 53.5741C88.9082 53.5741 88.9154 53.5933 88.9191 53.601C89.3918 53.4282 89.8717 53.2324 90.3589 53.0136C91.9406 52.2994 93.1769 51.5123 94.0168 50.9172C94.0604 50.8788 94.0931 50.8442 94.115 50.8135C94.115 50.8135 94.1367 50.779 94.1513 50.7367C94.1767 50.6599 92.7551 49.5273 88.8972 48.2603L88.9045 48.2756ZM88.0173 50.2414C86.4902 50.0994 84.923 49.9804 83.3123 49.8882C84.923 49.9804 86.4939 50.0994 88.0173 50.2414ZM75.7385 49.6655C76.1058 49.6655 76.473 49.6655 76.8402 49.6732C76.4694 49.6732 76.1021 49.6693 75.7385 49.6655Z" fill="#2A1D74"/>
<path d="M253.438 8.49813C253.289 8.44821 253.136 8.39829 252.98 8.34838C251.213 7.78781 248.915 7.17347 246.122 6.70505C246.14 6.66665 246.137 6.61676 246.104 6.57836C245.57 5.99475 244.33 4.83138 242.341 4.32072C241.174 4.02124 240.145 4.0481 239.417 4.13641C239.37 4.14408 239.337 4.17481 239.327 4.21704C239.312 4.2708 239.334 4.33606 239.399 4.35526C239.985 4.5434 240.835 4.92352 241.599 5.68759C241.803 5.89492 241.977 6.10226 242.126 6.30959C241.112 6.30959 240.097 6.37869 239.094 6.53611C238.258 6.66665 237.389 6.82791 236.512 7.01605C236.512 6.98533 236.509 6.95078 236.483 6.9239C235.949 6.3403 234.709 5.17692 232.72 4.66626C231.553 4.36678 230.524 4.39366 229.797 4.48197C229.749 4.48965 229.717 4.52038 229.706 4.56261C229.691 4.61636 229.713 4.68163 229.778 4.70083C230.364 4.88896 231.215 5.26907 231.978 6.03313C232.6 6.65898 232.942 7.31938 233.131 7.81852C230.96 8.38293 228.891 8.99341 227.233 9.47336C226.844 9.05101 226.135 8.42132 225.081 8.12568C224.47 7.9529 223.921 7.94138 223.495 7.97593C223.459 7.97593 223.43 7.99897 223.408 8.02585C223.364 8.08728 223.375 8.18711 223.459 8.22167C223.801 8.36757 224.23 8.61713 224.622 9.05484C224.921 9.38888 225.113 9.73445 225.241 10.0339C224.87 10.1299 224.553 10.2105 224.295 10.2605C222.437 10.6406 220.997 10.7673 220.376 10.9631C219.623 9.89571 218.281 8.29077 216.176 6.98917C214.223 5.77972 212.376 5.30747 211.122 5.10782C211.075 5.10014 211.038 5.13084 211.027 5.16924C211.013 5.21147 211.027 5.26138 211.071 5.28442C212.002 5.749 213.369 6.62827 214.482 8.22935C214.489 8.24087 214.496 8.25237 214.503 8.26005C215.761 10.0915 215.816 12.5603 214.627 14.4417C214.602 14.4839 214.576 14.5223 214.547 14.5646C213.453 16.2232 212.013 17.0296 211.144 17.3981C211.078 17.425 211.075 17.5056 211.111 17.5479C211.126 17.5671 211.151 17.5786 211.18 17.5786C212.631 17.5018 215.576 17.0641 218.099 14.7028C219.248 13.6277 219.983 12.4567 220.445 11.5352C221.077 11.8001 222.412 12.0919 224.201 12.568C224.521 12.6525 224.833 12.737 225.135 12.8176C225.019 13.0403 224.862 13.2745 224.655 13.501C224.262 13.9387 223.83 14.1883 223.492 14.3342C223.408 14.3687 223.397 14.4686 223.441 14.53C223.459 14.5569 223.488 14.5761 223.528 14.5799C223.953 14.6183 224.502 14.603 225.113 14.4302C225.975 14.1844 226.604 13.7237 227.019 13.3321C229.462 14.0117 231.356 14.5799 233.04 15.0291C232.836 15.4784 232.516 16.0121 232.011 16.5189C231.247 17.2868 230.396 17.6631 229.811 17.8512C229.749 17.8704 229.727 17.9357 229.738 17.9894C229.749 18.0278 229.778 18.0624 229.829 18.0701C230.556 18.1584 231.585 18.1852 232.753 17.8857C234.563 17.4212 235.752 16.4152 236.352 15.797C238.228 16.1464 240.152 16.3307 242.723 16.3499C245.446 16.3691 249.176 16.3576 253.467 14.7872C253.463 14.7757 253.46 14.7681 253.452 14.7565C253.452 14.7565 253.46 14.7757 253.467 14.7872C254.023 14.5838 254.59 14.3534 255.161 14.0961C257.027 13.2553 258.481 12.3261 259.47 11.6235C259.521 11.5774 259.557 11.539 259.586 11.5006C259.586 11.5006 259.612 11.4584 259.63 11.4085C259.659 11.3202 257.983 9.98401 253.438 8.49044V8.49813ZM237.916 10.1337C238.348 10.1337 238.781 10.1338 239.217 10.1414C241.112 10.1606 242.97 10.2105 244.781 10.2912C242.966 10.2105 241.112 10.1568 239.217 10.1414C238.781 10.1376 238.348 10.1337 237.916 10.1337Z" fill="#2A1D74"/>
<path d="M128.595 32.499C128.468 32.4567 128.337 32.4145 128.206 32.3723C126.705 31.8962 124.759 31.374 122.389 30.9785C122.403 30.944 122.4 30.9017 122.37 30.871C121.916 30.3757 120.865 29.389 119.178 28.9551C118.189 28.7017 117.313 28.7247 116.698 28.7977C116.658 28.8015 116.633 28.8323 116.622 28.8668C116.611 28.9129 116.629 28.9666 116.684 28.9858C117.182 29.1471 117.902 29.4658 118.549 30.1185C118.724 30.2913 118.869 30.4717 118.996 30.6445C118.135 30.6445 117.276 30.7059 116.422 30.8365C115.713 30.944 114.975 31.0861 114.233 31.2435C114.233 31.2166 114.229 31.1897 114.208 31.1667C113.753 30.6714 112.702 29.6846 111.015 29.2508C110.026 28.9974 109.15 29.0204 108.535 29.0933C108.495 29.0972 108.47 29.1279 108.459 29.1624C108.448 29.2085 108.466 29.2623 108.521 29.2815C109.019 29.4389 109.739 29.7614 110.386 30.4103C110.913 30.9401 111.204 31.5007 111.364 31.9231C109.524 32.3992 107.765 32.9213 106.361 33.3283C106.034 32.9713 105.43 32.4376 104.536 32.1842C104.02 32.0383 103.55 32.0267 103.191 32.0575C103.158 32.0575 103.132 32.0766 103.118 32.0997C103.081 32.1534 103.089 32.2379 103.161 32.2648C103.452 32.3876 103.816 32.6027 104.15 32.9713C104.405 33.2515 104.568 33.5472 104.674 33.8006C104.361 33.8851 104.089 33.9503 103.874 33.9926C102.3 34.3151 101.078 34.4226 100.547 34.5915C99.9108 33.6854 98.7727 32.3224 96.9838 31.2204C95.3258 30.1953 93.7587 29.7921 92.6969 29.627C92.6569 29.6193 92.6279 29.6462 92.617 29.6769C92.606 29.7115 92.617 29.7537 92.6534 29.7768C93.4424 30.1684 94.6022 30.9171 95.544 32.2725C95.5512 32.2801 95.5549 32.2917 95.5622 32.2993C96.6311 33.8505 96.6747 35.9507 95.6639 37.5441C95.6421 37.5787 95.6203 37.6132 95.5985 37.6478C94.6713 39.0531 93.4496 39.7403 92.7115 40.0513C92.6569 40.0744 92.6533 40.1435 92.686 40.178C92.7006 40.1934 92.7188 40.2049 92.7442 40.2011C93.9732 40.1358 96.4748 39.7672 98.6164 37.7591C99.5908 36.8453 100.213 35.8547 100.605 35.0715C101.14 35.2942 102.274 35.5437 103.79 35.9469C104.063 36.0198 104.325 36.089 104.583 36.1581C104.481 36.3462 104.35 36.5459 104.176 36.7378C103.841 37.1064 103.478 37.3214 103.187 37.4443C103.118 37.475 103.107 37.5595 103.143 37.6094C103.158 37.6324 103.183 37.6478 103.216 37.6516C103.576 37.6824 104.045 37.6708 104.561 37.5249C105.292 37.3176 105.827 36.926 106.176 36.5919C108.248 37.1679 109.855 37.6516 111.284 38.0318C111.11 38.4119 110.841 38.8649 110.412 39.2949C109.764 39.9438 109.044 40.2664 108.546 40.4238C108.492 40.4391 108.474 40.4967 108.484 40.5428C108.492 40.5774 108.521 40.6042 108.561 40.6119C109.175 40.6887 110.052 40.7117 111.041 40.4545C112.579 40.059 113.586 39.2067 114.095 38.6845C115.687 38.9801 117.32 39.1375 119.498 39.1529C121.81 39.1683 124.974 39.1606 128.613 37.8283C128.61 37.8206 128.606 37.809 128.603 37.8014C128.603 37.8014 128.61 37.8206 128.613 37.8283C129.086 37.6555 129.566 37.4597 130.053 37.2408C131.635 36.5267 132.871 35.7396 133.711 35.1444C133.755 35.106 133.788 35.0715 133.809 35.0407C133.809 35.0407 133.831 35.0062 133.846 34.964C133.871 34.8872 132.449 33.7545 128.592 32.4875L128.595 32.499ZM127.708 34.4648C126.181 34.3228 124.614 34.2037 123.003 34.1116C124.614 34.2037 126.185 34.3228 127.708 34.4648ZM115.429 33.8889C115.797 33.8889 116.164 33.8889 116.531 33.8966C116.16 33.8966 115.793 33.8927 115.429 33.8889Z" fill="#2A1D74"/>
<path d="M28.6121 56.2849C28.5103 56.2503 28.4086 56.2196 28.3031 56.185C27.1141 55.8088 25.5688 55.3941 23.6889 55.0792C23.6998 55.0524 23.6962 55.0178 23.6744 54.9948C23.3144 54.5993 22.4818 53.8199 21.1437 53.4743C20.3583 53.2747 19.6675 53.29 19.1767 53.3515C19.1439 53.3553 19.1222 53.3783 19.1149 53.4052C19.104 53.4398 19.1185 53.4858 19.1621 53.4974C19.5548 53.6241 20.1293 53.8775 20.642 54.3958C20.7802 54.534 20.8965 54.6761 20.9947 54.8143C20.3111 54.8143 19.6311 54.8604 18.9548 54.9641C18.3913 55.0524 17.8095 55.1599 17.2205 55.2866C17.2205 55.2636 17.2205 55.2443 17.2023 55.2251C16.8424 54.8297 16.0097 54.0503 14.6716 53.7047C13.8862 53.5051 13.1954 53.5204 12.7045 53.5818C12.6718 53.5857 12.65 53.6087 12.6428 53.6356C12.6319 53.6702 12.6464 53.7162 12.69 53.7277C13.0827 53.8545 13.6572 54.1078 14.1699 54.6262C14.588 55.0447 14.817 55.4901 14.9443 55.828C13.4863 56.2081 12.0901 56.6189 10.9774 56.9414C10.7156 56.6573 10.2393 56.235 9.53032 56.0353C9.11945 55.9201 8.7486 55.9086 8.46499 55.9355C8.43954 55.9355 8.4213 55.9508 8.40675 55.97C8.37767 56.0123 8.38497 56.0775 8.43951 56.1006C8.66858 56.1966 8.95943 56.3655 9.22486 56.6611C9.42484 56.8838 9.55579 57.118 9.64305 57.3177C9.3958 57.383 9.18128 57.4367 9.00675 57.4713C7.75596 57.7247 6.78878 57.8092 6.37064 57.9435C5.86523 57.2255 4.96349 56.1466 3.54545 55.2674C2.22921 54.4534 0.989295 54.1347 0.14574 54.0042C0.113016 54.0003 0.0912245 54.0195 0.0803164 54.0464C0.0694084 54.0733 0.0803449 54.1078 0.109433 54.1232C0.734828 54.4342 1.65467 55.0255 2.40369 56.1044C2.40733 56.1121 2.41461 56.1198 2.41825 56.1274C3.26544 57.3599 3.30179 59.0224 2.50187 60.2856C2.48369 60.3125 2.46555 60.3394 2.44737 60.3663C1.71289 61.4797 0.742057 62.025 0.156659 62.2745C0.113026 62.2937 0.109369 62.3475 0.134821 62.3743C0.145729 62.3859 0.160319 62.3936 0.182136 62.3936C1.15659 62.3398 3.13823 62.048 4.83625 60.4584C5.61072 59.7328 6.10153 58.9495 6.41423 58.3275C6.83964 58.5041 7.73781 58.7038 8.94133 59.0224C9.15585 59.08 9.36673 59.1338 9.57035 59.1914C9.49036 59.3411 9.38486 59.4986 9.2467 59.6521C8.98127 59.9478 8.69405 60.1167 8.46135 60.2127C8.40681 60.2357 8.3995 60.3048 8.42859 60.3432C8.44314 60.3624 8.46137 60.374 8.48682 60.3778C8.77407 60.4047 9.14128 60.3932 9.55215 60.278C10.1303 60.1129 10.5557 59.8019 10.832 59.537C12.4755 59.9939 13.7481 60.374 14.8825 60.6811C14.7443 60.9844 14.5299 61.3415 14.1881 61.6832C13.6754 62.1977 13.1045 62.455 12.7082 62.5817C12.6646 62.5971 12.6501 62.6393 12.661 62.6738C12.6682 62.7007 12.69 62.7238 12.7227 62.7276C13.21 62.789 13.9044 62.8044 14.6898 62.6047C15.9079 62.2937 16.7078 61.618 17.1114 61.1994C18.3731 61.4337 19.6675 61.5604 21.3982 61.5719C23.2308 61.5834 25.7397 61.5757 28.6267 60.5199C28.6267 60.5122 28.6194 60.5045 28.6194 60.5007C28.6194 60.5007 28.6267 60.516 28.6267 60.5199C29.0012 60.3816 29.3829 60.2281 29.7683 60.0553C31.0228 59.487 32.0009 58.865 32.6663 58.3928C32.699 58.362 32.7245 58.3352 32.7427 58.3121C32.7427 58.3121 32.7608 58.2853 32.7717 58.2507C32.7899 58.1893 31.6627 57.2908 28.6048 56.2887L28.6121 56.2849ZM27.9067 57.8437C26.696 57.7324 25.4524 57.6364 24.1762 57.5634C25.4524 57.6364 26.6996 57.7324 27.9067 57.8437ZM18.1695 57.3868C18.4604 57.3868 18.7512 57.3868 19.0421 57.3906C18.7476 57.3906 18.4567 57.3868 18.1695 57.3868Z" fill="#2A1D74"/>
<path d="M114.949 7.36931C114.698 7.28868 114.448 7.20421 114.186 7.12358C111.244 6.19057 107.43 5.16926 102.787 4.39368C102.816 4.32841 102.809 4.24392 102.754 4.18633C101.863 3.21493 99.8053 1.27982 96.5001 0.431284C94.5621 -0.0678544 92.8496 -0.0217754 91.6425 0.124127C91.5625 0.135645 91.5115 0.189389 91.4933 0.258501C91.4679 0.34681 91.5079 0.454307 91.6133 0.488863C92.5878 0.799864 94.0022 1.42955 95.2676 2.70428C95.6057 3.04599 95.8966 3.39539 96.1438 3.73711C94.4603 3.72943 92.7733 3.85613 91.1043 4.11338C89.7154 4.32839 88.2719 4.601 86.8138 4.90816C86.8211 4.85441 86.8065 4.80065 86.7665 4.75841C85.8757 3.78701 83.8177 1.8519 80.5126 1.00337C78.5746 0.504231 76.8621 0.55031 75.6549 0.696212C75.5749 0.707731 75.524 0.761475 75.5058 0.830586C75.484 0.918895 75.5204 1.02639 75.6258 1.06095C76.6003 1.37195 78.0147 2.00164 79.28 3.27636C80.3126 4.31303 80.8799 5.41497 81.1962 6.24431C77.5893 7.18115 74.146 8.1948 71.3899 8.99342C70.7463 8.29079 69.5646 7.24643 67.8157 6.75113C66.8012 6.46316 65.8886 6.44398 65.1795 6.50542C65.1177 6.50926 65.0668 6.5438 65.0377 6.58603C64.965 6.68586 64.9831 6.85481 65.1213 6.91241C65.6885 7.1543 66.4048 7.5728 67.0593 8.29847C67.5575 8.85136 67.8775 9.42728 68.0883 9.92258C67.4739 10.0838 66.9466 10.2144 66.5176 10.3027C63.4306 10.9324 61.0381 11.1436 60.0019 11.4738C58.7511 9.69606 56.5222 7.03142 53.0207 4.86593C49.7738 2.85786 46.7049 2.07075 44.6215 1.74055C44.5415 1.72903 44.4834 1.77895 44.4615 1.84038C44.4397 1.9095 44.4579 1.99396 44.5342 2.03236C46.0795 2.8041 48.3557 4.26696 50.1992 6.92391C50.2101 6.94311 50.2246 6.95847 50.2355 6.97767C52.3298 10.0186 52.4171 14.1269 50.4391 17.2561C50.3955 17.3252 50.3518 17.3905 50.3082 17.4596C48.4902 20.2164 46.0941 21.5564 44.6543 22.1707C44.5452 22.2168 44.5378 22.3511 44.5997 22.4202C44.6251 22.451 44.6651 22.4701 44.716 22.4701C47.1267 22.3434 52.0208 21.6178 56.2167 17.69C58.1293 15.9007 59.3474 13.9579 60.111 12.426C61.1618 12.8637 63.3797 13.3551 66.3503 14.1384C66.8812 14.2805 67.4011 14.4187 67.9065 14.553C67.7102 14.9216 67.4521 15.3133 67.1103 15.6934C66.4558 16.4191 65.7395 16.8376 65.1723 17.0795C65.0341 17.1371 65.0159 17.306 65.0886 17.4058C65.1214 17.448 65.1686 17.4826 65.2304 17.4865C65.9358 17.5479 66.8521 17.5287 67.8665 17.2407C69.2955 16.8337 70.3463 16.0658 71.0335 15.4131C75.0949 16.5458 78.2401 17.4865 81.0434 18.2352C80.7053 18.9839 80.1708 19.867 79.3309 20.7117C78.0655 21.9864 76.6475 22.6161 75.6767 22.9271C75.5712 22.9616 75.5349 23.0691 75.5604 23.1574C75.5786 23.2227 75.6294 23.2803 75.7094 23.2918C76.9166 23.4416 78.6292 23.4838 80.5672 22.9847C83.5778 22.2129 85.5521 20.5427 86.552 19.5137C89.6717 20.0973 92.8714 20.4045 97.1401 20.4314C101.671 20.4621 107.87 20.4467 115 17.832C114.993 17.8167 114.986 17.7975 114.978 17.7821C114.978 17.7821 114.993 17.8167 115 17.832C115.924 17.4941 116.865 17.1102 117.818 16.6802C120.916 15.2787 123.338 13.7352 124.981 12.5719C125.065 12.4989 125.13 12.4298 125.174 12.3684C125.174 12.3684 125.217 12.2993 125.243 12.2148C125.29 12.065 122.505 9.8458 114.949 7.36547V7.36931ZM91.3115 10.0992C94.464 10.1299 97.5474 10.2144 100.562 10.3488C97.5474 10.2144 94.464 10.1261 91.3115 10.0992Z" fill="#2A1D74"/>
<path d="M157.992 52.6143C157.829 52.5605 157.665 52.5068 157.494 52.453C155.578 51.8464 153.087 51.1783 150.059 50.6715C150.077 50.6292 150.073 50.5755 150.037 50.5371C149.455 49.9036 148.113 48.6404 145.957 48.0875C144.692 47.765 143.576 47.7918 142.787 47.8878C142.732 47.8955 142.699 47.93 142.688 47.9761C142.674 48.0337 142.696 48.1028 142.765 48.1259C143.401 48.3294 144.321 48.7402 145.15 49.5695C145.372 49.7922 145.561 50.0188 145.721 50.2414C144.623 50.2376 143.525 50.3182 142.434 50.4872C141.529 50.6254 140.587 50.8059 139.634 51.0055C139.634 50.971 139.631 50.9364 139.605 50.9057C139.023 50.2722 137.682 49.009 135.526 48.4561C134.26 48.1297 133.144 48.1604 132.355 48.2564C132.3 48.2641 132.268 48.2986 132.257 48.3447C132.242 48.4023 132.264 48.4714 132.333 48.4945C132.969 48.698 133.889 49.1088 134.718 49.9381C135.391 50.6139 135.762 51.3319 135.969 51.8732C133.617 52.4837 131.37 53.148 129.573 53.6663C129.155 53.2094 128.384 52.526 127.243 52.2034C126.581 52.0153 125.985 52.0038 125.523 52.0422C125.483 52.0422 125.45 52.0652 125.428 52.0959C125.381 52.1612 125.392 52.2726 125.483 52.3071C125.854 52.4645 126.319 52.7371 126.745 53.2094C127.068 53.5703 127.279 53.9466 127.417 54.2691C127.017 54.3766 126.672 54.4611 126.392 54.5148C124.377 54.9257 122.818 55.0639 122.141 55.2789C121.327 54.1194 119.872 52.3801 117.589 50.9671C115.469 49.6578 113.469 49.1433 112.11 48.9283C112.059 48.9207 112.019 48.9514 112.004 48.9936C111.99 49.0397 112.004 49.0934 112.051 49.1203C113.059 49.6233 114.546 50.5755 115.749 52.311C115.757 52.3225 115.764 52.334 115.775 52.3455C117.138 54.3305 117.196 57.0105 115.906 59.0493C115.877 59.0916 115.851 59.1376 115.822 59.1799C114.637 60.9768 113.073 61.8522 112.131 62.2515C112.062 62.2822 112.055 62.3667 112.095 62.4166C112.113 62.4358 112.139 62.4511 112.171 62.4473C113.742 62.3628 116.938 61.8906 119.672 59.3296C120.92 58.1624 121.712 56.8953 122.214 55.8971C122.898 56.1812 124.345 56.5037 126.286 57.0144C126.632 57.1065 126.97 57.1948 127.301 57.2831C127.174 57.525 127.003 57.7784 126.781 58.0242C126.355 58.4964 125.886 58.769 125.519 58.9265C125.428 58.9648 125.417 59.0723 125.465 59.1376C125.487 59.1645 125.516 59.1875 125.559 59.1914C126.021 59.2336 126.617 59.2183 127.279 59.0301C128.214 58.7652 128.897 58.2622 129.344 57.8399C131.995 58.577 134.046 59.1914 135.875 59.6828C135.653 60.1705 135.307 60.7464 134.758 61.2993C133.933 62.1286 133.009 62.5395 132.373 62.7429C132.304 62.766 132.282 62.8351 132.297 62.8927C132.308 62.9349 132.34 62.9733 132.395 62.981C133.18 63.077 134.3 63.1077 135.566 62.7813C137.529 62.2783 138.816 61.1879 139.471 60.516C141.507 60.8961 143.59 61.0958 146.375 61.115C149.328 61.1342 153.375 61.1227 158.025 59.4217C158.021 59.4102 158.014 59.3987 158.011 59.3872C158.011 59.3872 158.021 59.4102 158.025 59.4217C158.629 59.1991 159.24 58.9533 159.865 58.6692C161.887 57.7554 163.465 56.7495 164.537 55.9892C164.592 55.9393 164.635 55.8971 164.664 55.8587C164.664 55.8587 164.694 55.8126 164.712 55.7588C164.745 55.6629 162.927 54.2154 157.996 52.5951L157.992 52.6143ZM141.165 54.3881C141.634 54.3881 142.103 54.3881 142.576 54.3958C144.63 54.415 146.644 54.4726 148.608 54.5609C146.641 54.4726 144.63 54.415 142.576 54.3958C142.103 54.392 141.634 54.3881 141.165 54.3881Z" fill="#2A1D74"/>
<path d="M184.557 68.5253C184.43 68.483 184.299 68.4408 184.168 68.3986C182.667 67.9224 180.721 67.4003 178.351 67.0048C178.365 66.9702 178.361 66.928 178.332 66.8973C177.878 66.402 176.827 65.4153 175.14 64.9814C174.151 64.728 173.275 64.751 172.66 64.824C172.62 64.8278 172.595 64.8585 172.584 64.8931C172.573 64.9391 172.591 64.9929 172.646 65.0121C173.144 65.1695 173.864 65.492 174.511 66.1409C174.685 66.3137 174.831 66.4942 174.958 66.6669C174.1 66.6669 173.238 66.7284 172.384 66.8589C171.675 66.9664 170.94 67.1085 170.195 67.2659C170.195 67.239 170.191 67.2122 170.17 67.1891C169.715 66.6938 168.664 65.7071 166.977 65.2732C165.988 65.0198 165.112 65.0428 164.497 65.1158C164.457 65.1196 164.432 65.1503 164.421 65.1849C164.41 65.2309 164.428 65.2847 164.483 65.3039C164.981 65.4613 165.701 65.7838 166.348 66.4366C166.875 66.9664 167.166 67.527 167.326 67.9493C165.486 68.4254 163.726 68.9438 162.323 69.3508C161.996 68.9937 161.392 68.46 160.498 68.2066C159.981 68.0607 159.512 68.0492 159.152 68.0799C159.12 68.0799 159.094 68.0991 159.08 68.1221C159.043 68.172 159.051 68.2603 159.123 68.2872C159.414 68.4101 159.778 68.6251 160.112 68.9937C160.367 69.274 160.53 69.5696 160.636 69.823C160.323 69.9075 160.051 69.9728 159.836 70.015C158.262 70.3375 157.04 70.445 156.509 70.614C155.869 69.7078 154.735 68.3448 152.946 67.2429C151.288 66.2177 149.721 65.8146 148.659 65.6495C148.619 65.6418 148.59 65.6687 148.579 65.6994C148.568 65.7339 148.579 65.7762 148.615 65.7992C149.404 66.1908 150.564 66.9395 151.506 68.2949C151.513 68.3026 151.517 68.3141 151.524 68.3218C152.593 69.8729 152.637 71.9732 151.626 73.5666C151.604 73.6011 151.582 73.6357 151.56 73.6702C150.633 75.0755 149.411 75.7628 148.673 76.0738C148.619 76.0968 148.615 76.1659 148.648 76.2005C148.663 76.2158 148.681 76.2273 148.706 76.2235C149.935 76.1582 152.437 75.7858 154.578 73.7816C155.553 72.8678 156.174 71.8772 156.567 71.0939C157.102 71.3166 158.236 71.5662 159.752 71.9693C160.025 72.0423 160.287 72.1114 160.545 72.1805C160.443 72.3686 160.312 72.5683 160.138 72.7603C159.803 73.1289 159.44 73.3439 159.149 73.4667C159.08 73.4974 159.069 73.5819 159.105 73.6318C159.12 73.6549 159.145 73.6702 159.178 73.6741C159.538 73.7048 160.007 73.6933 160.523 73.5474C161.254 73.34 161.788 72.9484 162.138 72.6144C164.21 73.1903 165.817 73.6741 167.246 74.0542C167.072 74.4343 166.803 74.8874 166.374 75.3174C165.726 75.9663 165.006 76.2888 164.508 76.4462C164.454 76.4654 164.436 76.5191 164.446 76.5652C164.454 76.5998 164.483 76.6267 164.523 76.6343C165.137 76.7111 166.014 76.7342 167.003 76.4769C168.541 76.0815 169.548 75.2291 170.057 74.7069C171.649 75.0026 173.282 75.16 175.46 75.1753C177.772 75.1907 180.936 75.183 184.575 73.8507C184.575 73.843 184.568 73.8315 184.564 73.8238C184.564 73.8238 184.572 73.843 184.575 73.8507C185.048 73.6779 185.528 73.4821 186.015 73.2632C187.597 72.5491 188.833 71.762 189.673 71.1669C189.717 71.1285 189.749 71.0939 189.771 71.0632C189.771 71.0632 189.793 71.0286 189.808 70.9864C189.833 70.9096 188.411 69.777 184.554 68.5099L184.557 68.5253ZM183.67 70.4911C182.143 70.349 180.576 70.23 178.965 70.1379C180.576 70.23 182.147 70.349 183.67 70.4911ZM171.391 69.9152C171.758 69.9152 172.126 69.9152 172.493 69.9229C172.122 69.9229 171.755 69.919 171.391 69.9152Z" fill="#2A1D74"/>
<path d="M224.244 52.7487C224.117 52.7064 223.986 52.6642 223.855 52.622C222.354 52.1459 220.408 51.6237 218.038 51.2282C218.052 51.1936 218.048 51.1514 218.019 51.1207C217.565 50.6254 216.514 49.6386 214.827 49.2048C213.838 48.9514 212.962 48.9744 212.347 49.0474C212.307 49.0512 212.282 49.0819 212.271 49.1165C212.26 49.1625 212.278 49.2163 212.333 49.2355C212.831 49.3929 213.551 49.7154 214.198 50.3643C214.372 50.5371 214.518 50.7175 214.645 50.8903C213.787 50.8903 212.925 50.9518 212.071 51.0823C211.362 51.1898 210.627 51.3319 209.882 51.4893C209.882 51.4624 209.878 51.4355 209.857 51.4125C209.402 50.9172 208.351 49.9304 206.664 49.4966C205.675 49.2432 204.799 49.2662 204.184 49.3392C204.144 49.343 204.119 49.3737 204.108 49.4083C204.097 49.4543 204.115 49.5081 204.17 49.5273C204.668 49.6847 205.388 50.0072 206.035 50.6561C206.562 51.186 206.853 51.7465 207.013 52.1689C205.173 52.645 203.414 53.1633 202.01 53.5703C201.683 53.2132 201.079 52.6795 200.185 52.4261C199.668 52.2802 199.199 52.2687 198.839 52.2994C198.807 52.2994 198.781 52.3186 198.767 52.3417C198.73 52.3954 198.738 52.4799 198.81 52.5068C199.101 52.6296 199.465 52.8446 199.799 53.2132C200.054 53.4935 200.217 53.7892 200.323 54.0426C200.01 54.1271 199.741 54.1923 199.523 54.2346C197.949 54.5571 196.727 54.6646 196.196 54.8335C195.556 53.9274 194.422 52.5644 192.633 51.4624C190.975 50.4373 189.408 50.0341 188.346 49.869C188.306 49.8613 188.277 49.8882 188.266 49.9189C188.255 49.9535 188.266 49.9957 188.302 50.0187C189.091 50.4104 190.251 51.1591 191.197 52.5144C191.204 52.5221 191.207 52.5336 191.215 52.5413C192.284 54.0925 192.327 56.1927 191.316 57.7861C191.295 57.8207 191.273 57.8552 191.251 57.8898C190.324 59.295 189.102 59.9823 188.364 60.2933C188.31 60.3164 188.306 60.3855 188.339 60.42C188.353 60.4354 188.371 60.4469 188.397 60.4431C189.626 60.3778 192.127 60.0092 194.269 58.0011C195.243 57.0873 195.865 56.0967 196.258 55.3135C196.792 55.5362 197.927 55.7857 199.443 56.1889C199.716 56.2618 199.977 56.3309 200.236 56.4C200.134 56.5882 200.003 56.7878 199.828 56.9798C199.494 57.3522 199.13 57.5634 198.839 57.6863C198.77 57.717 198.759 57.8015 198.796 57.8514C198.81 57.8744 198.836 57.8898 198.868 57.8936C199.228 57.9243 199.697 57.9128 200.214 57.7669C200.945 57.5596 201.479 57.1679 201.828 56.8339C203.901 57.4098 205.508 57.8936 206.937 58.2737C206.762 58.6538 206.493 59.1069 206.064 59.5369C205.417 60.1858 204.697 60.5083 204.199 60.6696C204.144 60.6849 204.126 60.7426 204.137 60.7886C204.144 60.8232 204.173 60.8501 204.213 60.8577C204.828 60.9345 205.704 60.9576 206.693 60.7003C208.231 60.3048 209.238 59.4525 209.747 58.9303C211.34 59.2259 212.973 59.3833 215.151 59.3987C217.463 59.4141 220.626 59.4064 224.266 58.0741C224.266 58.0664 224.259 58.0549 224.255 58.0472C224.255 58.0472 224.262 58.0664 224.266 58.0741C224.739 57.9013 225.219 57.7055 225.706 57.4866C227.288 56.7725 228.524 55.9854 229.364 55.3902C229.407 55.3518 229.44 55.3173 229.462 55.2866C229.462 55.2866 229.484 55.252 229.498 55.2098C229.524 55.133 228.102 54.0003 224.244 52.7333V52.7487ZM223.357 54.7145C221.83 54.5724 220.263 54.4534 218.652 54.3612C220.263 54.4534 221.834 54.5724 223.357 54.7145ZM211.078 54.1386C211.445 54.1386 211.813 54.1386 212.18 54.1462C211.809 54.1462 211.442 54.1424 211.078 54.1386Z" fill="#2A1D74"/>
<path d="M176.038 7.04292C175.911 7.00069 175.78 6.95845 175.649 6.91621C174.147 6.44011 172.202 5.91796 169.831 5.52249C169.846 5.48793 169.842 5.44569 169.813 5.41497C169.359 4.91967 168.308 3.93292 166.621 3.49905C165.632 3.24564 164.755 3.26866 164.141 3.34162C164.101 3.34546 164.076 3.37619 164.065 3.41075C164.054 3.45682 164.072 3.51057 164.126 3.52977C164.625 3.69103 165.345 4.00969 165.992 4.66241C166.166 4.83519 166.312 5.01565 166.439 5.18843C165.581 5.18843 164.719 5.24986 163.865 5.3804C163.156 5.48791 162.417 5.62999 161.676 5.78742C161.676 5.76054 161.672 5.73366 161.65 5.71062C161.196 5.21532 160.145 4.22857 158.458 3.7947C157.469 3.54129 156.593 3.56432 155.978 3.63727C155.938 3.64111 155.913 3.67182 155.902 3.70638C155.891 3.75245 155.909 3.8062 155.964 3.8254C156.462 3.98666 157.182 4.30535 157.829 4.95806C158.356 5.48792 158.647 6.04849 158.807 6.47084C156.967 6.94694 155.207 7.46913 153.804 7.87228C153.477 7.5152 152.873 6.98149 151.979 6.72808C151.462 6.58218 150.993 6.57068 150.633 6.60139C150.6 6.60139 150.575 6.62058 150.561 6.64362C150.524 6.69354 150.531 6.78184 150.604 6.80872C150.895 6.93158 151.259 7.14661 151.593 7.5152C151.848 7.79549 152.011 8.09112 152.117 8.34453C151.804 8.429 151.535 8.49427 151.317 8.53651C149.742 8.85903 148.521 8.96653 147.99 9.13547C147.35 8.22934 146.215 6.8663 144.427 5.76436C142.768 4.7392 141.201 4.33607 140.14 4.17097C140.1 4.16329 140.071 4.19017 140.06 4.22088C140.049 4.25544 140.06 4.29768 140.096 4.32071C140.885 4.71235 142.045 5.46105 142.99 6.81641C142.998 6.82408 143.001 6.83561 143.009 6.84329C144.077 8.39445 144.121 10.4947 143.11 12.0881C143.089 12.1226 143.067 12.1572 143.045 12.1917C142.118 13.597 140.896 14.2843 140.158 14.5953C140.103 14.6183 140.1 14.6874 140.132 14.722C140.147 14.7373 140.165 14.7489 140.191 14.745C141.42 14.6797 143.921 14.3112 146.063 12.3031C147.037 11.3893 147.659 10.3987 148.052 9.61541C148.586 9.8381 149.721 10.0877 151.237 10.4908C151.509 10.5638 151.771 10.6329 152.029 10.702C151.928 10.8901 151.797 11.0898 151.622 11.2818C151.288 11.6504 150.924 11.8654 150.633 11.9882C150.564 12.019 150.553 12.1034 150.59 12.1533C150.604 12.1764 150.63 12.1917 150.662 12.1956C151.022 12.2263 151.491 12.2148 152.008 12.0689C152.738 11.8615 153.273 11.4699 153.622 11.1359C155.695 11.7118 157.302 12.1917 158.731 12.5757C158.556 12.9558 158.283 13.4089 157.858 13.8389C157.211 14.4878 156.491 14.8103 155.993 14.9716C155.938 14.9869 155.92 15.0445 155.931 15.0906C155.938 15.1251 155.967 15.152 156.007 15.1597C156.622 15.2365 157.498 15.2595 158.487 15.0023C160.025 14.6068 161.032 13.7544 161.541 13.2322C163.134 13.5279 164.766 13.6853 166.944 13.7007C169.257 13.716 172.42 13.7083 176.06 12.376C176.06 12.3684 176.053 12.3568 176.049 12.3492C176.049 12.3492 176.056 12.3684 176.06 12.376C176.533 12.2033 177.012 12.0074 177.5 11.7886C179.081 11.0744 180.318 10.2873 181.158 9.69221C181.201 9.65381 181.234 9.61925 181.256 9.58853C181.256 9.58853 181.277 9.55397 181.292 9.51174C181.317 9.43495 179.896 8.30231 176.038 7.03526V7.04292ZM175.151 9.00876C173.624 8.8667 172.057 8.74768 170.446 8.65553C172.057 8.74768 173.627 8.8667 175.151 9.00876ZM162.872 8.43283C163.239 8.43283 163.607 8.43284 163.974 8.44052C163.603 8.44052 163.236 8.43667 162.872 8.43283Z" fill="#2A1D74"/>
<path d="M210.602 27.619C210.351 27.5383 210.1 27.4539 209.838 27.3732C206.897 26.4402 203.083 25.4189 198.439 24.6433C198.469 24.5781 198.461 24.4936 198.407 24.436C197.516 23.4646 195.458 21.5295 192.153 20.6809C190.215 20.1818 188.502 20.2279 187.295 20.3738C187.215 20.3853 187.164 20.439 187.146 20.5082C187.121 20.5965 187.161 20.704 187.262 20.7385C188.237 21.0495 189.651 21.6792 190.917 22.9539C191.255 23.2957 191.546 23.6451 191.793 23.9868C190.109 23.9829 188.422 24.1058 186.753 24.363C185.364 24.578 183.921 24.8507 182.463 25.1578C182.47 25.1041 182.456 25.0503 182.416 25.0081C181.525 24.0367 179.467 22.1016 176.162 21.253C174.224 20.7539 172.511 20.8 171.304 20.9459C171.224 20.9574 171.173 21.0111 171.155 21.0802C171.133 21.1686 171.169 21.2761 171.275 21.3106C172.249 21.6216 173.664 22.2513 174.929 23.526C175.962 24.5627 176.529 25.6647 176.845 26.494C173.238 27.4308 169.795 28.4445 167.039 29.2431C166.395 28.5404 165.214 27.4961 163.465 27.0008C162.45 26.7128 161.538 26.6936 160.829 26.7551C160.767 26.7589 160.716 26.7935 160.687 26.8357C160.614 26.9355 160.632 27.1045 160.77 27.1621C161.338 27.404 162.054 27.8225 162.708 28.5481C163.206 29.101 163.526 29.6769 163.737 30.1722C163.123 30.3335 162.596 30.4641 162.167 30.5524C159.08 31.1821 156.687 31.3932 155.651 31.7234C154.4 29.9457 152.171 27.2811 148.67 25.1156C145.423 23.1075 142.354 22.3204 140.271 21.9902C140.191 21.9787 140.132 22.0286 140.111 22.09C140.085 22.1592 140.107 22.2436 140.187 22.282C141.732 23.0538 144.008 24.5166 145.852 27.1736C145.863 27.1928 145.877 27.2081 145.888 27.2273C147.982 30.2682 148.07 34.3765 146.092 37.5057C146.048 37.5749 146.004 37.6401 145.961 37.7092C144.143 40.466 141.747 41.806 140.307 42.4203C140.198 42.4664 140.19 42.6008 140.252 42.6699C140.278 42.7006 140.318 42.7198 140.369 42.7198C142.779 42.5931 147.673 41.8675 151.869 37.9396C153.782 36.1504 155 34.2076 155.764 32.6756C156.811 33.1133 159.032 33.6048 162.003 34.3881C162.534 34.5301 163.054 34.6683 163.559 34.8027C163.363 35.1713 163.105 35.5629 162.763 35.9431C162.108 36.6687 161.392 37.0872 160.825 37.3291C160.687 37.3867 160.669 37.5557 160.741 37.6555C160.774 37.6977 160.821 37.7323 160.883 37.7361C161.588 37.7975 162.505 37.7783 163.519 37.4904C164.948 37.0834 165.999 36.3155 166.686 35.6628C170.751 36.7954 173.893 37.7361 176.696 38.4848C176.358 39.2335 175.823 40.1166 174.984 40.9613C173.718 42.236 172.3 42.8657 171.329 43.1767C171.224 43.2113 171.187 43.3188 171.209 43.4071C171.227 43.4724 171.278 43.53 171.358 43.5415C172.566 43.6912 174.278 43.7335 176.216 43.2343C179.227 42.4626 181.201 40.7924 182.201 39.7634C185.321 40.347 188.52 40.6541 192.789 40.681C197.32 40.7117 203.519 40.6964 210.649 38.0817C210.642 38.0663 210.635 38.0471 210.627 38.0318C210.627 38.0318 210.642 38.0663 210.649 38.0817C211.573 37.7438 212.515 37.3598 213.467 36.9298C216.565 35.5284 218.987 33.9849 220.63 32.8215C220.714 32.7447 220.779 32.6794 220.823 32.618C220.823 32.618 220.866 32.5489 220.892 32.4644C220.939 32.3147 218.154 30.0955 210.598 27.6151L210.602 27.619Z" fill="#2A1D74"/>
</svg>
