<svg width="171" height="60" viewBox="0 0 171 60" fill="none" xmlns="http://www.w3.org/2000/svg">
<path d="M167.443 33.7701L170.202 34.2385C169.752 34.8989 168.875 35.6937 167.265 36.6536C166.592 37.0529 164.665 38.151 161.214 39.0072C159.814 39.3528 158.164 39.6638 156.244 39.8634C155.622 41.0076 154.059 42.4628 152.593 43.3728C151.022 44.3518 149.23 44.9047 148.332 44.9086C148.034 44.9086 147.834 44.851 147.772 44.7243C147.568 44.325 148.957 43.6454 150.706 41.1881C151.015 40.7542 151.237 40.401 151.415 40.1092C151.386 40.1092 151.353 40.1092 151.324 40.1092C151.324 40.1092 150.993 40.1092 150.433 40.09C149.877 40.0708 149.092 40.0362 148.19 39.9633C146.386 39.8174 144.114 39.5332 142.231 38.9688C139.802 40.3434 135.315 41.1228 132.45 41.261C130.494 41.3609 128.519 41.215 127.468 40.8502C127.014 40.6928 126.73 40.497 126.698 40.2628C126.643 39.8673 127.337 39.6062 128.356 39.0802C129.37 38.5503 130.708 37.7594 131.93 36.3004C132.657 35.4288 132.984 34.753 133.242 34.2078C132.806 33.9928 132.391 33.8469 131.846 33.7317C130.908 33.5359 131.035 33.724 128.196 33.4322C127.421 33.3516 126.836 33.2748 126.385 33.198C125.603 33.916 124.385 34.5035 123.247 35.0525C121.127 36.0738 119.102 37.0299 118.473 36.285C118.462 36.2735 118.455 36.2581 118.444 36.2466C117.858 35.4403 118.92 33.1673 120.16 31.8196C120.851 31.0671 121.574 30.6255 122.08 30.3683C121.556 30.0189 120.534 29.2203 119.953 27.8035C119.469 26.6248 119.298 25.0506 119.596 24.1713C119.691 23.8949 119.829 23.6875 120.022 23.5839C120.524 23.3112 120.993 23.9563 123.861 26.1026C125.403 27.2583 126.468 27.9609 126.977 28.5445C127.265 28.5407 127.596 28.5445 127.985 28.5445C131.377 28.5791 131.835 28.7979 133.002 28.6328C134.42 28.437 134.973 27.9456 136.329 27.2276C135.606 26.4289 134.929 25.4345 134.195 24.3364C132.919 22.4358 131.973 21.0191 132.406 20.1974C132.85 19.3681 134.471 19.5792 137.344 19.9593C140.093 20.3203 142.391 20.6351 145.423 21.9098C147.87 22.9426 149.495 23.6069 150.223 24.3095C150.997 24.298 151.819 24.3057 152.684 24.3518C153.549 24.3978 154.455 24.4785 155.397 24.6013C157.222 24.8432 160.127 25.2656 163.225 26.7438C163.549 26.8974 163.872 27.0663 164.199 27.2429C165.683 28.0492 166.643 28.8287 167.839 29.7885C169.606 31.2053 170.519 31.9502 170.628 32.8333C169.337 33.2134 167.454 33.7663 167.454 33.7663L167.443 33.7701ZM161.265 30.2531C161.389 29.9152 161.527 29.5927 161.669 29.2817C161.527 29.5889 161.389 29.9152 161.265 30.2531ZM160.516 33.6089V33.5935C160.618 32.4493 160.858 31.4126 161.181 30.4796C160.858 31.4088 160.618 32.4455 160.516 33.5935V33.6089Z" fill="#312383"/>
<path d="M121.24 47.005C120.847 47.1163 120.556 47.2008 120.556 47.2008C121.127 47.3044 121.698 47.3966 122.276 47.4811C121.996 47.8919 121.451 48.3834 120.425 48.9593C120 49.1973 118.76 49.8577 116.589 50.2916C115.709 50.4682 114.684 50.6064 113.517 50.6794C113.113 51.3628 112.132 52.2075 111.226 52.7297C110.255 53.2903 109.165 53.5898 108.623 53.5706C108.445 53.5629 108.325 53.5245 108.288 53.4439C108.176 53.1943 109.023 52.8103 110.132 51.3475C110.328 51.0864 110.47 50.879 110.583 50.7063H110.528C110.528 50.7063 107.303 50.5757 105.034 49.8232C103.536 50.6218 100.813 51.0365 99.0784 51.0979C97.893 51.1401 96.6968 51.0365 96.0641 50.8099C95.7878 50.7101 95.6205 50.5911 95.6023 50.4452C95.5405 49.9614 97.2931 49.8232 98.8057 48.057C99.2565 47.531 99.4638 47.1202 99.6238 46.79C99.362 46.6556 99.1074 46.5596 98.7765 46.4866C98.2057 46.3561 98.2821 46.4751 96.5477 46.2755C96.075 46.2217 95.7187 46.1718 95.4423 46.1219C94.9624 46.5557 94.217 46.9128 93.5189 47.243C92.2245 47.8612 90.9919 48.4486 90.6101 47.9917C90.6028 47.984 90.5992 47.9764 90.5919 47.9687C90.2355 47.4734 90.8792 46.0873 91.6391 45.2618C92.0609 44.8011 92.5045 44.5323 92.8172 44.3749C92.4972 44.1599 91.8718 43.6723 91.5118 42.8045C91.2136 42.0827 91.1082 41.119 91.2936 40.5814C91.3518 40.4125 91.439 40.2858 91.5554 40.2205C91.8644 40.0554 92.159 40.4471 93.9188 41.7678C94.8642 42.4782 95.515 42.9159 95.8277 43.2729C96.0059 43.2729 96.2095 43.2729 96.4459 43.2806C98.5293 43.3267 98.8093 43.4649 99.5292 43.3766C100.402 43.2691 100.747 42.9773 101.587 42.555C101.151 42.0597 100.744 41.4377 100.3 40.7619C99.5292 39.587 98.9583 38.7116 99.231 38.2125C99.511 37.7095 100.518 37.8515 102.296 38.1241C103.998 38.3814 105.416 38.6118 107.27 39.4488C108.765 40.1245 109.754 40.5738 110.186 41.0191C111.143 41.0383 112.212 41.1228 113.368 41.3263C113.928 41.4261 114.651 41.5605 115.459 41.7909C116.266 42.0251 117.157 42.3515 118.073 42.8391C118.262 42.9389 118.455 43.0464 118.647 43.1616C119.524 43.6838 120.091 44.1637 120.811 44.7588C121.876 45.6304 122.451 46.0681 122.523 46.6095C122.127 46.7324 121.636 46.8821 121.243 46.9935L121.24 47.005ZM116.822 44.947C116.906 44.7435 116.997 44.5477 117.091 44.3634C116.997 44.5477 116.909 44.7435 116.822 44.947ZM116.295 48.9708C116.215 48.3603 116.2 47.6922 116.288 46.9819V46.9742C116.378 46.2755 116.549 45.6496 116.768 45.089C116.549 45.6496 116.378 46.2755 116.291 46.9742V46.9819C116.2 47.6961 116.215 48.3603 116.295 48.9708Z" fill="#312383"/>
<path d="M112.521 23.2114L113.35 23.3842C113.208 23.58 112.935 23.8104 112.441 24.083C112.233 24.1982 111.644 24.5092 110.605 24.7396C110.183 24.8317 109.685 24.9123 109.106 24.9622C108.914 25.304 108.438 25.734 107.998 26.0028C107.525 26.2907 106.987 26.452 106.718 26.452C106.63 26.452 106.569 26.4328 106.55 26.3944C106.492 26.2715 106.907 26.0719 107.438 25.3347C107.532 25.2041 107.601 25.1005 107.656 25.0122C107.645 25.0122 107.638 25.0122 107.627 25.0122C107.627 25.0122 106.03 24.9891 104.9 24.6436C104.169 25.0544 102.823 25.2924 101.969 25.3462C101.384 25.3808 100.791 25.3462 100.475 25.2387C100.336 25.1926 100.253 25.135 100.242 25.0659C100.206 24.8279 101.071 24.7396 101.802 23.8449C102.02 23.58 102.118 23.3765 102.191 23.2076C102.06 23.1423 101.933 23.1001 101.769 23.0655C101.485 23.0079 101.525 23.0655 100.664 22.9887C100.431 22.9657 100.253 22.9465 100.115 22.9273C99.8819 23.1462 99.5184 23.3343 99.1766 23.5071C98.5439 23.8296 97.9403 24.1329 97.7439 23.9141C97.7439 23.9141 97.7366 23.9064 97.7366 23.9025C97.5548 23.6606 97.8567 22.9695 98.2239 22.551C98.4275 22.3168 98.6457 22.1786 98.7948 22.098C98.6348 21.9943 98.3184 21.7601 98.133 21.3377C97.9766 20.9845 97.9149 20.5084 98.0021 20.2435C98.0276 20.159 98.0712 20.0937 98.1293 20.063C98.2784 19.9785 98.4311 20.1667 99.3147 20.8002C99.791 21.1381 100.118 21.3492 100.275 21.522C100.362 21.522 100.464 21.5182 100.58 21.5182C101.609 21.5182 101.751 21.5796 102.103 21.5297C102.536 21.4683 102.7 21.3185 103.114 21.0997C102.893 20.8578 102.685 20.5583 102.46 20.2281C102.067 19.656 101.773 19.2298 101.904 18.9803C102.038 18.7307 102.536 18.7883 103.42 18.8996C104.263 19.0071 104.969 19.1031 105.892 19.4948C106.638 19.8096 107.132 20.0208 107.35 20.2358C107.823 20.2358 108.354 20.2627 108.928 20.351C109.485 20.4354 110.368 20.5813 111.299 21.0574C111.146 21.2456 110.983 21.476 110.841 21.7486C110.983 21.476 111.143 21.2456 111.299 21.0574C111.397 21.1074 111.492 21.1611 111.59 21.2149C112.033 21.4721 112.317 21.7178 112.673 22.0212C113.197 22.4704 113.462 22.7046 113.488 22.9734C113.095 23.0732 112.521 23.2229 112.521 23.2229V23.2114ZM110.681 22.0903C110.721 21.9904 110.765 21.8906 110.812 21.7985C110.765 21.8906 110.721 21.9866 110.681 22.0903ZM110.448 24.083C110.405 23.7797 110.394 23.4533 110.43 23.1001C110.43 23.1001 110.43 23.1001 110.43 23.0962C110.466 22.7507 110.55 22.4397 110.652 22.1594C110.546 22.4358 110.466 22.7507 110.43 23.0962C110.43 23.0962 110.43 23.0962 110.43 23.1001C110.39 23.4533 110.405 23.7835 110.448 24.083Z" fill="#312383"/>
<path d="M108.052 7.73045L109.786 7.95315C109.517 8.37933 108.99 8.90151 108.008 9.54271C107.597 9.81148 106.423 10.5487 104.303 11.1937C103.442 11.4548 102.427 11.7005 101.242 11.8963C100.893 12.6335 99.9691 13.6011 99.0965 14.2269C98.1584 14.8988 97.0713 15.3174 96.5186 15.3558C96.3368 15.3673 96.2096 15.3404 96.1659 15.2636C96.0278 15.0217 96.8567 14.5418 97.853 12.933C98.0312 12.6489 98.1548 12.4185 98.253 12.2304C98.2348 12.2304 98.2166 12.2304 98.1948 12.2304C98.1948 12.2304 94.8897 12.4339 92.5044 11.904C91.05 12.8754 88.3085 13.5819 86.5414 13.8238C85.3343 13.9889 84.1053 14.0081 83.4362 13.843C83.1454 13.77 82.9599 13.6664 82.9308 13.5205C82.8217 13.0328 84.5998 12.7103 85.9778 10.7522C86.3887 10.1685 86.5596 9.73085 86.6941 9.37377C86.4105 9.26242 86.1451 9.19331 85.7997 9.15108C85.207 9.07812 85.2942 9.19331 83.5053 9.16644C83.0181 9.15876 82.6472 9.14724 82.3636 9.12804C81.9128 9.6195 81.1855 10.061 80.5056 10.4719C79.2402 11.2359 78.0367 11.9654 77.6041 11.5393C77.5968 11.5316 77.5895 11.5239 77.5859 11.5162C77.175 11.0478 77.7022 9.56575 78.4003 8.64426C78.7894 8.12977 79.2185 7.80724 79.5202 7.61527C79.1712 7.43097 78.4876 6.99711 78.044 6.14857C77.6731 5.4421 77.4768 4.47069 77.6113 3.90244C77.655 3.72583 77.7313 3.58376 77.844 3.50697C78.1422 3.30732 78.4803 3.67591 80.4038 4.83929C81.4364 5.46513 82.1418 5.84525 82.4908 6.17929C82.669 6.16009 82.8799 6.14089 83.1235 6.12169C85.2542 5.95275 85.5523 6.0641 86.2795 5.899C87.1631 5.69934 87.4831 5.36531 88.3048 4.84697C87.814 4.38623 87.3413 3.79494 86.8249 3.1499C85.9305 2.02876 85.2615 1.19558 85.4978 0.658046C85.7378 0.116673 86.7777 0.158909 88.6176 0.251058C90.3774 0.339367 91.8464 0.423833 93.8207 1.08807C95.4097 1.62561 96.4604 1.97884 96.944 2.38967C97.9221 2.30904 99.0202 2.28601 100.22 2.37432C101.38 2.45878 103.231 2.62004 105.223 3.45322C104.932 3.86789 104.631 4.36703 104.38 4.95063C104.634 4.36703 104.932 3.86405 105.223 3.45322C105.43 3.54153 105.638 3.63368 105.849 3.73735C106.805 4.20193 107.427 4.65883 108.201 5.23092C109.343 6.07562 109.932 6.51716 110.019 7.07005C109.219 7.33882 108.056 7.73813 108.056 7.73813L108.052 7.73045ZM104.089 5.70702C104.158 5.49201 104.234 5.28467 104.314 5.08502C104.234 5.28467 104.158 5.48817 104.089 5.70702ZM103.892 9.86907C103.758 9.25091 103.685 8.57131 103.714 7.83796C103.714 7.83796 103.714 7.83028 103.714 7.82644C103.743 7.10461 103.863 6.44805 104.042 5.85676C103.863 6.44805 103.743 7.10845 103.714 7.82644C103.714 7.82644 103.714 7.83412 103.714 7.83796C103.685 8.57515 103.758 9.25475 103.892 9.86907Z" fill="#312383"/>
<path d="M84.3743 27.888L85.9232 28.341C85.6251 28.6904 85.076 29.0897 84.1088 29.5351C83.7016 29.7233 82.549 30.2301 80.5528 30.5296C79.742 30.6563 78.793 30.7407 77.6986 30.7676C77.2986 31.3973 76.3569 32.1614 75.4988 32.6259C74.5789 33.1212 73.5572 33.3785 73.0518 33.3439C72.8845 33.3324 72.7754 33.2902 72.7427 33.2172C72.6445 32.9792 73.4408 32.6413 74.5134 31.2898C74.7025 31.0517 74.8407 30.8559 74.9534 30.6947H74.9025C74.9025 30.6947 74.1498 30.6371 73.1317 30.4873C72.1136 30.3414 70.8338 30.0995 69.7757 29.7233C68.3577 30.4451 65.8052 30.7945 64.1836 30.8444C63.0746 30.8751 61.9583 30.7715 61.3656 30.5564C61.1075 30.4643 60.9511 30.3491 60.9329 30.2147C60.8747 29.754 62.5146 29.6273 63.9472 27.9763C64.3762 27.4848 64.5726 27.1009 64.7253 26.786C64.4781 26.6555 64.2417 26.5633 63.929 26.4904C63.3908 26.3637 63.4635 26.4789 61.8273 26.2792C61.3837 26.2255 61.0456 26.1832 60.7838 26.1333C60.3293 26.5403 59.6276 26.8782 58.9731 27.193C57.755 27.7766 56.6024 28.3449 56.2388 27.9148C56.2316 27.9072 56.2279 27.8995 56.2243 27.8918C55.8825 27.4272 56.4788 26.1141 57.1914 25.327C57.5877 24.8893 58.0059 24.632 58.3004 24.4823C57.995 24.2788 57.4023 23.8257 57.0569 23.0079C56.7697 22.3283 56.6642 21.4184 56.8351 20.9115C56.8896 20.7503 56.9697 20.6313 57.0824 20.5698C57.3733 20.4124 57.6605 20.7772 59.3404 22.0212C60.2421 22.6892 60.8566 23.1078 61.1511 23.4418C61.3183 23.4418 61.511 23.4418 61.7401 23.4495C63.7144 23.5032 63.9799 23.6338 64.6634 23.5608C65.4924 23.4687 65.8197 23.1961 66.6233 22.8083C66.2161 22.3322 65.8343 21.7409 65.4198 21.0997C64.6962 19.9824 64.1544 19.1492 64.4199 18.6846C64.6926 18.2124 65.6561 18.3544 67.3541 18.6347C68.9794 18.9035 70.3357 19.1454 72.0882 19.9862C73.5027 20.662 74.4334 21.115 74.8334 21.5489C75.7424 21.595 76.7605 21.7102 77.8549 21.9482C78.913 22.1747 80.5965 22.5664 82.32 23.5992C82 23.9371 81.6655 24.3518 81.3637 24.8509C81.6655 24.3518 82.0036 23.9371 82.32 23.5992C82.4981 23.7067 82.6799 23.8219 82.8581 23.9409C83.6762 24.4977 84.1853 25.0006 84.8216 25.6342C85.756 26.5672 86.2323 27.0548 86.2396 27.5693C85.4797 27.6998 84.3671 27.8956 84.3671 27.8956L84.3743 27.888ZM80.3383 29.2625C80.2911 28.6827 80.3056 28.0531 80.422 27.385V27.3773C80.5383 26.7246 80.7274 26.141 80.9601 25.6226C80.7274 26.1371 80.5383 26.7207 80.4256 27.3773V27.385C80.3092 28.0531 80.2947 28.6827 80.342 29.2625H80.3383Z" fill="#312383"/>
<path d="M75.3388 49.3663C74.7825 49.4891 74.3716 49.5813 74.3716 49.5813C75.1533 49.7733 75.9351 49.9652 76.7169 50.1649C76.2878 50.7101 75.4879 51.3398 74.0735 52.077C73.4808 52.3918 71.7973 53.2288 68.8813 53.8854C67.6959 54.1503 66.3106 54.3922 64.7035 54.565C64.4453 55.0641 63.9908 55.6285 63.4563 56.1776C62.9219 56.7228 62.3037 57.245 61.711 57.6558C61.0747 58.0935 60.3948 58.4506 59.7839 58.6963C59.1731 58.9497 58.6313 59.088 58.2641 59.1072C58.0241 59.1187 57.8569 59.0726 57.8023 58.9689C57.7114 58.8 57.9441 58.5504 58.3659 58.0705C58.7913 57.5944 59.4094 56.8841 60.1039 55.7898C60.3511 55.402 60.5257 55.091 60.6675 54.8299H60.5911C60.5911 54.8299 59.4785 54.8606 57.9659 54.8031C56.4497 54.7416 54.5445 54.6149 52.9119 54.254C51.9265 54.9336 50.4939 55.5326 48.9522 56.0048C47.4178 56.4771 45.778 56.815 44.469 56.9685C44.0218 57.0223 43.5637 57.0568 43.1237 57.0799C42.6837 57.1029 42.2401 57.1029 41.8329 57.0914C41.4257 57.0837 41.0366 57.0492 40.6876 57.0069C40.3385 56.9609 40.0367 56.9071 39.7822 56.8303C39.3423 56.6998 39.0695 56.5308 39.0368 56.3273C39.0077 56.1546 39.1605 56.0087 39.4368 55.8512C39.575 55.7706 39.7458 55.69 39.9385 55.594C40.1313 55.498 40.3458 55.3867 40.5821 55.2676C40.8148 55.1448 41.0657 55.0104 41.3275 54.8491C41.5857 54.6879 41.8547 54.5036 42.1274 54.2962C42.6728 53.8854 43.2256 53.3517 43.7346 52.6836C44.3418 51.885 44.589 51.2707 44.7817 50.7831C44.3854 50.6218 44.0146 50.5258 43.5273 50.4529C42.6947 50.3262 42.8146 50.5143 40.2985 50.3454C40.1276 50.3338 39.9677 50.3185 39.815 50.307C39.6623 50.2916 39.524 50.2762 39.3895 50.2609C39.1241 50.2302 38.895 50.1995 38.6951 50.1687C38.0078 50.7984 36.9134 51.3014 35.8553 51.7314C35.6117 51.8351 35.3644 51.9272 35.1208 52.0194C34.8772 52.1115 34.6336 52.196 34.4009 52.2805C34.1646 52.3649 33.9319 52.4341 33.7101 52.4916C33.4847 52.5531 33.2701 52.603 33.0665 52.6414C32.6593 52.7259 32.2921 52.7489 32.0012 52.7067C31.7067 52.6683 31.4849 52.5684 31.3576 52.388C31.3503 52.3765 31.343 52.3649 31.3358 52.3496C31.1067 51.9618 31.314 51.3168 31.7176 50.6333C31.9212 50.2916 32.1721 49.9422 32.4448 49.612C32.7175 49.2818 33.0119 48.9785 33.3101 48.7059C33.9682 48.1108 34.6009 47.7882 35.0445 47.5847C34.6191 47.2622 33.8191 46.4751 33.4846 45.2081C33.2083 44.1368 33.2556 42.7546 33.5538 42.0213C33.6483 41.7909 33.7683 41.622 33.9137 41.5528C34.1064 41.453 34.2737 41.5452 34.6373 41.9253C34.7282 42.0213 34.8336 42.1326 34.9536 42.267C35.0772 42.3975 35.219 42.5434 35.379 42.7085C35.5426 42.8736 35.7244 43.0618 35.9353 43.2691C36.1462 43.4803 36.3898 43.6953 36.6661 43.941C37.8515 44.9892 38.746 45.592 39.175 46.095C39.415 46.0912 39.6913 46.0873 40.0149 46.0796C40.7275 46.072 41.2875 46.0643 41.7384 46.0604C41.9638 46.0604 42.1675 46.0604 42.3456 46.0604C42.5274 46.0604 42.6874 46.0604 42.8328 46.0604C43.4146 46.0604 43.76 46.0489 44.2582 45.9414C44.8581 45.8147 45.2689 45.6304 45.6689 45.3885C46.0689 45.1505 46.4579 44.8548 47.0179 44.4901C46.3379 43.8527 45.698 43.0272 45.0108 42.1249C43.8218 40.5546 42.9928 39.372 43.2982 38.6348C43.6218 37.8823 44.8944 37.9859 47.3924 38.0934C47.6905 38.1088 47.9851 38.1203 48.276 38.1357C48.5705 38.151 48.8613 38.1664 49.1486 38.1817C49.7231 38.2201 50.3085 38.2662 50.9012 38.3392C51.4939 38.4121 52.1083 38.5119 52.7482 38.654C53.3918 38.7961 54.0608 38.9727 54.7735 39.2107C57.0678 39.9671 58.5659 40.5047 59.2458 41.0921C60.653 41.0192 62.2346 41.0499 63.9435 41.2572C65.5943 41.4569 68.2377 41.8523 70.9647 43.2576C70.5029 43.7951 70.0266 44.4517 69.6085 45.2311C70.0266 44.4478 70.5029 43.7951 70.9647 43.2576C71.2483 43.4035 71.5319 43.5609 71.8155 43.7299C72.4628 44.1138 72.9863 44.4862 73.4771 44.8817C73.968 45.2733 74.4189 45.6803 74.9206 46.1372C76.3968 47.4811 77.1314 48.1991 77.1641 48.9747C76.5932 49.0937 75.8951 49.2396 75.3388 49.3663ZM69.1285 46.2563C69.2485 45.9645 69.3757 45.6842 69.5103 45.4192C69.3757 45.6842 69.2485 45.9606 69.1285 46.2563ZM68.4522 52.004C68.3286 51.1325 68.2922 50.1841 68.4013 49.1666V49.1513C68.5104 48.153 68.7431 47.2545 69.0485 46.4559C68.7431 47.2584 68.5104 48.1568 68.4013 49.1513V49.1666C68.2886 50.1841 68.325 51.1363 68.4486 52.004H68.4522Z" fill="#312383"/>
<path d="M47.1815 27.1815L47.9487 27.4503C47.7923 27.6154 47.5051 27.7997 47.007 27.9955C46.7998 28.0761 46.2034 28.2988 45.189 28.3833C44.7781 28.4178 44.2945 28.4293 43.7418 28.4025C43.52 28.7019 43.0182 29.0513 42.5674 29.2472C42.0838 29.4583 41.5566 29.5466 41.302 29.5082C41.2184 29.4967 41.1639 29.4698 41.1493 29.4315C41.1057 29.3086 41.5238 29.1704 42.1129 28.5407C42.2183 28.4293 42.2947 28.3372 42.3565 28.2604C42.3493 28.2604 42.3383 28.2604 42.3311 28.2604C42.3311 28.2604 40.8185 28.03 39.7858 27.5616C39.0441 27.8611 37.7424 27.911 36.9206 27.8534C36.3607 27.8112 35.8044 27.6998 35.5135 27.5616C35.3899 27.5002 35.3135 27.4349 35.3135 27.3658C35.3063 27.1354 36.1389 27.1623 36.9315 26.4097C37.1679 26.1871 37.2842 26.0028 37.3751 25.8569C37.2588 25.7801 37.1425 25.7225 36.9898 25.6687C36.728 25.5766 36.757 25.638 35.9498 25.4537C35.7317 25.4038 35.5644 25.3616 35.4372 25.3232C35.1899 25.5036 34.8226 25.6303 34.4809 25.7532C33.8409 25.9759 33.2338 26.1909 33.0774 25.9528C33.0774 25.949 33.0738 25.9452 33.0701 25.9413C32.9247 25.6918 33.2919 25.0698 33.6882 24.7204C33.91 24.5245 34.1318 24.4209 34.2845 24.3633C34.1427 24.2443 33.8736 23.9832 33.7427 23.557C33.6373 23.2037 33.63 22.743 33.7427 22.5011C33.7791 22.4243 33.8228 22.3706 33.881 22.3437C34.0337 22.2823 34.1536 22.4819 34.9208 23.1922C35.3353 23.5762 35.6189 23.8142 35.7498 23.9985C35.8335 24.0062 35.928 24.0177 36.0407 24.0331C37.0188 24.1636 37.1424 24.2404 37.4879 24.2404C37.9024 24.2366 38.0805 24.1137 38.495 23.9601C38.3132 23.7029 38.1496 23.3919 37.9751 23.0502C37.6661 22.4589 37.437 22.0135 37.5897 21.7946C37.746 21.5758 38.2114 21.6948 39.0368 21.9137C39.8258 22.1248 40.4839 22.3053 41.3166 22.7968C41.9893 23.1922 42.4329 23.4572 42.6183 23.6875C43.0655 23.7451 43.5673 23.8411 44.1017 23.9985C44.6181 24.1483 45.4399 24.4017 46.2689 24.9738C46.3562 25.0314 46.4398 25.0966 46.527 25.1619C46.9197 25.4652 47.1597 25.734 47.4615 26.0642C47.9051 26.5557 48.1305 26.8129 48.1232 27.0701C47.7378 27.1124 47.1779 27.1815 47.1779 27.1815H47.1815ZM45.5671 25.8837C45.618 25.7916 45.6689 25.7071 45.7235 25.6265C45.6689 25.7071 45.618 25.7954 45.5671 25.8837ZM45.1162 27.7459C45.1089 27.4541 45.1344 27.1393 45.2107 26.8091C45.2107 26.8091 45.2107 26.8091 45.2107 26.8052C45.2107 26.8052 45.2107 26.8052 45.2107 26.8091C45.1344 27.1393 45.1053 27.4541 45.1162 27.7459Z" fill="#312383"/>
<path d="M62.7764 10.7253L63.3981 10.8597C63.289 11.0056 63.0818 11.1783 62.7109 11.3818C62.5546 11.4663 62.1073 11.6967 61.322 11.8656C61.002 11.9347 60.6274 11.9923 60.1911 12.0269C60.0457 12.2841 59.6821 12.6067 59.3476 12.8063C58.9877 13.0213 58.584 13.1403 58.3804 13.1365C58.3149 13.1365 58.2677 13.1212 58.2568 13.0904C58.2132 12.9983 58.5258 12.8485 58.9331 12.2957C59.0058 12.1958 59.0568 12.119 59.0968 12.0538C59.0895 12.0538 59.0822 12.0538 59.0749 12.0538C59.0749 12.0538 57.8713 12.0269 57.0205 11.762C56.4678 12.0691 55.4535 12.2419 54.8062 12.2765C54.3627 12.2995 53.919 12.2688 53.679 12.1881C53.5772 12.1536 53.5118 12.1075 53.5045 12.0538C53.4791 11.8733 54.1336 11.8119 54.6862 11.1438C54.8498 10.9441 54.9262 10.7906 54.9844 10.6677C54.8862 10.6178 54.7917 10.5871 54.6644 10.5602C54.4499 10.5141 54.4789 10.5602 53.8317 10.4949C53.6536 10.4757 53.5227 10.4604 53.4173 10.445C53.2391 10.6101 52.9628 10.7483 52.7046 10.875C52.2247 11.1131 51.7702 11.3396 51.6247 11.1745C51.6247 11.1745 51.6211 11.1668 51.6175 11.1668C51.4829 10.9864 51.712 10.4642 51.992 10.1494C52.1483 9.97658 52.3119 9.87291 52.4246 9.81148C52.3046 9.73469 52.0683 9.55423 51.9301 9.23555C51.8137 8.96678 51.7701 8.6097 51.8356 8.40621C51.8574 8.34094 51.8865 8.29487 51.9301 8.27183C52.0428 8.20656 52.1556 8.35246 52.821 8.8324C53.1773 9.08965 53.4246 9.25091 53.5409 9.38145C53.6064 9.38145 53.6827 9.38145 53.7736 9.38145C54.5517 9.38145 54.6571 9.4352 54.9225 9.39681C55.2461 9.35073 55.3734 9.23939 55.6861 9.07813C55.5189 8.89383 55.3661 8.6673 55.1952 8.41773C54.9007 7.98386 54.6826 7.66134 54.7808 7.47321C54.8826 7.28507 55.2607 7.33114 55.9224 7.42329C56.5587 7.50776 57.0896 7.58455 57.7841 7.88788C58.3477 8.12977 58.7186 8.29103 58.8822 8.45613C59.2385 8.45613 59.6385 8.483 60.0712 8.55211C60.4893 8.61739 61.1547 8.73257 61.8564 9.09733C61.7401 9.23939 61.6165 9.41217 61.5074 9.61566C61.6165 9.41217 61.7364 9.23939 61.8564 9.09733C61.9292 9.13572 62.0019 9.17412 62.0746 9.22019C62.4091 9.41601 62.62 9.60414 62.8855 9.83451C63.2781 10.1762 63.4781 10.3529 63.4926 10.5563C63.1945 10.6293 62.7618 10.7368 62.7618 10.7368L62.7764 10.7253ZM61.3947 9.86907C61.4274 9.79228 61.4601 9.71933 61.4928 9.65022C61.4565 9.71933 61.4237 9.79228 61.3947 9.86907ZM61.2092 11.3703C61.1765 11.1438 61.1692 10.8942 61.2019 10.6293C61.231 10.3682 61.2928 10.134 61.3765 9.92283C61.2965 10.134 61.2347 10.3682 61.2019 10.6293C61.1729 10.8942 61.1801 11.1438 61.2092 11.3703Z" fill="#312383"/>
<path d="M40.1166 13.2939L41.5056 13.555C41.2729 13.8852 40.8257 14.2807 40.0076 14.7491C39.6659 14.9449 38.6914 15.4863 36.957 15.9048C36.2516 16.0737 35.4263 16.2235 34.4627 16.3233C34.15 16.8992 33.3683 17.6364 32.6374 18.0972C31.8521 18.5925 30.9612 18.8804 30.514 18.8843C30.3649 18.8843 30.2667 18.8574 30.234 18.7921C30.1322 18.5886 30.8194 18.2431 31.6884 16.9952C31.8411 16.7725 31.9538 16.5959 32.0411 16.45C32.0265 16.45 32.012 16.45 31.9938 16.45C31.9938 16.45 29.3286 16.4577 27.427 15.9202C26.2162 16.6343 23.9801 17.072 22.5475 17.1872C21.5694 17.264 20.5804 17.2218 20.0495 17.0567C19.8204 16.9837 19.675 16.8916 19.6568 16.7725C19.5877 16.3732 21.0349 16.1966 22.2275 14.6877C22.5838 14.2384 22.7402 13.8929 22.8638 13.6126C22.642 13.5089 22.4311 13.4398 22.1511 13.3899C21.6748 13.3016 21.7439 13.3976 20.304 13.2939C19.9113 13.2671 19.6168 13.2402 19.3841 13.2095C19.0023 13.5857 18.3987 13.9044 17.8315 14.2039C16.7807 14.7606 15.7845 15.2905 15.4536 14.9257C15.45 14.918 15.4427 14.9142 15.4391 14.9065C15.1264 14.5111 15.6172 13.34 16.2171 12.6335C16.5516 12.2381 16.908 12 17.1589 11.8579C16.8862 11.6928 16.3553 11.3127 16.0317 10.6063C15.7626 10.0227 15.6463 9.22786 15.7808 8.77864C15.8245 8.63658 15.8899 8.52907 15.9845 8.47148C16.2354 8.32173 16.4899 8.63658 17.9879 9.66557C18.7915 10.2185 19.3441 10.5563 19.6132 10.8405C19.7586 10.8328 19.9259 10.8289 20.1258 10.8251C21.8493 10.7867 22.082 10.8904 22.6747 10.7944C23.391 10.6754 23.6674 10.422 24.3473 10.0418C23.9728 9.64638 23.6164 9.15107 23.2274 8.60586C22.5547 7.66134 22.053 6.9587 22.2639 6.5402C22.4784 6.11785 23.3147 6.19848 24.7909 6.35974C26.2017 6.51332 27.3833 6.65155 28.9395 7.27739C30.1976 7.78421 31.0266 8.11824 31.3975 8.47148C32.1865 8.45228 33.0737 8.48684 34.0336 8.61354C34.9644 8.73641 36.4443 8.95526 38.015 9.71932C37.7641 10.038 37.5024 10.4258 37.2734 10.8865C37.5024 10.4296 37.7641 10.038 38.015 9.71932C38.1786 9.79995 38.3423 9.88443 38.5059 9.97658C39.2549 10.3951 39.7385 10.7944 40.3348 11.2897C41.2184 12.023 41.6729 12.407 41.7202 12.8562C41.0657 13.0328 40.1094 13.3016 40.1094 13.3016L40.1166 13.2939ZM37.0151 11.4817C37.0806 11.3127 37.1497 11.1476 37.2224 10.994C37.1497 11.1476 37.0769 11.3127 37.0151 11.4817ZM36.6261 13.1787C36.6261 13.1787 36.6261 13.1749 36.6261 13.1711C36.6261 13.1711 36.6261 13.1749 36.6261 13.1787Z" fill="#312383"/>
<path d="M24.5836 33.9774L25.8999 34.2731C25.6672 34.5803 25.2273 34.9412 24.4382 35.3597C24.1074 35.5363 23.162 36.0162 21.493 36.358C20.8167 36.4962 20.0241 36.6114 19.1041 36.6728C18.7878 37.2142 18.0206 37.8861 17.3116 38.3008C16.548 38.7461 15.69 38.9919 15.2646 38.9804C15.1228 38.9765 15.0282 38.9458 14.9992 38.8844C14.9083 38.6886 15.5736 38.3814 16.439 37.2219C16.5917 37.0145 16.7008 36.8494 16.7917 36.7112C16.7771 36.7112 16.7626 36.7112 16.748 36.7112C16.748 36.7112 14.2065 36.6267 12.4139 36.0508C11.2395 36.6882 9.09426 37.0299 7.72349 37.0913C6.78903 37.1335 5.84729 37.0568 5.34552 36.8801C5.12736 36.8033 4.99282 36.7074 4.97828 36.596C4.92737 36.2159 6.30903 36.0969 7.49073 34.6954C7.84342 34.2769 8.00341 33.9544 8.12703 33.6933C7.91978 33.5858 7.71985 33.5167 7.45442 33.4591C7.00356 33.3593 7.06534 33.4553 5.6982 33.3055C5.32733 33.2633 5.04375 33.2287 4.82559 33.1903C4.44745 33.5359 3.862 33.82 3.31659 34.085C2.29851 34.5803 1.33131 35.0487 1.02589 34.6916C1.02225 34.6878 1.01869 34.6801 1.01142 34.6724C0.727808 34.2846 1.22957 33.1865 1.82224 32.5299C2.15312 32.1652 2.5021 31.9502 2.74571 31.8235C2.49119 31.6545 1.99675 31.2744 1.7095 30.5948C1.46953 30.0266 1.38226 29.2702 1.52406 28.844C1.5677 28.7096 1.6368 28.6098 1.7277 28.5599C1.97131 28.4255 2.20398 28.7327 3.60021 29.7655C4.34923 30.3184 4.86551 30.6601 5.11276 30.9404C5.25093 30.9404 5.41095 30.9404 5.60002 30.9404C7.2435 30.9634 7.46164 31.0709 8.02885 30.998C8.71606 30.9097 8.9852 30.6755 9.64695 30.3376C9.30153 29.9498 8.9779 29.4622 8.62521 28.9323C8.01436 28.0108 7.55619 27.3236 7.77071 26.9281C7.98887 26.5326 8.78521 26.6401 10.1851 26.8436C11.5268 27.0394 12.6466 27.2084 14.1119 27.8611C15.2936 28.3871 16.0754 28.7327 16.4208 29.0821C17.1735 29.0897 18.017 29.155 18.9296 29.3086C19.8132 29.4583 21.2167 29.7156 22.6893 30.4988C22.842 30.5795 22.9947 30.6678 23.1511 30.7599C23.8528 31.1861 24.3 31.5816 24.8563 32.073C25.6781 32.8026 26.0962 33.1827 26.1289 33.6127C25.4999 33.7586 24.58 33.9813 24.58 33.9813L24.5836 33.9774ZM21.6821 32.1422C21.7476 31.9809 21.8203 31.8273 21.8967 31.6853C21.8203 31.8312 21.7476 31.9847 21.6821 32.1422ZM21.264 35.3136C21.2022 34.8298 21.1913 34.3077 21.2604 33.7432C21.2604 33.7432 21.2604 33.7394 21.2604 33.7356C21.2604 33.7356 21.2604 33.7394 21.2604 33.7432C21.1913 34.3038 21.2022 34.8298 21.264 35.3136Z" fill="#312383"/>
</svg>
